<svg width="36" height="30" viewBox="0 0 36 30" fill="none" xmlns="http://www.w3.org/2000/svg">
<path d="M20.7001 22H6.3001C4.8115 22 3.6001 20.654 3.6001 19V3C3.6001 1.346 4.8115 0 6.3001 0H29.7001C31.1887 0 32.4001 1.346 32.4001 3V5C32.4001 5.552 31.9969 6 31.5001 6C31.0033 6 30.6001 5.552 30.6001 5V3C30.6001 2.448 30.1969 2 29.7001 2H6.3001C5.8033 2 5.4001 2.448 5.4001 3V19C5.4001 19.552 5.8033 20 6.3001 20H20.7001C21.1969 20 21.6001 20.448 21.6001 21C21.6001 21.552 21.1969 22 20.7001 22Z" fill="black"/>
<path d="M20.7 29.9994H2.7C1.2114 29.9994 0 28.6534 0 26.9994V24.9994C0 24.4474 0.4032 23.9994 0.9 23.9994H20.7C21.1968 23.9994 21.6 24.4474 21.6 24.9994C21.6 25.5514 21.1968 25.9994 20.7 25.9994H1.8V26.9994C1.8 27.5514 2.2032 27.9994 2.7 27.9994H20.7C21.1968 27.9994 21.6 28.4474 21.6 28.9994C21.6 29.5514 21.1968 29.9994 20.7 29.9994Z" fill="black"/>
<path d="M33.2999 29.9999H26.0999C24.6113 29.9999 23.3999 28.6539 23.3999 26.9999V10.9999C23.3999 9.34588 24.6113 7.99988 26.0999 7.99988H33.2999C34.7885 7.99988 35.9999 9.34588 35.9999 10.9999V26.9999C35.9999 28.6539 34.7885 29.9999 33.2999 29.9999ZM26.0999 9.99988C25.6031 9.99988 25.1999 10.4479 25.1999 10.9999V26.9999C25.1999 27.5519 25.6031 27.9999 26.0999 27.9999H33.2999C33.7967 27.9999 34.1999 27.5519 34.1999 26.9999V10.9999C34.1999 10.4479 33.7967 9.99988 33.2999 9.99988H26.0999Z" fill="black"/>
<path d="M29.6998 25.9994C29.4622 25.9994 29.2318 25.8934 29.0644 25.7054C28.897 25.5174 28.7998 25.2614 28.7998 24.9994C28.7998 24.7374 28.8952 24.4774 29.0644 24.2934C29.2318 24.1074 29.464 23.9994 29.6998 23.9994C29.9356 23.9994 30.1696 24.1054 30.3352 24.2934C30.5026 24.4794 30.5998 24.7374 30.5998 24.9994C30.5998 25.2614 30.5044 25.5214 30.3352 25.7054C30.1678 25.8914 29.9356 25.9994 29.6998 25.9994Z" fill="black"/>
</svg>
