<?xml version="1.0" encoding="utf-8"?><svg viewBox="0 0 1440 274" xmlns="http://www.w3.org/2000/svg" xmlns:xlink="http://www.w3.org/1999/xlink"><style>:root>svg{display:none}:root>svg:target{display:block}</style><svg fill="none" viewBox="0 0 1440 274" id="call--Maskgroup" xmlns="http://www.w3.org/2000/svg"><g style="mix-blend-mode:plus-lighter" filter="url(#ba)"><mask id="bb" style="mask-type:alpha" maskUnits="userSpaceOnUse" x="10" y="64" width="1419" height="146"><path fill="#C2BBA8" d="M10.56 64h1417.92v146H10.56z"/></mask><g mask="url(#bb)"><path fill="url(#bc)" d="M-2.88-160h1546.56v444H-2.88z"/><path d="M1457.76 148.5 24 18" stroke="url(#bd)" stroke-width="842" stroke-dasharray="10 10"/></g></g><defs><linearGradient id="bc" x1="-2.88" y1="62" x2="1543.68" y2="62" gradientUnits="userSpaceOnUse"><stop stop-color="#FFF50F"/><stop offset="1" stop-color="#FFF50F" stop-opacity="0"/></linearGradient><linearGradient id="bd" x1="24" y1="83.25" x2="1457.76" y2="83.25" gradientUnits="userSpaceOnUse"><stop/><stop offset=".51" stop-color="#1F1F1F"/><stop offset="1"/></linearGradient><filter id="ba" x="-53.44" y="0" width="1545.92" height="274" filterUnits="userSpaceOnUse" color-interpolation-filters="sRGB"><feFlood flood-opacity="0" result="BackgroundImageFix"/><feBlend in="SourceGraphic" in2="BackgroundImageFix" result="shape"/><feGaussianBlur stdDeviation="32" result="effect1_foregroundBlur_3806_1513"/></filter></defs></svg><svg fill="none" viewBox="0 0 48 48" id="call--blockquote" xmlns="http://www.w3.org/2000/svg"><path fill-rule="evenodd" clip-rule="evenodd" d="M24 48c13.255 0 24-10.745 24-24S37.255 0 24 0 0 10.745 0 24s10.745 24 24 24ZM9.6 21.601a6 6 0 0 0 6 6l6 6v-12a6 6 0 0 0-12 0Zm21.6 6a6 6 0 1 1 6-6v12l-6-6Z" fill="#000"/></svg><svg fill="none" viewBox="0 0 60 47" id="call--wa" xmlns="http://www.w3.org/2000/svg"><rect x="6" width="48" height="47" rx="23.5" fill="#000"/><g clip-path="url(#ca)"><path d="m10 44 2.827-10.266a19.63 19.63 0 0 1-2.655-9.915C10.172 12.888 19.112 4 30.086 4c5.33 0 10.334 2.063 14.088 5.808 3.763 3.745 5.836 8.726 5.826 14.02 0 10.933-8.94 19.82-19.924 19.82h-.01c-3.332 0-6.608-.836-9.522-2.414L10 44Zm11.05-6.35.602.361a16.66 16.66 0 0 0 8.424 2.3h.01c9.121 0 16.552-7.385 16.552-16.473 0-4.4-1.72-8.536-4.842-11.654-3.124-3.117-7.288-4.828-11.71-4.828-9.121-.01-16.552 7.376-16.552 16.463 0 3.109.87 6.141 2.53 8.765l.392.627-1.67 6.074 6.265-1.635Z" fill="#000"/><path d="m10.697 43.306 2.732-9.914a18.976 18.976 0 0 1-2.579-9.563c.01-10.551 8.634-19.135 19.236-19.135 5.148 0 9.971 1.996 13.6 5.608a18.97 18.97 0 0 1 5.626 13.536c0 10.552-8.634 19.135-19.226 19.135h-.01c-3.218 0-6.38-.808-9.188-2.328l-10.19 2.661Z" fill="#FFFFB6"/><path d="m10 44 2.827-10.266a19.63 19.63 0 0 1-2.655-9.915C10.172 12.888 19.112 4 30.086 4c5.33 0 10.334 2.063 14.088 5.808 3.763 3.745 5.836 8.726 5.826 14.02 0 10.933-8.94 19.82-19.924 19.82h-.01c-3.332 0-6.608-.836-9.522-2.414L10 44Zm11.05-6.35.602.361a16.66 16.66 0 0 0 8.424 2.3h.01c9.121 0 16.552-7.385 16.552-16.473 0-4.4-1.72-8.536-4.842-11.654-3.124-3.117-7.288-4.828-11.71-4.828-9.121-.01-16.552 7.376-16.552 16.463 0 3.109.87 6.141 2.53 8.765l.392.627-1.67 6.074 6.265-1.635Z" fill="#000"/><path fill-rule="evenodd" clip-rule="evenodd" d="M25.11 15.53c-.373-.827-.764-.846-1.118-.855-.286-.01-.62-.01-.955-.01-.334 0-.87.124-1.328.618-.458.495-1.738 1.692-1.738 4.135 0 2.434 1.786 4.791 2.035 5.124.248.332 3.447 5.494 8.5 7.48 4.203 1.655 5.062 1.322 5.97 1.237.907-.086 2.941-1.198 3.361-2.358.411-1.16.411-2.148.287-2.357-.124-.21-.459-.333-.955-.58-.497-.247-2.942-1.445-3.4-1.616-.459-.162-.793-.247-1.118.247-.334.494-1.29 1.607-1.576 1.94-.286.332-.582.37-1.079.123s-2.101-.77-4.002-2.462c-1.48-1.312-2.483-2.937-2.77-3.432-.286-.494-.028-.76.22-1.007.22-.219.497-.58.745-.865.248-.285.334-.495.497-.827.162-.333.086-.618-.039-.865-.124-.238-1.098-2.69-1.537-3.67Z" fill="#000"/></g><defs><clipPath id="ca"><path fill="#fff" transform="translate(10 4)" d="M0 0h40v40H0z"/></clipPath></defs></svg><svg fill="none" viewBox="0 0 28 28" id="footer--Facebook" xmlns="http://www.w3.org/2000/svg"><rect width="28" height="28" rx="3" fill="#C6BAAA"/><path d="M19.45 18.047 20.07 14h-3.883v-2.625c0-1.107.542-2.188 2.281-2.188h1.766V5.742s-1.602-.273-3.133-.273c-3.2 0-5.288 1.938-5.288 5.447V14H8.258v4.047h3.555v9.784c.713.112 1.443.169 2.187.169.744 0 1.474-.057 2.188-.17v-9.783h3.262Z" fill="#000"/></svg><svg fill="none" viewBox="0 0 116 80" id="footer--Group300" xmlns="http://www.w3.org/2000/svg"><path d="M37.533 18.024h41.376v61.443H37.533V18.024Z" fill="#1F1F1F"/><path fill-rule="evenodd" clip-rule="evenodd" d="M37 17.492h42.442V80H37V17.492Zm1.066 1.065v60.377h40.31V18.557h-40.31Z" fill="#fff"/><path d="M39.13 19.623h1.066v59.311h-1.065V19.623ZM41.084 19.623h1.066v59.311h-1.066V19.623ZM43.038 19.623h1.065v59.311h-1.065V19.623ZM44.991 19.623h1.066v59.311H44.99V19.623ZM46.944 19.623h1.066v59.311h-1.066V19.623ZM48.898 19.623h1.065v59.311h-1.065V19.623ZM50.851 19.623h1.066v59.311H50.85V19.623ZM52.805 19.623h1.065v59.311h-1.065V19.623ZM54.758 19.623h1.065v59.311h-1.065V19.623ZM56.711 19.623h1.066v59.311H56.71V19.623ZM58.665 19.623h1.065v59.311h-1.065V19.623ZM60.618 19.623h1.066v59.311h-1.066V19.623ZM62.571 19.623h1.066v59.311H62.57V19.623ZM64.525 19.623h1.065v59.311h-1.065V19.623ZM66.478 19.623h1.066v59.311h-1.066V19.623ZM68.432 19.623h1.065v59.311h-1.065V19.623ZM70.385 19.623h1.066v59.311h-1.066V19.623ZM72.338 19.623h1.066v59.311h-1.066V19.623ZM74.292 19.623h1.066v59.311h-1.066V19.623ZM76.245 19.623h1.066v59.311h-1.066V19.623Z" fill="#fff"/><path fill-rule="evenodd" clip-rule="evenodd" d="M59.02 1.065a.355.355 0 0 0-.355.356v9.677l-1.51.48v1.882l-.71.226v4.184l-.622.198v8.665l-1.065.327v1.408l-1.243.382v1.409l-1.243.381v1.506l-3.197.983v2.835l-1.065.328v4.485l-2.22.688V51.55l-1.065.33v27.054H73.67V51.506l-1.137-.822v-9.545l-2.249-1.627h.064v-3.447l-1.137-.822V32.95l-3.432-2.482.02-.027-1.103-.796v-.855l-1.25-.902v-.854l-1.319-.953V19.27l-.915-.696v-4.218l-.666-.482v-1.826l-1.171-.847V1.42a.355.355 0 0 0-.355-.355Z" fill="#F2EEE3"/><path fill-rule="evenodd" clip-rule="evenodd" d="M56.09 12.681V10.8l1.51-.48v-8.9a1.42 1.42 0 0 1 2.84 0v9.235l1.172.848v1.826l.666.481v4.235l.915.695v6.798l1.318.952v.854l1.25.903v.854l1.525 1.101-.02.027 3.01 2.177v2.292l1.138.822v3.494l2.185 1.58v9.545l1.137.822v27.974H43.659v-27.84l1.066-.33V40.68l2.22-.687v-4.486l1.065-.329v-2.835l3.196-.983v-1.506l1.243-.382v-1.408l1.244-.382v-1.408l1.065-.328V17.29l.621-.198v-4.184l.71-.226Z" fill="#F5F5F5"/><path fill-rule="evenodd" clip-rule="evenodd" d="m65.343 45.485 8.327 6.02V80h-.71V51.87l-7.745-5.6-7.4 2.295-.482.168v1.359h-.71v-1.864l.97-.338 7.75-2.404Zm-11.952 4.451-7.956 2.468V80h-.71V51.88l8.456-2.622.21.678Z" fill="#000"/><path fill-rule="evenodd" clip-rule="evenodd" d="m64.83 35.568 7.703 5.571v9.65h-.71v-9.287l-7.122-5.15-6.125 1.897v.819h-.71v-1.34l.392-.125 6.571-2.035ZM53.78 38.985v1.592h-.71v-.627l-2.165.674-4.406 1.364V51.5h-.71V41.465l4.905-1.52 3.086-.96Z" fill="#000"/><path fill-rule="evenodd" clip-rule="evenodd" d="m63.89 31.395 6.458 4.67v3.448h-.71v-3.085l-5.877-4.25-15.04 4.639v4.294h-.711v-4.819l15.88-4.897Z" fill="#000"/><path fill-rule="evenodd" clip-rule="evenodd" d="m63.376 28.732 5.835 4.219v2.388h-.71v-2.025l-5.254-3.8-13.462 4.14v2.396h-.71v-2.921l14.301-4.397Z" fill="#000"/><path fill-rule="evenodd" clip-rule="evenodd" d="m61.955 27.666 3.844 2.776-.417.576-3.556-2.569-8.844 2.716v1.51h-.71V30.64l9.683-2.974Z" fill="#000"/><path fill-rule="evenodd" clip-rule="evenodd" d="m61.417 26.423 3.279 2.369v1.226h-.71v-.863l-2.698-1.949-7.063 2.17v1.168h-.71V28.85l7.902-2.427Z" fill="#000"/><path fill-rule="evenodd" clip-rule="evenodd" d="m61.417 26.423 3.132 2.262-.416.576-2.845-2.055-7.063 2.17v1.345h-.71v-1.87l7.902-2.428Z" fill="#000"/><path fill-rule="evenodd" clip-rule="evenodd" d="m60.878 25.18 2.568 1.855v.977h-.71v-.614l-1.987-1.435-5.28 1.622v1.005h-.711v-1.53l6.12-1.88Z" fill="#000"/><path d="m66.39 48.746.71.533V80h-.71V48.746ZM65.68 38.474l.71.533v7.37l-.71-.533v-7.37ZM58.044 17.758h-.71v8.746l.71-.222v-8.524ZM67.277 39.629l.71.532v7.37l-.71-.533v-7.37ZM58.665 1.42a.355.355 0 0 1 .71 0v10.123a.355.355 0 0 1-.71 0V1.42ZM68.876 40.783l.71.533v7.37l-.71-.533v-7.37ZM60.085 18.113h.71v7.77l-.71.221v-7.99ZM64.88 33.857l.71.533v2.042l-.71-.532v-2.043ZM66.478 35.012l.71.532v2.043l-.71-.533v-2.042ZM68.077 36.166l.71.533v2.042l-.71-.533v-2.042ZM63.992 30.927l.71.533v1.154l-.71-.532v-1.155ZM65.59 32.081l.71.533v1.155l-.71-.533v-1.154ZM67.189 33.236l.71.533v1.154l-.71-.533v-1.154ZM70.474 41.937l.71.533v7.37l-.71-.533v-7.37ZM64.614 45.727l.71-.222V80h-.71V45.727ZM67.988 49.9l.71.533V80h-.71V49.9ZM69.586 51.054l.71.533V80h-.71V51.054ZM59.553 49.456l-.71.222v1.332l.71-.222v-1.332ZM59.553 51.365l-.71.222v1.332l.71-.222v-1.332ZM59.553 53.274l-.71.222v1.332l.71-.222v-1.332ZM59.553 55.183l-.71.222v1.332l.71-.222v-1.332ZM59.553 57.092l-.71.222v1.332l.71-.222v-1.332ZM59.553 59.001l-.71.222v1.332l.71-.222V59ZM59.553 60.91l-.71.222v1.332l.71-.222V60.91ZM59.553 62.82l-.71.221v1.332l.71-.222v-1.332ZM59.553 64.728l-.71.222v1.332l.71-.222v-1.332ZM59.553 66.637l-.71.222v1.332l.71-.222v-1.332ZM59.553 68.546l-.71.222V70.1l.71-.222v-1.332ZM59.553 70.455l-.71.222v1.332l.71-.222v-1.332ZM59.553 72.364l-.71.222v1.332l.71-.222v-1.332ZM59.553 74.273l-.71.222v1.332l.71-.222v-1.332ZM59.553 76.182l-.71.222v1.332l.71-.222v-1.332ZM59.553 78.091l-.71.222v1.332l.71-.222V78.09ZM55.468 35.605l-.71.222v1.332l.71-.222v-1.332ZM55.468 37.514l-.71.222v1.332l.71-.222v-1.332ZM55.468 39.423l-.71.222v1.332l.71-.222v-1.332ZM55.468 41.332l-.71.222v1.332l.71-.222v-1.332ZM55.468 43.24l-.71.223v1.332l.71-.222V43.24ZM55.468 45.15l-.71.222v1.331l.71-.222V45.15ZM55.468 47.059l-.71.222v1.332l.71-.222v-1.332ZM55.468 48.968l-.71.222v1.332l.71-.222v-1.332ZM55.468 50.877l-.71.222v1.332l.71-.222v-1.332ZM55.468 52.786l-.71.222v1.332l.71-.222v-1.332ZM55.468 54.695l-.71.222v1.332l.71-.222v-1.332ZM55.468 56.604l-.71.222v1.332l.71-.222v-1.332ZM55.468 58.513l-.71.222v1.331l.71-.222v-1.331ZM55.468 60.422l-.71.222v1.332l.71-.222v-1.332ZM55.468 62.33l-.71.223v1.332l.71-.222V62.33ZM55.468 64.24l-.71.222v1.332l.71-.222V64.24ZM55.468 66.149l-.71.222v1.332l.71-.222v-1.332ZM55.468 68.058l-.71.222v1.331l.71-.222v-1.331ZM55.468 69.967l-.71.222v1.331l.71-.222v-1.331ZM55.468 71.876l-.71.222v1.332l.71-.222v-1.332ZM55.468 73.785l-.71.222v1.331l.71-.221v-1.332ZM55.468 75.694l-.71.222v1.331l.71-.222v-1.331ZM55.468 77.603l-.71.222v1.331l.71-.222v-1.331ZM53.781 36.138l-.71.222v1.331l.71-.222v-1.331ZM53.781 38.047l-.71.222V39.6l.71-.221v-1.332ZM57.155 35.072l-.71.222v1.332l.71-.222v-1.332ZM57.155 36.981l-.71.222v1.332l.71-.222V36.98ZM57.155 38.89l-.71.222v1.332l.71-.222V38.89ZM57.155 40.8l-.71.221v1.332l.71-.222v-1.332ZM57.155 42.708l-.71.222v1.332l.71-.222v-1.332ZM57.155 44.617l-.71.222v1.332l.71-.222v-1.332ZM57.155 46.526l-.71.222v1.332l.71-.222v-1.332ZM57.155 48.435l-.71.222v1.332l.71-.222v-1.332ZM57.155 50.344l-.71.222v1.332l.71-.222v-1.332ZM57.155 52.253l-.71.222v1.332l.71-.222v-1.332ZM57.155 54.162l-.71.222v1.332l.71-.222v-1.332ZM57.155 56.071l-.71.222v1.332l.71-.222V56.07ZM57.155 57.98l-.71.222v1.332l.71-.222V57.98ZM57.155 59.889l-.71.222v1.332l.71-.222v-1.332ZM57.155 61.798l-.71.222v1.332l.71-.222v-1.332ZM57.155 63.707l-.71.222v1.332l.71-.222v-1.332ZM57.155 65.616l-.71.222v1.332l.71-.222v-1.332ZM57.155 67.525l-.71.222v1.332l.71-.222v-1.332ZM57.155 69.434l-.71.222v1.332l.71-.222v-1.332ZM57.155 71.343l-.71.222v1.332l.71-.222v-1.332ZM57.155 73.252l-.71.222v1.332l.71-.222v-1.332ZM57.155 75.16l-.71.223v1.332l.71-.222V75.16ZM57.155 77.07l-.71.222v1.332l.71-.222V77.07ZM58.931 34.54l-.71.221v1.332l.71-.222V34.54ZM58.931 36.449l-.71.221v1.332l.71-.222V36.45ZM60.618 34.007l-.71.222v3.107l.71-.222v-3.107Z" fill="#000"/><path d="m58.931 34.54-.71.221v3.108l.71-.222v-3.108ZM57.155 35.072l-.71.222v3.108l.71-.222v-3.108ZM55.468 35.605l-.71.222v3.108l.71-.222v-3.108ZM53.781 36.138l-.71.222v3.107l.71-.222v-3.107ZM58.931 31.698l-.71.222v1.776l.71-.222v-1.776ZM57.155 32.231l-.71.222v1.864l.71-.221V32.23ZM55.468 32.764l-.71.222v1.776l.71-.223v-1.775ZM53.781 33.296l-.71.222v1.776l.71-.222v-1.776ZM52.094 36.581l-.71.222v3.108l.71-.222v-3.108ZM50.407 37.025l-.71.222v3.108l.71-.222v-3.108ZM62.305 33.563l-.71.222v3.107l.71-.222v-3.107Z" fill="#000"/><path d="m52.094 36.581-.71.222v3.108l.71-.222v-3.108ZM50.407 37.025l-.71.222v3.108l.71-.222v-3.108ZM60.618 31.165l-.71.222v1.687l.71-.222v-1.687ZM52.094 33.74l-.71.222v1.865l.71-.222V33.74ZM47.655 53.125l-.71.222v1.332l.71-.222v-1.332ZM47.655 55.034l-.71.222v1.331l.71-.222v-1.331ZM47.655 56.943l-.71.222v1.332l.71-.222v-1.332ZM47.655 58.852l-.71.222v1.332l.71-.222v-1.332ZM47.655 60.76l-.71.223v1.332l.71-.222V60.76ZM47.655 62.67l-.71.222v1.331l.71-.222V62.67ZM47.655 64.579l-.71.222v1.331l.71-.222V64.58ZM47.655 66.488l-.71.222v1.332l.71-.222v-1.332ZM47.655 68.397l-.71.222v1.332l.71-.222v-1.332ZM47.655 70.306l-.71.222v1.331l.71-.221v-1.332ZM47.655 72.215l-.71.222v1.331l.71-.222v-1.331ZM47.655 74.124l-.71.222v1.332l.71-.222v-1.332ZM47.655 76.032l-.71.222v1.332l.71-.222v-1.332ZM47.655 77.942l-.71.222v1.332l.71-.222v-1.332ZM61.329 48.897l-.71.222v1.332l.71-.222v-1.332ZM61.329 50.806l-.71.222v1.331l.71-.221v-1.332ZM61.329 52.715l-.71.222v1.332l.71-.222v-1.332ZM61.329 54.624l-.71.222v1.332l.71-.222v-1.332ZM61.329 56.533l-.71.222v1.331l.71-.221v-1.332ZM61.329 58.442l-.71.222v1.331l.71-.221v-1.332ZM61.329 60.35l-.71.223v1.331l.71-.222v-1.331ZM61.329 62.26l-.71.221v1.332l.71-.222V62.26ZM61.329 64.169l-.71.222v1.331l.71-.221v-1.332ZM61.329 66.078l-.71.222v1.332l.71-.223v-1.331ZM61.329 67.987l-.71.222v1.331l.71-.222v-1.331ZM61.329 69.895l-.71.223v1.331l.71-.222v-1.332ZM61.329 71.805l-.71.222v1.332l.71-.222v-1.332ZM61.329 73.714l-.71.222v1.331l.71-.221v-1.332ZM61.329 75.623l-.71.221v1.332l.71-.222v-1.331ZM61.329 77.532l-.71.222v1.332l.71-.222v-1.332ZM49.43 52.565l-.71.222v1.332l.71-.222v-1.332ZM49.43 54.474l-.71.222v1.332l.71-.222v-1.332ZM49.43 56.383l-.71.222v1.332l.71-.222v-1.332ZM49.43 58.292l-.71.222v1.332l.71-.222v-1.332ZM49.43 60.201l-.71.222v1.332l.71-.222v-1.332ZM49.43 62.11l-.71.222v1.332l.71-.222V62.11ZM49.43 64.02l-.71.221v1.332l.71-.222V64.02ZM49.43 65.928l-.71.222v1.332l.71-.222v-1.332ZM49.43 67.837l-.71.222v1.332l.71-.222v-1.332ZM49.43 69.746l-.71.222V71.3l.71-.222v-1.332ZM49.43 71.655l-.71.222v1.332l.71-.222v-1.332ZM49.43 73.564l-.71.222v1.332l.71-.222v-1.332ZM49.43 75.473l-.71.222v1.332l.71-.222v-1.332ZM49.43 77.382l-.71.222v1.332l.71-.222v-1.332ZM63.105 48.346l-.71.222V49.9l.71-.222v-1.332ZM63.105 50.255l-.71.222v1.332l.71-.222v-1.332ZM63.105 52.164l-.71.222v1.332l.71-.222v-1.332ZM63.105 54.073l-.71.222v1.332l.71-.222v-1.332ZM63.105 55.982l-.71.222v1.332l.71-.222v-1.332ZM63.105 57.891l-.71.222v1.332l.71-.222v-1.332ZM63.105 59.8l-.71.222v1.332l.71-.222V59.8ZM63.105 61.71l-.71.221v1.332l.71-.222V61.71ZM63.105 63.618l-.71.222v1.332l.71-.222v-1.332ZM63.105 65.527l-.71.222v1.332l.71-.222v-1.332ZM63.105 67.436l-.71.222v1.332l.71-.222v-1.332ZM63.105 69.345l-.71.222V70.9l.71-.222v-1.332ZM63.105 71.254l-.71.222v1.332l.71-.222v-1.332ZM63.105 73.163l-.71.222v1.332l.71-.222v-1.332ZM63.105 75.072l-.71.222v1.332l.71-.222v-1.332ZM63.105 76.981l-.71.222v1.332l.71-.222V76.98ZM51.206 52.015l-.71.222v1.332l.71-.222v-1.332ZM51.206 53.924l-.71.222v1.332l.71-.222v-1.332ZM51.206 55.833l-.71.222v1.332l.71-.222v-1.332ZM51.206 57.742l-.71.222v1.332l.71-.222v-1.332ZM51.206 59.65l-.71.223v1.332l.71-.222V59.65ZM51.206 61.56l-.71.222v1.332l.71-.222V61.56ZM51.206 63.469l-.71.222v1.332l.71-.222v-1.332ZM51.206 65.378l-.71.222v1.332l.71-.222v-1.332ZM51.206 67.287l-.71.222v1.332l.71-.222v-1.332ZM51.206 69.196l-.71.222v1.332l.71-.222v-1.332ZM51.206 71.105l-.71.222v1.332l.71-.222v-1.332ZM51.206 73.014l-.71.222v1.331l.71-.221v-1.332ZM51.206 74.923l-.71.222v1.332l.71-.222v-1.332ZM51.206 76.832l-.71.222v1.332l.71-.222v-1.332ZM51.206 78.74l-.71.223v.977l.71-.222v-.977ZM71.184 52.209l.71.532V80h-.71V52.209ZM56.623 48.302l.71-.222V80h-.71V48.302ZM52.716 49.59l.71-.223V80h-.71V49.59ZM53.426 49.59l.71-.223v30.588h-.71V49.59Z" fill="#000"/><path d="m52.36 39.778.711-.222v10.255h-.71V39.778ZM53.071 39.778l.71-.222v10.255h-.71V39.778ZM57.866 38.002l.71-.222v10.255h-.71V38.002ZM63.992 36.049l.71-.222v10.255h-.71V36.05ZM63.105 31.787l.71-.222v4.928h-.71v-4.706Z" fill="#000"/><path d="m62.572 29.123.71-.222v3.152h-.71v-2.93ZM49.786 42.32l-.71.222v1.332l.71-.222v-1.331ZM49.786 44.23l-.71.222v1.332l.71-.222V44.23ZM49.786 46.139l-.71.222v1.332l.71-.222v-1.332ZM49.786 48.048l-.71.222v1.332l.71-.222v-1.332ZM61.684 38.592l-.71.221v1.332l.71-.222v-1.331ZM61.684 40.5l-.71.222v1.332l.71-.222v-1.331ZM61.684 42.41l-.71.222v1.332l.71-.222V42.41ZM61.684 44.318l-.71.222v1.332l.71-.222v-1.332ZM48.365 42.765l-.71.222v1.331l.71-.221v-1.332ZM48.365 44.674l-.71.222v1.331l.71-.222v-1.331ZM48.365 46.583l-.71.221v1.332l.71-.222v-1.331ZM48.365 48.492l-.71.222v1.331l.71-.221v-1.332ZM60.263 39.035l-.71.222v1.332l.71-.222v-1.332ZM60.263 40.944l-.71.222v1.332l.71-.222v-1.332ZM60.263 42.853l-.71.222v1.332l.71-.222v-1.332ZM60.263 44.763l-.71.221v1.332l.71-.222v-1.331ZM51.206 41.832l-.71.222v1.332l.71-.222v-1.332ZM51.206 43.742l-.71.221v1.332l.71-.222v-1.331ZM51.206 45.65l-.71.222v1.332l.71-.222V45.65ZM51.206 47.56l-.71.221v1.332l.71-.222V47.56ZM63.105 38.162l-.71.222v1.332l.71-.222v-1.332ZM63.105 40.071l-.71.222v1.332l.71-.222V40.07ZM63.105 41.98l-.71.222v1.332l.71-.222V41.98ZM63.105 43.889l-.71.222v1.332l.71-.222v-1.332Z" fill="#000"/><path fill-rule="evenodd" clip-rule="evenodd" d="m59.153 17.009 2.975 2.26v7.324h-.71V19.62L59.44 18.12v7.86h-.71v-8.09l-2.196.698v8.317h-.71v-8.836l3.33-1.06Z" fill="#000"/><path fill-rule="evenodd" clip-rule="evenodd" d="m59.114 14.88 2.098 1.517v2.297h-.71V16.76l-1.096-.793v1.519h-.71v-1.728l-1.54.49v1.954h-.711v-2.474l2.669-.849Z" fill="#000"/><path fill-rule="evenodd" clip-rule="evenodd" d="m59.114 12.837 2.098 1.518v2.652h-.71v-2.29l-1.096-.792v3.294h-.71v-3.504l-1.54.49v3.73h-.711v-4.249l2.669-.85Z" fill="#000"/><path fill-rule="evenodd" clip-rule="evenodd" d="m59.06 10.972 1.487 1.075v2.382l-1.59-.916-1.802.573V11.58l1.906-.607Zm.293 1.95.483.278v-.79l-.483-.35v.862Zm-.71-1.071v1.016l-.777.248v-1.017l.777-.247Z" fill="#000"/><path d="M4 51h112l-4 19H0l4-19Z" fill="#fff"/><mask id="ea" maskUnits="userSpaceOnUse" x="5.297" y="54.956" width="104.287" height="10.76" fill="#000"><path fill="#fff" d="M5.297 54.956h104.287v10.76H5.297z"/><path d="m13.481 55.837-.027.127H9.359l-.81 3.815h3.795l-.027.127H8.521l-1 4.705h4.381l-.027.127h-5.46l1.892-8.901h5.174Zm1.818 8.9h-.169l3.023-8.9h.43l.98 8.227 4.466-8.227h.43l-.762 8.9h-1.079l.617-7.12-3.867 7.12h-.819l-.884-7.031-2.366 7.032Zm14.038-8.799a40.886 40.886 0 0 1 2.673-.101c2.15 0 3.067.741 2.751 2.225a3.793 3.793 0 0 1-.93 1.806c-.25.28-.592.504-1.027.673-.433.162-.93.242-1.494.242h-1.924l-.84 3.955h-1.08l1.87-8.8Zm2.66.026c-.503 0-1.038.03-1.605.089l-.979 4.603h1.924c1.233-.05 2.026-.907 2.379-2.569.144-.678.073-1.2-.214-1.564-.284-.373-.786-.56-1.506-.56Zm11.434.407a5.63 5.63 0 0 0-2.141-.445c-.693 0-1.266.144-1.717.432a1.82 1.82 0 0 0-.839 1.195c-.132.62.096 1.098.683 1.437.264.144.555.28.875.407.33.119.657.254.98.407.322.153.61.326.864.521.253.195.434.467.542.814.11.34.108.776-.006 1.31a2.596 2.596 0 0 1-.741 1.348 3.027 3.027 0 0 1-1.267.763 5.67 5.67 0 0 1-1.536.19c-1.066 0-1.92-.258-2.565-.775l.087-.102c.239.22.568.403.989.547.43.135.883.203 1.36.203.702 0 1.334-.157 1.894-.47.571-.322.923-.793 1.054-1.412.144-.678-.072-1.208-.65-1.59a6.122 6.122 0 0 0-.875-.47 77.496 77.496 0 0 1-.958-.445 5.31 5.31 0 0 1-.862-.534c-.568-.424-.77-1.026-.604-1.805.132-.62.45-1.12.956-1.5.508-.39 1.186-.586 2.035-.586.858 0 1.699.144 2.521.432l-.079.128Zm4.746 8.367h-1.079l1.865-8.774h-2.249l.027-.127h5.59l-.027.127h-2.262l-1.865 8.774Zm4.11 0h-.156l5.78-8.901.156-.064 1.37 8.965h-1.105l-.419-2.798h-3.796l-1.83 2.798Zm4.928-7.528-3.019 4.603h3.705l-.686-4.603Zm7.367 7.528h-1.079l1.865-8.774H63.12l.027-.127h5.59l-.027.127h-2.262l-1.865 8.774Zm12.581-8.901-.027.127h-4.095l-.81 3.815h3.795l-.027.127h-3.796l-1 4.705h4.381l-.027.127h-5.46l1.892-8.901h5.174Zm13.057 0c.13.16.169.368.115.623a1.951 1.951 0 0 1-.28.648l-4.69 7.63-.157.063-.584-5.328-3.238 5.265-.156.063-.98-8.964h1.104l.727 7.527 2.522-4.094-.376-3.433h1.105l.727 7.527 3.84-6.256a1.91 1.91 0 0 0 .283-.661c.048-.229.021-.407-.082-.534l.12-.076Zm8.668 0-.028.127h-4.094l-.811 3.815h3.796l-.027.127h-3.796l-1 4.705h4.38l-.027.127h-5.46l1.892-8.901h5.175Zm3.584.101a41.035 41.035 0 0 1 2.687-.101c2.14 0 3.062.699 2.765 2.098-.112.525-.365.979-.758 1.36-.391.373-.943.628-1.657.763.643.077 1.121.272 1.436.585.315.314.389.86.223 1.64-.348 1.637-1.592 2.455-3.732 2.455h-2.834l1.87-8.8Zm-.764 8.673h1.755c.771 0 1.358-.195 1.762-.585.414-.399.707-1.005.88-1.819.173-.813.124-1.356-.148-1.627-.271-.272-.73-.416-1.377-.433h-1.924l-.948 4.464Zm3.424-8.647c-.503 0-1.038.03-1.605.089l-.844 3.967h1.924c1.233-.05 1.99-.737 2.271-2.06.137-.644.06-1.136-.232-1.475-.29-.347-.795-.521-1.514-.521Z"/></mask><path d="m13.481 55.837-.027.127H9.359l-.81 3.815h3.795l-.027.127H8.521l-1 4.705h4.381l-.027.127h-5.46l1.892-8.901h5.174Zm1.818 8.9h-.169l3.023-8.9h.43l.98 8.227 4.466-8.227h.43l-.762 8.9h-1.079l.617-7.12-3.867 7.12h-.819l-.884-7.031-2.366 7.032Zm14.038-8.799a40.886 40.886 0 0 1 2.673-.101c2.15 0 3.067.741 2.751 2.225a3.793 3.793 0 0 1-.93 1.806c-.25.28-.592.504-1.027.673-.433.162-.93.242-1.494.242h-1.924l-.84 3.955h-1.08l1.87-8.8Zm2.66.026c-.503 0-1.038.03-1.605.089l-.979 4.603h1.924c1.233-.05 2.026-.907 2.379-2.569.144-.678.073-1.2-.214-1.564-.284-.373-.786-.56-1.506-.56Zm11.434.407a5.63 5.63 0 0 0-2.141-.445c-.693 0-1.266.144-1.717.432a1.82 1.82 0 0 0-.839 1.195c-.132.62.096 1.098.683 1.437.264.144.555.28.875.407.33.119.657.254.98.407.322.153.61.326.864.521.253.195.434.467.542.814.11.34.108.776-.006 1.31a2.596 2.596 0 0 1-.741 1.348 3.027 3.027 0 0 1-1.267.763 5.67 5.67 0 0 1-1.536.19c-1.066 0-1.92-.258-2.565-.775l.087-.102c.239.22.568.403.989.547.43.135.883.203 1.36.203.702 0 1.334-.157 1.894-.47.571-.322.923-.793 1.054-1.412.144-.678-.072-1.208-.65-1.59a6.122 6.122 0 0 0-.875-.47 77.496 77.496 0 0 1-.958-.445 5.31 5.31 0 0 1-.862-.534c-.568-.424-.77-1.026-.604-1.805.132-.62.45-1.12.956-1.5.508-.39 1.186-.586 2.035-.586.858 0 1.699.144 2.521.432l-.079.128Zm4.746 8.367h-1.079l1.865-8.774h-2.249l.027-.127h5.59l-.027.127h-2.262l-1.865 8.774Zm4.11 0h-.156l5.78-8.901.156-.064 1.37 8.965h-1.105l-.419-2.798h-3.796l-1.83 2.798Zm4.928-7.528-3.019 4.603h3.705l-.686-4.603Zm7.367 7.528h-1.079l1.865-8.774H63.12l.027-.127h5.59l-.027.127h-2.262l-1.865 8.774Zm12.581-8.901-.027.127h-4.095l-.81 3.815h3.795l-.027.127h-3.796l-1 4.705h4.381l-.027.127h-5.46l1.892-8.901h5.174Zm13.057 0c.13.16.169.368.115.623a1.951 1.951 0 0 1-.28.648l-4.69 7.63-.157.063-.584-5.328-3.238 5.265-.156.063-.98-8.964h1.104l.727 7.527 2.522-4.094-.376-3.433h1.105l.727 7.527 3.84-6.256a1.91 1.91 0 0 0 .283-.661c.048-.229.021-.407-.082-.534l.12-.076Zm8.668 0-.028.127h-4.094l-.811 3.815h3.796l-.027.127h-3.796l-1 4.705h4.38l-.027.127h-5.46l1.892-8.901h5.175Zm3.584.101a41.035 41.035 0 0 1 2.687-.101c2.14 0 3.062.699 2.765 2.098-.112.525-.365.979-.758 1.36-.391.373-.943.628-1.657.763.643.077 1.121.272 1.436.585.315.314.389.86.223 1.64-.348 1.637-1.592 2.455-3.732 2.455h-2.834l1.87-8.8Zm-.764 8.673h1.755c.771 0 1.358-.195 1.762-.585.414-.399.707-1.005.88-1.819.173-.813.124-1.356-.148-1.627-.271-.272-.73-.416-1.377-.433h-1.924l-.948 4.464Zm3.424-8.647c-.503 0-1.038.03-1.605.089l-.844 3.967h1.924c1.233-.05 1.99-.737 2.271-2.06.137-.644.06-1.136-.232-1.475-.29-.347-.795-.521-1.514-.521Z" fill="#000"/><path d="M13.481 55.837h.2l.042-.196h-.2l-.042.196Zm-.027.127-.042.195h.2l.042-.195h-.2Zm-4.095 0 .042-.196h-.2l-.042.196h.2Zm-.81 3.815h-.2l-.042.195h.2l.041-.195Zm3.795 0h.2l.042-.196h-.2l-.042.196Zm-.027.127-.041.195h.2l.041-.195h-.2Zm-3.796 0 .042-.196h-.2l-.042.196h.2Zm-1 4.705h-.2l-.041.195h.2l.041-.195Zm4.381 0h.2l.042-.196h-.2l-.042.196Zm-.027.127-.041.195h.2l.041-.195h-.2Zm-5.46 0h-.2l-.042.195h.2l.042-.195Zm1.892-8.901.042-.196h-.2l-.042.196h.2Zm4.974 0-.027.127h.4l.027-.127h-.4Zm.215-.069H9.4l-.084.391h4.095l.084-.39Zm-4.337.196-.81 3.815h.4l.81-3.815h-.4Zm-.652 4.01h3.796l.083-.391H8.59l-.083.391Zm3.637-.195-.027.127h.4l.027-.127h-.4Zm.215-.069H8.563l-.083.391h3.796l.083-.39Zm-4.038.196-1 4.705h.4l1-4.705h-.4Zm-.841 4.9h4.38l.084-.391H7.563l-.083.391Zm4.222-.195-.027.127h.4l.027-.127h-.4Zm.215-.069h-5.46l-.084.391h5.46l.084-.39Zm-5.302.196 1.892-8.901h-.4l-1.892 8.9h.4Zm1.65-8.706h5.175l.083-.391H8.349l-.084.391Zm7.034 8.706-.041.195h.177l.058-.172-.194-.023Zm-.169 0-.193-.024-.075.22h.227l.041-.196Zm3.023-8.901.042-.196h-.177l-.058.172.193.024Zm.43 0 .202-.06-.016-.136h-.145l-.042.196Zm.98 8.227-.203.06.069.575.312-.575-.178-.06Zm4.466-8.227.042-.196h-.146l-.073.136.177.06Zm.43 0 .203-.025.014-.171H24.5l-.042.196Zm-.762 8.9-.041.196h.226l.019-.22-.204.025Zm-1.079 0-.203.025-.015.171h.177l.041-.195Zm.617-7.12.203-.024-.38-.036.177.06Zm-3.867 7.12-.041.196h.145l.074-.135-.178-.06Zm-.819 0-.203.062.017.134h.145l.041-.195Zm-.884-7.031.203-.062-.397.038.194.024Zm-2.324 6.836h-.17l-.082.391h.169l.083-.39Zm-.018.22 3.023-8.901-.386-.048-3.023 8.9.386.049Zm2.789-8.73h.429l.083-.391h-.43l-.082.391Zm.267-.135.981 8.227.407-.12-.982-8.228-.406.121Zm1.362 8.227 4.466-8.227-.355-.12-4.466 8.227.355.12Zm4.247-8.092h.429l.083-.391h-.43l-.082.391Zm.267-.171-.761 8.9.407-.047.76-8.901-.407.048Zm-.516 8.681h-1.08l-.082.391h1.079l.083-.39Zm-.917.172.616-7.121-.407.048-.616 7.12.407-.047Zm.235-7.157-3.866 7.12.355.12 3.866-7.12-.355-.12Zm-3.647 6.985h-.82l-.082.391h.819l.083-.39Zm-.658.134-.884-7.032-.406.123.884 7.032.406-.123Zm-1.28-6.994-2.366 7.032.387.047 2.365-7.032-.387-.047Zm11.865-1.744.027-.195-.188.013-.04.182h.2Zm4.495 3.93-.142-.111-.002.002.144.109Zm-1.028.673.038.181.004-.001-.042-.18Zm-3.418.242.042-.196h-.2l-.042.196h.2Zm-.84 3.955-.042.195h.2l.041-.195h-.2Zm-1.08 0h-.2l-.041.195h.2l.041-.195Zm2.925-8.685.02-.195-.182.02-.037.175h.2Zm-.978 4.603h-.2l-.041.196h.2l.041-.196Zm1.924 0-.042.196h.009l.033-.196Zm2.165-4.133-.173.135.001.002.172-.137Zm-4.193-.39a40.727 40.727 0 0 1 2.66-.1l.083-.392c-.768 0-1.665.034-2.688.102l-.055.39Zm2.66-.1c1.057 0 1.775.183 2.192.52.406.328.547.82.4 1.509h.4c.17-.794.01-1.415-.502-1.829-.5-.405-1.315-.592-2.407-.592l-.083.391Zm2.592 2.029a3.554 3.554 0 0 1-.87 1.695l.282.221a4.032 4.032 0 0 0 .988-1.916h-.4Zm-.873 1.697c-.215.241-.519.445-.925.603l.083.359c.463-.18.844-.426 1.129-.745l-.287-.217Zm-.922.602c-.4.149-.87.227-1.414.227l-.084.39c.582 0 1.108-.082 1.574-.256l-.076-.361Zm-1.414.227h-1.924l-.084.39h1.924l.084-.39Zm-2.166.195-.84 3.955h.4l.84-3.955h-.4Zm-.599 3.76h-1.079l-.083.39h1.079l.083-.39Zm-.92.195 1.87-8.8h-.4l-1.87 8.8h.4Zm4.371-8.97c-.51 0-1.053.03-1.627.09l-.04.39a15.24 15.24 0 0 1 1.584-.089l.083-.39Zm-1.846.285-.979 4.603h.4l.979-4.603h-.4Zm-.82 4.799h1.924l.083-.392h-1.924l-.083.392Zm1.932 0c.669-.028 1.243-.278 1.693-.764.44-.476.739-1.152.919-2h-.4c-.173.812-.447 1.395-.8 1.776-.343.37-.782.573-1.346.597l-.066.39Zm2.612-2.765c.151-.712.082-1.289-.241-1.7l-.345.273c.25.317.323.783.186 1.427h.4Zm-.24-1.699c-.324-.424-.885-.62-1.638-.62l-.083.391c.685 0 1.128.178 1.374.5l.347-.27Zm9.755-.017-.11.182.17.07.11-.18-.17-.072Zm-3.858-.013-.087-.156.087.156Zm-.156 2.632-.13.173.003.002.127-.175Zm.875.407-.11.183.006.002.104-.185Zm.98.407.118-.18-.118.18Zm1.406 1.335-.197.09v.001l.197-.09Zm-.747 2.658.13.122-.13-.122Zm-1.267.763.018.187h.003l-.021-.187Zm-4.1-.585-.148-.104-.134.157.132.107.15-.16Zm.086-.102.156-.154-.146-.135-.158.185.148.104Zm.988.547-.101.186.004.001.097-.187Zm3.255-.267.074.164h.001l-.075-.164Zm.404-3.001.138-.169-.138.169Zm-.875-.47-.116.18h.001l.115-.18Zm-.958-.446-.122.178.003.002.119-.18Zm-.862-.534.147-.162-.002-.001-.145.163Zm.352-3.306.105.144.002-.001-.107-.143Zm4.556-.153.17.073.12-.192-.187-.066-.103.185Zm.032-.055a5.811 5.811 0 0 0-2.21-.458l-.084.391c.673 0 1.364.142 2.073.432l.221-.365Zm-2.21-.458c-.72 0-1.341.15-1.846.472l.174.312c.398-.254.92-.393 1.588-.393l.084-.391Zm-1.846.472a2.073 2.073 0 0 0-.952 1.351h.4c.096-.452.337-.79.726-1.039l-.174-.312Zm-.952 1.351c-.15.706.12 1.245.753 1.61l.26-.346c-.541-.312-.726-.732-.613-1.264h-.4Zm.756 1.612c.27.148.568.286.893.415l.218-.366a7.84 7.84 0 0 1-.858-.399l-.253.35Zm.898.417c.325.117.647.25.965.401l.237-.358a11.158 11.158 0 0 0-.994-.413l-.208.37Zm.965.401c.314.148.592.317.836.504l.293-.324a4.86 4.86 0 0 0-.892-.538l-.237.358Zm.836.504c.227.175.392.42.492.741l.394-.178a1.735 1.735 0 0 0-.593-.887l-.293.324Zm.492.743c.098.302.1.705-.009 1.219h.4c.118-.554.124-1.025.002-1.4l-.393.181Zm-.009 1.219a2.353 2.353 0 0 1-.672 1.226l.262.244c.421-.412.69-.905.81-1.47h-.4Zm-.672 1.226a2.763 2.763 0 0 1-1.158.698l.043.373a3.293 3.293 0 0 0 1.377-.827l-.262-.244Zm-1.155.698c-.427.12-.918.182-1.475.182l-.083.391c.586 0 1.119-.065 1.595-.2l-.037-.373Zm-1.475.182c-1.032 0-1.847-.25-2.458-.74l-.298.32c.677.544 1.572.811 2.673.811l.083-.391Zm-2.46-.477.087-.101-.295-.208-.087.102.296.208Zm-.217-.051c.259.238.609.43 1.044.579l.203-.372c-.405-.14-.714-.312-.934-.515l-.313.308Zm1.048.58c.448.141.92.212 1.417.212l.083-.391c-.457 0-.892-.065-1.305-.195l-.195.374Zm1.417.212c.733 0 1.405-.164 2.01-.502l-.149-.328c-.517.29-1.107.439-1.778.439l-.083.391Zm2.01-.502c.64-.361 1.035-.895 1.18-1.576h-.4c-.12.557-.426.964-.93 1.248l.15.328Zm1.18-1.576c.16-.755-.089-1.345-.713-1.758l-.276.337c.531.35.716.82.588 1.421h.4Zm-.714-1.758a6.272 6.272 0 0 0-.897-.482l-.23.361c.318.141.602.294.853.459l.274-.338Zm-.895-.482a76.489 76.489 0 0 1-.957-.444l-.237.358c.324.153.644.302.96.446l.234-.36Zm-.953-.442a5.155 5.155 0 0 1-.837-.519l-.293.324c.261.202.557.385.886.55l.244-.355Zm-.84-.52c-.519-.387-.7-.927-.548-1.642h-.4c-.18.844.042 1.508.66 1.969l.289-.327Zm-.548-1.642c.121-.57.41-1.016.86-1.357l-.209-.288c-.56.422-.91.977-1.051 1.645h.4Zm.862-1.358c.447-.343 1.066-.532 1.888-.532l.083-.391c-.877 0-1.615.2-2.184.638l.213.285Zm1.888-.532c.834 0 1.654.14 2.46.422l.205-.371a7.758 7.758 0 0 0-2.582-.442l-.083.39Zm2.392.164-.079.127.34.145.08-.127-.34-.145Zm4.837 8.567-.041.195h.2l.041-.195h-.2Zm-1.079 0h-.2l-.041.195h.2l.041-.195Zm1.865-8.774h.2l.042-.196h-.2l-.042.196Zm-2.249 0h-.2l-.041.195h.2l.041-.195Zm.027-.127.042-.196h-.2l-.042.196h.2Zm5.59 0h.2l.042-.196h-.2l-.042.196Zm-.027.127-.041.195h.2l.041-.195h-.2Zm-2.262 0 .042-.196h-.2l-.042.196h.2Zm-1.823 8.578h-1.08l-.082.391h1.079l.083-.39Zm-.92.196 1.864-8.774h-.4l-1.865 8.774h.4Zm1.706-8.97h-2.25l-.082.391h2.249l.083-.39Zm-2.09.196.026-.127h-.4l-.027.127h.4Zm-.215.068h5.59l.083-.391h-5.59l-.083.391Zm5.431-.195-.027.127h.4l.027-.127h-.4Zm.215-.069h-2.262L50 56.16h2.262l.083-.39Zm-2.504.196-1.865 8.774h.4l1.865-8.774h-.4Zm2.445 8.774-.041.195h.131l.078-.118-.168-.077Zm-.156 0-.167-.077-.177.272h.303l.041-.195Zm5.78-8.901-.046-.179-.077.032-.045.07.167.077Zm.156-.064.202-.066-.03-.2-.217.088.045.178Zm1.37 8.965-.041.195h.284l-.04-.261-.203.066Zm-1.105 0-.202.065.02.13h.14l.042-.195Zm-.419-2.798.202-.065-.02-.13h-.14l-.042.195Zm-3.796 0 .042-.195h-.132l-.077.118.167.077Zm3.099-4.73.202-.065-.07-.47-.3.457.167.078Zm-3.02 4.603-.167-.078-.18.274h.306l.041-.196Zm3.705 0-.042.196h.283l-.039-.261-.202.065Zm-5.572 2.73h-.156l-.083.39h.156l.083-.39Zm-.03.272 5.779-8.901-.335-.154-5.78 8.9.336.155Zm5.656-8.8.157-.064-.09-.356-.157.063.09.357Zm-.09-.176 1.37 8.965.405-.132-1.37-8.965-.405.132Zm1.614 8.703h-1.105l-.083.391h1.105l.083-.39Zm-.944.13-.42-2.797-.404.13.419 2.798.405-.13Zm-.58-2.927h-3.796l-.084.39h3.796l.084-.39Zm-4.005.118-1.83 2.797.335.155 1.83-2.797-.335-.155Zm3.098-4.73-3.019 4.602.334.156 3.02-4.603-.335-.156Zm-2.894 4.876h3.705l.084-.392h-3.705l-.084.392Zm3.95-.261-.686-4.603-.405.13.686 4.603.404-.13Zm6.478 2.99-.041.195h.2l.041-.195h-.2Zm-1.079 0h-.2l-.041.195h.2l.041-.195Zm1.865-8.774h.2l.042-.196h-.2l-.042.196Zm-2.249 0h-.2l-.041.195h.2l.041-.195Zm.027-.127.042-.196h-.2l-.042.196h.2Zm5.59 0h.2l.042-.196h-.2l-.042.196Zm-.027.127-.041.195h.2l.041-.195h-.2Zm-2.262 0 .042-.196h-.2l-.042.196h.2Zm-1.823 8.578h-1.08l-.082.391h1.079l.083-.39Zm-.92.196 1.864-8.774h-.4l-1.865 8.774h.4Zm1.706-8.97h-2.25l-.082.391h2.249l.083-.39Zm-2.09.196.026-.127h-.4l-.027.127h.4Zm-.215.068h5.59l.083-.391h-5.59l-.083.391Zm5.431-.195-.027.127h.4l.027-.127h-.4Zm.215-.069h-2.262l-.083.391h2.262l.083-.39Zm-2.504.196-1.865 8.774h.4l1.865-8.774h-.4Zm10.916-.127h.2l.042-.196h-.2l-.042.196Zm-.027.127-.041.195h.2l.041-.195h-.2Zm-4.095 0 .042-.196h-.2l-.042.196h.2Zm-.81 3.815h-.2l-.042.195h.2l.041-.195Zm3.795 0h.2l.042-.196h-.2l-.042.196Zm-.027.127-.041.195h.2l.041-.195H76Zm-3.796 0 .042-.196h-.2l-.042.196h.2Zm-1 4.705h-.2l-.041.195h.2l.041-.195Zm4.381 0h.2l.042-.196h-.2l-.042.196Zm-.027.127-.041.195h.2l.041-.195h-.2Zm-5.46 0h-.2l-.041.195h.2l.041-.195Zm1.892-8.901.042-.196h-.2l-.042.196h.2Zm4.974 0-.027.127h.4l.027-.127h-.4Zm.215-.069h-4.095L73 56.16h4.095l.083-.39Zm-4.337.196-.81 3.815h.4l.81-3.815h-.4Zm-.652 4.01h3.796l.083-.391h-3.796l-.083.391Zm3.637-.195-.027.127h.4l.027-.127h-.4Zm.215-.069h-3.796l-.083.391h3.796l.083-.39Zm-4.038.196-1 4.705h.4l1-4.705h-.4Zm-.841 4.9h4.38l.084-.391h-4.381l-.083.391Zm4.222-.195-.027.127h.4l.027-.127h-.4Zm.215-.069h-5.46l-.083.391h5.46l.083-.39Zm-5.302.196 1.892-8.901h-.4l-1.892 8.9h.4Zm1.65-8.706h5.175l.083-.391H72.03l-.083.391Zm18.273-.195.171-.139-.097-.12-.16.102.086.157Zm-.166 1.271-.168-.076-.003.005.171.071Zm-4.69 7.63.045.178.081-.033.045-.074-.17-.071Zm-.156.063-.203.06.023.21.225-.092-.045-.178Zm-.584-5.328.204-.058-.058-.528-.316.515.17.071Zm-3.238 5.265.045.178.08-.033.046-.074-.17-.071Zm-.156.063-.203.06.023.21.225-.092-.045-.178Zm-.98-8.964.04-.196h-.272l.028.254.203-.058Zm1.104 0 .204-.057-.014-.139h-.148l-.042.196Zm.727 7.527-.203.057.052.539.322-.524-.17-.072Zm2.522-4.094.17.072.04-.065-.007-.066-.203.059Zm-.376-3.433.042-.196h-.273l.028.254.203-.058Zm1.105 0 .204-.057-.014-.139h-.148l-.042.196Zm.727 7.527-.203.057.052.54.322-.525-.17-.072Zm3.84-6.256-.167-.079-.005.008.171.071Zm.201-1.195-.087-.157-.213.136.13.16.17-.14Zm-.05.062c.097.12.13.276.085.485h.4c.064-.3.02-.56-.144-.762l-.342.277Zm.085.485c-.039.182-.12.373-.249.572l.336.152c.156-.241.262-.483.313-.724h-.4Zm-.252.577-4.69 7.63.342.142 4.69-7.63-.342-.142ZM85.32 64.56l-.157.063.09.356.156-.063-.09-.356Zm.091.183-.583-5.328-.407.117.584 5.328.406-.117Zm-.957-5.341-3.238 5.264.341.143 3.238-5.264-.341-.143Zm-3.112 5.158-.157.063.09.356.156-.063-.09-.356Zm.091.183-.98-8.965-.407.117.98 8.965.407-.117Zm-1.225-8.71h1.105l.083-.392H80.29l-.083.391Zm.943-.14.727 7.528.407-.113-.727-7.528-.407.113Zm1.101 7.543 2.521-4.094-.341-.144-2.522 4.095.342.143Zm2.554-4.225-.375-3.433-.407.117.375 3.434.407-.118Zm-.62-3.179h1.105l.083-.391h-1.105l-.083.391Zm.943-.139.727 7.528.407-.113-.727-7.528-.407.113Zm1.101 7.543 3.84-6.256-.343-.143-3.839 6.256.342.143Zm3.834-6.249c.157-.236.263-.484.318-.74h-.4a1.683 1.683 0 0 1-.25.582l.332.158Zm.318-.74c.056-.266.03-.5-.111-.672l-.342.276c.066.081.093.204.053.396h.4Zm-.195-.378.12-.076-.173-.313-.12.076.173.313Zm8.7-.232h.2l.042-.196h-.2l-.041.196Zm-.026.127-.042.195h.2l.041-.195h-.2Zm-4.096 0 .042-.196h-.2l-.041.196h.2Zm-.81 3.815h-.2l-.042.195h.2l.042-.195Zm3.796 0h.2l.041-.196h-.2l-.041.196Zm-.027.127-.042.195h.2l.042-.195h-.2Zm-3.796 0 .041-.196h-.2l-.041.196h.2Zm-1 4.705h-.2l-.042.195h.2l.041-.195Zm4.38 0h.2l.042-.196h-.2l-.041.196Zm-.027.127-.041.195h.2l.041-.195h-.2Zm-5.46 0h-.2l-.041.195h.2l.041-.195Zm1.892-8.901.042-.196h-.2l-.042.196h.2Zm4.975 0-.028.127h.4l.028-.127h-.4Zm.214-.069h-4.095l-.083.391h4.095l.083-.39Zm-4.337.196-.81 3.815h.4l.81-3.815h-.4Zm-.652 4.01h3.796l.083-.391h-3.796l-.083.391Zm3.638-.195-.027.127h.4l.027-.127h-.4Zm.214-.069H93.97l-.083.391h3.796l.083-.39Zm-4.037.196-1 4.705h.4l1-4.705h-.4Zm-.842 4.9h4.381l.083-.391h-4.38l-.084.391Zm4.223-.195-.027.127h.4l.026-.127h-.4Zm.214-.069h-5.46l-.083.391h5.46l.083-.39Zm-5.301.196 1.891-8.901h-.4l-1.892 8.9h.4Zm1.65-8.706h5.174l.083-.391h-5.174l-.083.391Zm8.8-.094.028-.195-.189.013-.039.182h.2Zm4.694 3.357.129.124.002-.001-.131-.123Zm-1.657.763.001-.191-.066.386.065-.195Zm1.436.585.16-.15-.16.15Zm-6.343 4.095h-.2l-.042.195h.2l.042-.195Zm1.106-.127h-.2l-.042.195h.2l.042-.195Zm3.517-.585-.129-.123h-.001l.13.123Zm.732-3.446.161-.15-.161.15Zm-1.377-.433.047-.195h-.005l-.042.195Zm-1.924 0 .042-.195h-.2l-.042.195h.2Zm.871-4.094.019-.195-.182.02-.037.175h.2Zm-.844 3.967h-.2l-.041.196h.2l.041-.196Zm1.924 0-.041.196h.008l.033-.196Zm2.039-3.535-.17.14.002.002.168-.142Zm-4.202-.352a40.886 40.886 0 0 1 2.673-.1l.083-.392c-.777 0-1.677.034-2.7.102l-.056.39Zm2.673-.1c1.054 0 1.773.173 2.193.49.407.31.55.77.414 1.412h.4c.16-.756-.008-1.346-.523-1.736-.502-.382-1.315-.558-2.401-.558l-.083.391Zm2.607 1.902a2.372 2.372 0 0 1-.688 1.238l.261.245c.431-.42.706-.917.827-1.483h-.4Zm-.686 1.236c-.342.327-.842.565-1.528.696l-.002.383c.741-.14 1.346-.41 1.787-.83l-.257-.248Zm-1.594 1.082c.617.073 1.057.258 1.34.54l.321-.3c-.346-.345-.863-.55-1.531-.629l-.13.389Zm1.34.54c.26.259.345.734.184 1.49h.4c.171-.803.107-1.421-.263-1.79l-.321.3Zm.184 1.49c-.164.774-.531 1.324-1.084 1.687-.564.37-1.357.572-2.407.572l-.083.391c1.091 0 1.99-.207 2.671-.655.691-.454 1.12-1.132 1.303-1.994h-.4Zm-3.491 2.26h-2.834l-.083.39h2.834l.083-.39Zm-2.675.195 1.87-8.8h-.4l-1.87 8.8h.4Zm.864.068h1.755l.083-.391h-1.755l-.083.391Zm1.755 0c.801 0 1.462-.202 1.934-.658l-.26-.245c-.335.324-.849.512-1.591.512l-.083.391Zm1.933-.657c.466-.449.774-1.108.951-1.942h-.4c-.168.794-.447 1.347-.809 1.696l.258.246Zm.951-1.942c.175-.822.145-1.446-.187-1.777l-.321.3c.211.21.28.672.108 1.477h.4Zm-.187-1.777c-.312-.311-.821-.46-1.491-.478l-.094.39c.624.017 1.032.156 1.264.387l.321-.299Zm-1.496-.478h-1.924l-.083.391h1.924l.083-.391Zm-2.166.195-.948 4.464h.4l.948-4.464h-.4Zm2.717-4.379c-.511 0-1.053.03-1.627.09l-.039.39a15.242 15.242 0 0 1 1.583-.089l.083-.39Zm-1.846.285-.844 3.967h.4l.844-3.967h-.4Zm-.685 4.163h1.924l.083-.392h-1.924l-.083.392Zm1.932 0c.654-.027 1.213-.225 1.649-.62.432-.393.709-.948.855-1.636h-.4c-.135.635-.377 1.084-.702 1.379-.321.29-.756.462-1.336.486l-.066.39Zm2.504-2.256c.145-.68.069-1.23-.264-1.617l-.336.284c.251.291.329.725.2 1.333h.4Zm-.263-1.615c-.33-.396-.892-.577-1.642-.577l-.083.391c.689 0 1.136.167 1.386.466l.339-.28Z" fill="#000" mask="url(#ea)"/></svg><svg fill="none" viewBox="0 0 28 28" id="footer--Instagram" xmlns="http://www.w3.org/2000/svg"><g clip-path="url(#fa)"><path d="M14 2.523c3.74 0 4.18.017 5.658.084 1.367.06 2.106.289 2.6.483a4.345 4.345 0 0 1 1.613 1.045c.489.49.794.956 1.045 1.612.188.494.422 1.234.483 2.6.067 1.48.083 1.918.083 5.659 0 3.74-.016 4.179-.083 5.657-.061 1.368-.289 2.107-.483 2.601a4.345 4.345 0 0 1-1.045 1.612c-.49.49-.956.795-1.612 1.045-.495.189-1.234.422-2.601.483-1.479.067-1.918.084-5.658.084s-4.18-.017-5.658-.084c-1.367-.06-2.106-.288-2.6-.483a4.346 4.346 0 0 1-1.613-1.045 4.277 4.277 0 0 1-1.044-1.612c-.19-.494-.423-1.233-.484-2.6-.067-1.479-.083-1.918-.083-5.658s.016-4.18.083-5.658c.061-1.367.289-2.107.484-2.601a4.345 4.345 0 0 1 1.044-1.612c.49-.49.956-.795 1.612-1.045.495-.189 1.234-.422 2.601-.483 1.479-.073 1.923-.084 5.658-.084ZM14 0c-3.802 0-4.28.017-5.775.083C6.736.15 5.72.39 4.83.733c-.923.356-1.701.84-2.48 1.618A6.945 6.945 0 0 0 .735 4.83C.389 5.719.15 6.736.084 8.23.016 9.721 0 10.198 0 14s.017 4.28.083 5.774c.067 1.49.306 2.507.65 3.402.356.923.84 1.7 1.618 2.479a6.944 6.944 0 0 0 2.479 1.617c.889.345 1.906.584 3.401.65 1.495.067 1.967.084 5.775.084 3.807 0 4.279-.017 5.774-.084 1.49-.067 2.507-.306 3.401-.65.923-.356 1.701-.84 2.48-1.617a6.944 6.944 0 0 0 1.616-2.48c.345-.888.584-1.905.65-3.4.067-1.495.084-1.968.084-5.775 0-3.807-.017-4.28-.083-5.775-.067-1.489-.306-2.506-.65-3.4a6.824 6.824 0 0 0-1.618-2.48A6.944 6.944 0 0 0 23.181.728c-.889-.345-1.906-.583-3.4-.65C18.278.017 17.8 0 14 0Z" fill="#C6BAAA"/><path d="M14 2.523c3.74 0 4.18.017 5.658.084 1.367.06 2.106.289 2.6.483a4.345 4.345 0 0 1 1.613 1.045c.489.49.794.956 1.045 1.612.188.494.422 1.234.483 2.6.067 1.48.083 1.918.083 5.659 0 3.74-.016 4.179-.083 5.657-.061 1.368-.289 2.107-.483 2.601a4.345 4.345 0 0 1-1.045 1.612c-.49.49-.956.795-1.612 1.045-.495.189-1.234.422-2.601.483-1.479.067-1.918.084-5.658.084s-4.18-.017-5.658-.084c-1.367-.06-2.106-.288-2.6-.483a4.346 4.346 0 0 1-1.613-1.045 4.277 4.277 0 0 1-1.044-1.612c-.19-.494-.423-1.233-.484-2.6-.067-1.479-.083-1.918-.083-5.658s.016-4.18.083-5.658c.061-1.367.289-2.107.484-2.601a4.345 4.345 0 0 1 1.044-1.612c.49-.49.956-.795 1.612-1.045.495-.189 1.234-.422 2.601-.483 1.479-.073 1.923-.084 5.658-.084Z" fill="#C6BAAA"/><path d="M25.933 0H2.067A2.067 2.067 0 0 0 0 2.067v23.866A2.067 2.067 0 0 0 2.067 28h23.866A2.067 2.067 0 0 0 28 25.933V2.067A2.067 2.067 0 0 0 25.933 0Z" fill="#C6BAAA"/><path d="M14 6.814a7.193 7.193 0 1 0 .002 14.385A7.193 7.193 0 0 0 14 6.814Zm0 11.854a4.668 4.668 0 1 1 0-9.337 4.668 4.668 0 1 1 0 9.337ZM21.475 8.203a1.678 1.678 0 1 0 0-3.357 1.678 1.678 0 0 0 0 3.357Z" fill="#000"/></g><defs><clipPath id="fa"><path fill="#fff" d="M0 0h28v28H0z"/></clipPath></defs></svg><svg fill="none" viewBox="0 0 28 28" id="footer--LinkedIn" xmlns="http://www.w3.org/2000/svg"><g clip-path="url(#ga)"><path d="M25.933 0H2.067A2.067 2.067 0 0 0 0 2.067v23.866A2.067 2.067 0 0 0 2.067 28h23.866A2.067 2.067 0 0 0 28 25.933V2.067A2.067 2.067 0 0 0 25.933 0ZM8.346 23.852h-4.21V10.481h4.21v13.371ZM6.238 8.627a2.417 2.417 0 1 1 2.43-2.415 2.382 2.382 0 0 1-2.43 2.415Zm17.624 15.237h-4.208V16.56c0-2.155-.915-2.82-2.098-2.82-1.248 0-2.473.942-2.473 2.874v7.251h-4.21V10.49h4.049v1.853h.054c.406-.822 1.83-2.228 4.002-2.228 2.349 0 4.886 1.394 4.886 5.477l-.002 8.272Z" fill="#C6BAAA"/></g><defs><clipPath id="ga"><path fill="#fff" d="M0 0h28v28H0z"/></clipPath></defs></svg><svg fill="none" viewBox="0 0 28 28" id="footer--Twitter" xmlns="http://www.w3.org/2000/svg"><rect width="28" height="28" rx="3" fill="#C6BAAA"/><path d="M11.438 21.385c6.209 0 9.604-5.145 9.604-9.604 0-.147 0-.294-.007-.434a6.915 6.915 0 0 0 1.687-1.75 6.851 6.851 0 0 1-1.94.532 3.374 3.374 0 0 0 1.485-1.87 6.835 6.835 0 0 1-2.142.82 3.376 3.376 0 0 0-5.747 3.08A9.575 9.575 0 0 1 7.42 8.63a3.386 3.386 0 0 0-.455 1.694 3.36 3.36 0 0 0 1.505 2.807 3.316 3.316 0 0 1-1.526-.42v.042a3.38 3.38 0 0 0 2.709 3.31 3.365 3.365 0 0 1-1.526.057 3.37 3.37 0 0 0 3.15 2.345 6.785 6.785 0 0 1-4.998 1.393 9.404 9.404 0 0 0 5.159 1.526Z" fill="#000"/></svg><svg fill="none" viewBox="0 0 26 26" id="header--WhatsApp" xmlns="http://www.w3.org/2000/svg"><g clip-path="url(#ja)" fill="#fff"><path d="m0 26 1.838-6.673a12.76 12.76 0 0 1-1.726-6.444C.112 5.777 5.922 0 13.056 0c3.464 0 6.717 1.34 9.157 3.775A12.744 12.744 0 0 1 26 12.89c0 7.105-5.81 12.882-12.95 12.882h-.007c-2.166 0-4.296-.543-6.19-1.569L0 26Zm7.183-4.127.391.234a10.828 10.828 0 0 0 5.476 1.496h.006c5.929 0 10.759-4.801 10.759-10.708 0-2.86-1.118-5.549-3.148-7.575a10.703 10.703 0 0 0-7.611-3.139C7.127 2.175 2.297 6.976 2.297 12.883c0 2.02.565 3.991 1.645 5.696l.255.408-1.087 3.948 4.073-1.062Z"/><path d="m0 26 1.838-6.673a12.76 12.76 0 0 1-1.726-6.444C.112 5.777 5.922 0 13.056 0c3.464 0 6.717 1.34 9.157 3.775A12.744 12.744 0 0 1 26 12.89c0 7.105-5.81 12.882-12.95 12.882h-.007c-2.166 0-4.296-.543-6.19-1.569L0 26Zm7.183-4.127.391.234a10.828 10.828 0 0 0 5.476 1.496h.006c5.929 0 10.759-4.801 10.759-10.708 0-2.86-1.118-5.549-3.148-7.575a10.703 10.703 0 0 0-7.611-3.139C7.127 2.175 2.297 6.976 2.297 12.883c0 2.02.565 3.991 1.645 5.696l.255.408-1.087 3.948 4.073-1.062Z"/><path fill-rule="evenodd" clip-rule="evenodd" d="M9.821 7.495c-.242-.538-.496-.55-.726-.556-.186-.006-.403-.006-.62-.006-.218 0-.566.08-.864.401-.298.322-1.13 1.1-1.13 2.688 0 1.582 1.161 3.114 1.323 3.33.161.217 2.241 3.572 5.525 4.863 2.732 1.075 3.29.859 3.88.803.59-.055 1.912-.778 2.186-1.532.267-.754.267-1.396.186-1.533-.08-.135-.298-.216-.621-.376-.323-.161-1.912-.94-2.21-1.05-.298-.106-.515-.161-.727.16-.217.321-.838 1.044-1.024 1.26-.186.217-.379.241-.701.08-.323-.16-1.366-.5-2.602-1.6-.962-.852-1.614-1.909-1.8-2.23-.186-.321-.019-.494.143-.655.143-.142.323-.377.484-.562.161-.186.217-.322.323-.538.105-.216.056-.402-.025-.562-.08-.155-.714-1.749-1-2.385Z"/></g><defs><clipPath id="ja"><path fill="#fff" d="M0 0h26v26H0z"/></clipPath></defs></svg><svg fill="none" viewBox="0 0 116 80" id="header--logo" xmlns="http://www.w3.org/2000/svg"><path d="M37.533 18.024h41.376v61.443H37.533V18.024Z" fill="#CBC0AE"/><path fill-rule="evenodd" clip-rule="evenodd" d="M37 17.492h42.442V80H37V17.492Zm1.066 1.065v60.377h40.31V18.557h-40.31Z" fill="#000"/><path d="M39.13 19.623h1.066v59.311h-1.065V19.623ZM41.084 19.623h1.066v59.311h-1.066V19.623ZM43.038 19.623h1.065v59.311h-1.065V19.623ZM44.991 19.623h1.066v59.311H44.99V19.623ZM46.944 19.623h1.066v59.311h-1.066V19.623ZM48.898 19.623h1.065v59.311h-1.065V19.623ZM50.851 19.623h1.066v59.311H50.85V19.623ZM52.805 19.623h1.065v59.311h-1.065V19.623ZM54.758 19.623h1.065v59.311h-1.065V19.623ZM56.711 19.623h1.066v59.311H56.71V19.623ZM58.665 19.623h1.065v59.311h-1.065V19.623ZM60.618 19.623h1.066v59.311h-1.066V19.623ZM62.571 19.623h1.066v59.311H62.57V19.623ZM64.525 19.623h1.065v59.311h-1.065V19.623ZM66.478 19.623h1.066v59.311h-1.066V19.623ZM68.432 19.623h1.065v59.311h-1.065V19.623ZM70.385 19.623h1.066v59.311h-1.066V19.623ZM72.338 19.623h1.066v59.311h-1.066V19.623ZM74.292 19.623h1.066v59.311h-1.066V19.623ZM76.245 19.623h1.066v59.311h-1.066V19.623Z" fill="#fff"/><path fill-rule="evenodd" clip-rule="evenodd" d="M59.02 1.065a.355.355 0 0 0-.355.356v9.677l-1.51.48v1.882l-.71.226v4.184l-.622.198v8.665l-1.065.327v1.408l-1.243.382v1.409l-1.243.381v1.506l-3.197.983v2.835l-1.065.328v4.485l-2.22.688V51.55l-1.065.33v27.054H73.67V51.506l-1.137-.822v-9.545l-2.249-1.627h.064v-3.447l-1.137-.822V32.95l-3.432-2.482.02-.027-1.103-.796v-.855l-1.25-.902v-.854l-1.319-.953V19.27l-.915-.696v-4.218l-.666-.482v-1.826l-1.171-.847V1.42a.355.355 0 0 0-.355-.355Z" fill="#F2EEE3"/><path fill-rule="evenodd" clip-rule="evenodd" d="M56.09 12.681V10.8l1.51-.48v-8.9a1.42 1.42 0 0 1 2.84 0v9.235l1.172.848v1.826l.666.481v4.235l.915.695v6.798l1.318.952v.854l1.25.903v.854l1.525 1.101-.02.027 3.01 2.177v2.292l1.138.822v3.494l2.185 1.58v9.545l1.137.822v27.974H43.659v-27.84l1.066-.33V40.68l2.22-.687v-4.486l1.065-.329v-2.835l3.196-.983v-1.506l1.243-.382v-1.408l1.244-.382v-1.408l1.065-.328V17.29l.621-.198v-4.184l.71-.226Z" fill="#F5F5F5"/><path fill-rule="evenodd" clip-rule="evenodd" d="m65.343 45.485 8.327 6.02V80h-.71V51.87l-7.745-5.6-7.4 2.295-.482.168v1.359h-.71v-1.864l.97-.338 7.75-2.404Zm-11.952 4.451-7.956 2.468V80h-.71V51.88l8.456-2.622.21.678Z" fill="#000"/><path fill-rule="evenodd" clip-rule="evenodd" d="m64.83 35.568 7.703 5.571v9.65h-.71v-9.287l-7.122-5.15-6.125 1.897v.819h-.71v-1.34l.392-.125 6.571-2.035ZM53.78 38.985v1.592h-.71v-.627l-2.165.674-4.406 1.364V51.5h-.71V41.465l4.905-1.52 3.086-.96Z" fill="#000"/><path fill-rule="evenodd" clip-rule="evenodd" d="m63.89 31.395 6.458 4.67v3.448h-.71v-3.085l-5.877-4.25-15.04 4.639v4.294h-.711v-4.819l15.88-4.897Z" fill="#000"/><path fill-rule="evenodd" clip-rule="evenodd" d="m63.376 28.732 5.835 4.219v2.388h-.71v-2.025l-5.254-3.8-13.462 4.14v2.396h-.71v-2.921l14.301-4.397Z" fill="#000"/><path fill-rule="evenodd" clip-rule="evenodd" d="m61.955 27.666 3.844 2.776-.417.576-3.556-2.569-8.844 2.716v1.51h-.71V30.64l9.683-2.974Z" fill="#000"/><path fill-rule="evenodd" clip-rule="evenodd" d="m61.417 26.423 3.279 2.369v1.226h-.71v-.863l-2.698-1.949-7.063 2.17v1.168h-.71V28.85l7.902-2.427Z" fill="#000"/><path fill-rule="evenodd" clip-rule="evenodd" d="m61.417 26.423 3.132 2.262-.416.576-2.845-2.055-7.063 2.17v1.345h-.71v-1.87l7.902-2.428Z" fill="#000"/><path fill-rule="evenodd" clip-rule="evenodd" d="m60.878 25.18 2.568 1.855v.977h-.71v-.614l-1.987-1.435-5.28 1.622v1.005h-.711v-1.53l6.12-1.88Z" fill="#000"/><path d="m66.39 48.746.71.533V80h-.71V48.746ZM65.68 38.474l.71.533v7.37l-.71-.533v-7.37ZM58.044 17.758h-.71v8.746l.71-.222v-8.524ZM67.277 39.629l.71.532v7.37l-.71-.533v-7.37ZM58.665 1.42a.355.355 0 0 1 .71 0v10.123a.355.355 0 0 1-.71 0V1.42ZM68.876 40.783l.71.533v7.37l-.71-.533v-7.37ZM60.085 18.113h.71v7.77l-.71.221v-7.99ZM64.88 33.857l.71.533v2.042l-.71-.532v-2.043ZM66.478 35.012l.71.532v2.043l-.71-.533v-2.042ZM68.077 36.166l.71.533v2.042l-.71-.533v-2.042ZM63.992 30.927l.71.533v1.154l-.71-.532v-1.155ZM65.59 32.081l.71.533v1.155l-.71-.533v-1.154ZM67.189 33.236l.71.533v1.154l-.71-.533v-1.154ZM70.474 41.937l.71.533v7.37l-.71-.533v-7.37ZM64.614 45.727l.71-.222V80h-.71V45.727ZM67.988 49.9l.71.533V80h-.71V49.9ZM69.586 51.054l.71.533V80h-.71V51.054ZM59.553 49.456l-.71.222v1.332l.71-.222v-1.332ZM59.553 51.365l-.71.222v1.332l.71-.222v-1.332ZM59.553 53.274l-.71.222v1.332l.71-.222v-1.332ZM59.553 55.183l-.71.222v1.332l.71-.222v-1.332ZM59.553 57.092l-.71.222v1.332l.71-.222v-1.332ZM59.553 59.001l-.71.222v1.332l.71-.222V59ZM59.553 60.91l-.71.222v1.332l.71-.222V60.91ZM59.553 62.82l-.71.221v1.332l.71-.222v-1.332ZM59.553 64.728l-.71.222v1.332l.71-.222v-1.332ZM59.553 66.637l-.71.222v1.332l.71-.222v-1.332ZM59.553 68.546l-.71.222V70.1l.71-.222v-1.332ZM59.553 70.455l-.71.222v1.332l.71-.222v-1.332ZM59.553 72.364l-.71.222v1.332l.71-.222v-1.332ZM59.553 74.273l-.71.222v1.332l.71-.222v-1.332ZM59.553 76.182l-.71.222v1.332l.71-.222v-1.332ZM59.553 78.091l-.71.222v1.332l.71-.222V78.09ZM55.468 35.605l-.71.222v1.332l.71-.222v-1.332ZM55.468 37.514l-.71.222v1.332l.71-.222v-1.332ZM55.468 39.423l-.71.222v1.332l.71-.222v-1.332ZM55.468 41.332l-.71.222v1.332l.71-.222v-1.332ZM55.468 43.24l-.71.223v1.332l.71-.222V43.24ZM55.468 45.15l-.71.222v1.331l.71-.222V45.15ZM55.468 47.059l-.71.222v1.332l.71-.222v-1.332ZM55.468 48.968l-.71.222v1.332l.71-.222v-1.332ZM55.468 50.877l-.71.222v1.332l.71-.222v-1.332ZM55.468 52.786l-.71.222v1.332l.71-.222v-1.332ZM55.468 54.695l-.71.222v1.332l.71-.222v-1.332ZM55.468 56.604l-.71.222v1.332l.71-.222v-1.332ZM55.468 58.513l-.71.222v1.331l.71-.222v-1.331ZM55.468 60.422l-.71.222v1.332l.71-.222v-1.332ZM55.468 62.33l-.71.223v1.332l.71-.222V62.33ZM55.468 64.24l-.71.222v1.332l.71-.222V64.24ZM55.468 66.149l-.71.222v1.332l.71-.222v-1.332ZM55.468 68.058l-.71.222v1.331l.71-.222v-1.331ZM55.468 69.967l-.71.222v1.331l.71-.222v-1.331ZM55.468 71.876l-.71.222v1.332l.71-.222v-1.332ZM55.468 73.785l-.71.222v1.331l.71-.221v-1.332ZM55.468 75.694l-.71.222v1.331l.71-.222v-1.331ZM55.468 77.603l-.71.222v1.331l.71-.222v-1.331ZM53.781 36.138l-.71.222v1.331l.71-.222v-1.331ZM53.781 38.047l-.71.222V39.6l.71-.221v-1.332ZM57.155 35.072l-.71.222v1.332l.71-.222v-1.332ZM57.155 36.981l-.71.222v1.332l.71-.222V36.98ZM57.155 38.89l-.71.222v1.332l.71-.222V38.89ZM57.155 40.8l-.71.221v1.332l.71-.222v-1.332ZM57.155 42.708l-.71.222v1.332l.71-.222v-1.332ZM57.155 44.617l-.71.222v1.332l.71-.222v-1.332ZM57.155 46.526l-.71.222v1.332l.71-.222v-1.332ZM57.155 48.435l-.71.222v1.332l.71-.222v-1.332ZM57.155 50.344l-.71.222v1.332l.71-.222v-1.332ZM57.155 52.253l-.71.222v1.332l.71-.222v-1.332ZM57.155 54.162l-.71.222v1.332l.71-.222v-1.332ZM57.155 56.071l-.71.222v1.332l.71-.222V56.07ZM57.155 57.98l-.71.222v1.332l.71-.222V57.98ZM57.155 59.889l-.71.222v1.332l.71-.222v-1.332ZM57.155 61.798l-.71.222v1.332l.71-.222v-1.332ZM57.155 63.707l-.71.222v1.332l.71-.222v-1.332ZM57.155 65.616l-.71.222v1.332l.71-.222v-1.332ZM57.155 67.525l-.71.222v1.332l.71-.222v-1.332ZM57.155 69.434l-.71.222v1.332l.71-.222v-1.332ZM57.155 71.343l-.71.222v1.332l.71-.222v-1.332ZM57.155 73.252l-.71.222v1.332l.71-.222v-1.332ZM57.155 75.16l-.71.223v1.332l.71-.222V75.16ZM57.155 77.07l-.71.222v1.332l.71-.222V77.07ZM58.931 34.54l-.71.221v1.332l.71-.222V34.54ZM58.931 36.449l-.71.221v1.332l.71-.222V36.45ZM60.618 34.007l-.71.222v3.107l.71-.222v-3.107Z" fill="#000"/><path d="m58.931 34.54-.71.221v3.108l.71-.222v-3.108ZM57.155 35.072l-.71.222v3.108l.71-.222v-3.108ZM55.468 35.605l-.71.222v3.108l.71-.222v-3.108ZM53.781 36.138l-.71.222v3.107l.71-.222v-3.107ZM58.931 31.698l-.71.222v1.776l.71-.222v-1.776ZM57.155 32.231l-.71.222v1.864l.71-.221V32.23ZM55.468 32.764l-.71.222v1.776l.71-.223v-1.775ZM53.781 33.296l-.71.222v1.776l.71-.222v-1.776ZM52.094 36.581l-.71.222v3.108l.71-.222v-3.108ZM50.407 37.025l-.71.222v3.108l.71-.222v-3.108ZM62.305 33.563l-.71.222v3.107l.71-.222v-3.107Z" fill="#000"/><path d="m52.094 36.581-.71.222v3.108l.71-.222v-3.108ZM50.407 37.025l-.71.222v3.108l.71-.222v-3.108ZM60.618 31.165l-.71.222v1.687l.71-.222v-1.687ZM52.094 33.74l-.71.222v1.865l.71-.222V33.74ZM47.655 53.125l-.71.222v1.332l.71-.222v-1.332ZM47.655 55.034l-.71.222v1.331l.71-.222v-1.331ZM47.655 56.943l-.71.222v1.332l.71-.222v-1.332ZM47.655 58.852l-.71.222v1.332l.71-.222v-1.332ZM47.655 60.76l-.71.223v1.332l.71-.222V60.76ZM47.655 62.67l-.71.222v1.331l.71-.222V62.67ZM47.655 64.579l-.71.222v1.331l.71-.222V64.58ZM47.655 66.488l-.71.222v1.332l.71-.222v-1.332ZM47.655 68.397l-.71.222v1.332l.71-.222v-1.332ZM47.655 70.306l-.71.222v1.331l.71-.221v-1.332ZM47.655 72.215l-.71.222v1.331l.71-.222v-1.331ZM47.655 74.124l-.71.222v1.332l.71-.222v-1.332ZM47.655 76.032l-.71.222v1.332l.71-.222v-1.332ZM47.655 77.942l-.71.222v1.332l.71-.222v-1.332ZM61.329 48.897l-.71.222v1.332l.71-.222v-1.332ZM61.329 50.806l-.71.222v1.331l.71-.221v-1.332ZM61.329 52.715l-.71.222v1.332l.71-.222v-1.332ZM61.329 54.624l-.71.222v1.332l.71-.222v-1.332ZM61.329 56.533l-.71.222v1.331l.71-.221v-1.332ZM61.329 58.442l-.71.222v1.331l.71-.221v-1.332ZM61.329 60.35l-.71.223v1.331l.71-.222v-1.331ZM61.329 62.26l-.71.221v1.332l.71-.222V62.26ZM61.329 64.169l-.71.222v1.331l.71-.221v-1.332ZM61.329 66.078l-.71.222v1.332l.71-.223v-1.331ZM61.329 67.987l-.71.222v1.331l.71-.222v-1.331ZM61.329 69.895l-.71.223v1.331l.71-.222v-1.332ZM61.329 71.805l-.71.222v1.332l.71-.222v-1.332ZM61.329 73.714l-.71.222v1.331l.71-.221v-1.332ZM61.329 75.623l-.71.221v1.332l.71-.222v-1.331ZM61.329 77.532l-.71.222v1.332l.71-.222v-1.332ZM49.43 52.565l-.71.222v1.332l.71-.222v-1.332ZM49.43 54.474l-.71.222v1.332l.71-.222v-1.332ZM49.43 56.383l-.71.222v1.332l.71-.222v-1.332ZM49.43 58.292l-.71.222v1.332l.71-.222v-1.332ZM49.43 60.201l-.71.222v1.332l.71-.222v-1.332ZM49.43 62.11l-.71.222v1.332l.71-.222V62.11ZM49.43 64.02l-.71.221v1.332l.71-.222V64.02ZM49.43 65.928l-.71.222v1.332l.71-.222v-1.332ZM49.43 67.837l-.71.222v1.332l.71-.222v-1.332ZM49.43 69.746l-.71.222V71.3l.71-.222v-1.332ZM49.43 71.655l-.71.222v1.332l.71-.222v-1.332ZM49.43 73.564l-.71.222v1.332l.71-.222v-1.332ZM49.43 75.473l-.71.222v1.332l.71-.222v-1.332ZM49.43 77.382l-.71.222v1.332l.71-.222v-1.332ZM63.105 48.346l-.71.222V49.9l.71-.222v-1.332ZM63.105 50.255l-.71.222v1.332l.71-.222v-1.332ZM63.105 52.164l-.71.222v1.332l.71-.222v-1.332ZM63.105 54.073l-.71.222v1.332l.71-.222v-1.332ZM63.105 55.982l-.71.222v1.332l.71-.222v-1.332ZM63.105 57.891l-.71.222v1.332l.71-.222v-1.332ZM63.105 59.8l-.71.222v1.332l.71-.222V59.8ZM63.105 61.71l-.71.221v1.332l.71-.222V61.71ZM63.105 63.618l-.71.222v1.332l.71-.222v-1.332ZM63.105 65.527l-.71.222v1.332l.71-.222v-1.332ZM63.105 67.436l-.71.222v1.332l.71-.222v-1.332ZM63.105 69.345l-.71.222V70.9l.71-.222v-1.332ZM63.105 71.254l-.71.222v1.332l.71-.222v-1.332ZM63.105 73.163l-.71.222v1.332l.71-.222v-1.332ZM63.105 75.072l-.71.222v1.332l.71-.222v-1.332ZM63.105 76.981l-.71.222v1.332l.71-.222V76.98ZM51.206 52.015l-.71.222v1.332l.71-.222v-1.332ZM51.206 53.924l-.71.222v1.332l.71-.222v-1.332ZM51.206 55.833l-.71.222v1.332l.71-.222v-1.332ZM51.206 57.742l-.71.222v1.332l.71-.222v-1.332ZM51.206 59.65l-.71.223v1.332l.71-.222V59.65ZM51.206 61.56l-.71.222v1.332l.71-.222V61.56ZM51.206 63.469l-.71.222v1.332l.71-.222v-1.332ZM51.206 65.378l-.71.222v1.332l.71-.222v-1.332ZM51.206 67.287l-.71.222v1.332l.71-.222v-1.332ZM51.206 69.196l-.71.222v1.332l.71-.222v-1.332ZM51.206 71.105l-.71.222v1.332l.71-.222v-1.332ZM51.206 73.014l-.71.222v1.331l.71-.221v-1.332ZM51.206 74.923l-.71.222v1.332l.71-.222v-1.332ZM51.206 76.832l-.71.222v1.332l.71-.222v-1.332ZM51.206 78.74l-.71.223v.977l.71-.222v-.977ZM71.184 52.209l.71.532V80h-.71V52.209ZM56.623 48.302l.71-.222V80h-.71V48.302ZM52.716 49.59l.71-.223V80h-.71V49.59ZM53.426 49.59l.71-.223v30.588h-.71V49.59Z" fill="#000"/><path d="m52.36 39.778.711-.222v10.255h-.71V39.778ZM53.071 39.778l.71-.222v10.255h-.71V39.778ZM57.866 38.002l.71-.222v10.255h-.71V38.002ZM63.992 36.049l.71-.222v10.255h-.71V36.05ZM63.105 31.787l.71-.222v4.928h-.71v-4.706Z" fill="#000"/><path d="m62.572 29.123.71-.222v3.152h-.71v-2.93ZM49.786 42.32l-.71.222v1.332l.71-.222v-1.331ZM49.786 44.23l-.71.222v1.332l.71-.222V44.23ZM49.786 46.139l-.71.222v1.332l.71-.222v-1.332ZM49.786 48.048l-.71.222v1.332l.71-.222v-1.332ZM61.684 38.592l-.71.221v1.332l.71-.222v-1.331ZM61.684 40.5l-.71.222v1.332l.71-.222v-1.331ZM61.684 42.41l-.71.222v1.332l.71-.222V42.41ZM61.684 44.318l-.71.222v1.332l.71-.222v-1.332ZM48.365 42.765l-.71.222v1.331l.71-.221v-1.332ZM48.365 44.674l-.71.222v1.331l.71-.222v-1.331ZM48.365 46.583l-.71.221v1.332l.71-.222v-1.331ZM48.365 48.492l-.71.222v1.331l.71-.221v-1.332ZM60.263 39.035l-.71.222v1.332l.71-.222v-1.332ZM60.263 40.944l-.71.222v1.332l.71-.222v-1.332ZM60.263 42.853l-.71.222v1.332l.71-.222v-1.332ZM60.263 44.763l-.71.221v1.332l.71-.222v-1.331ZM51.206 41.832l-.71.222v1.332l.71-.222v-1.332ZM51.206 43.742l-.71.221v1.332l.71-.222v-1.331ZM51.206 45.65l-.71.222v1.332l.71-.222V45.65ZM51.206 47.56l-.71.221v1.332l.71-.222V47.56ZM63.105 38.162l-.71.222v1.332l.71-.222v-1.332ZM63.105 40.071l-.71.222v1.332l.71-.222V40.07ZM63.105 41.98l-.71.222v1.332l.71-.222V41.98ZM63.105 43.889l-.71.222v1.332l.71-.222v-1.332Z" fill="#000"/><path fill-rule="evenodd" clip-rule="evenodd" d="m59.153 17.009 2.975 2.26v7.324h-.71V19.62L59.44 18.12v7.86h-.71v-8.09l-2.196.698v8.317h-.71v-8.836l3.33-1.06Z" fill="#000"/><path fill-rule="evenodd" clip-rule="evenodd" d="m59.114 14.88 2.098 1.517v2.297h-.71V16.76l-1.096-.793v1.519h-.71v-1.728l-1.54.49v1.954h-.711v-2.474l2.669-.849Z" fill="#000"/><path fill-rule="evenodd" clip-rule="evenodd" d="m59.114 12.837 2.098 1.518v2.652h-.71v-2.29l-1.096-.792v3.294h-.71v-3.504l-1.54.49v3.73h-.711v-4.249l2.669-.85Z" fill="#000"/><path fill-rule="evenodd" clip-rule="evenodd" d="m59.06 10.972 1.487 1.075v2.382l-1.59-.916-1.802.573V11.58l1.906-.607Zm.293 1.95.483.278v-.79l-.483-.35v.862Zm-.71-1.071v1.016l-.777.248v-1.017l.777-.247Z" fill="#000"/><path d="M4 51h112l-4 19H0l4-19Z" fill="#091E23"/><mask id="ia" maskUnits="userSpaceOnUse" x="5.297" y="54.956" width="104.287" height="10.76" fill="#000"><path fill="#fff" d="M5.297 54.956h104.287v10.76H5.297z"/><path d="m13.481 55.837-.027.127H9.359l-.81 3.815h3.795l-.027.127H8.521l-1 4.705h4.381l-.027.127h-5.46l1.892-8.901h5.174Zm1.818 8.9h-.169l3.023-8.9h.43l.98 8.227 4.466-8.227h.43l-.762 8.9h-1.079l.617-7.12-3.867 7.12h-.819l-.884-7.031-2.366 7.032Zm14.038-8.799a40.886 40.886 0 0 1 2.673-.101c2.15 0 3.067.741 2.751 2.225a3.793 3.793 0 0 1-.93 1.806c-.25.28-.592.504-1.027.673-.433.162-.93.242-1.494.242h-1.924l-.84 3.955h-1.08l1.87-8.8Zm2.66.026c-.503 0-1.038.03-1.605.089l-.979 4.603h1.924c1.233-.05 2.026-.907 2.379-2.569.144-.678.073-1.2-.214-1.564-.284-.373-.786-.56-1.506-.56Zm11.434.407a5.63 5.63 0 0 0-2.141-.445c-.693 0-1.266.144-1.717.432a1.82 1.82 0 0 0-.839 1.195c-.132.62.096 1.098.683 1.437.264.144.555.28.875.407.33.119.657.254.98.407.322.153.61.326.864.521.253.195.434.467.542.814.11.34.108.776-.006 1.31a2.596 2.596 0 0 1-.741 1.348 3.027 3.027 0 0 1-1.267.763 5.67 5.67 0 0 1-1.536.19c-1.066 0-1.92-.258-2.565-.775l.087-.102c.239.22.568.403.989.547.43.135.883.203 1.36.203.702 0 1.334-.157 1.894-.47.571-.322.923-.793 1.054-1.412.144-.678-.072-1.208-.65-1.59a6.122 6.122 0 0 0-.875-.47 77.496 77.496 0 0 1-.958-.445 5.31 5.31 0 0 1-.862-.534c-.568-.424-.77-1.026-.604-1.805.132-.62.45-1.12.956-1.5.508-.39 1.186-.586 2.035-.586.858 0 1.699.144 2.521.432l-.079.128Zm4.746 8.367h-1.079l1.865-8.774h-2.249l.027-.127h5.59l-.027.127h-2.262l-1.865 8.774Zm4.11 0h-.156l5.78-8.901.156-.064 1.37 8.965h-1.105l-.419-2.798h-3.796l-1.83 2.798Zm4.928-7.528-3.019 4.603h3.705l-.686-4.603Zm7.367 7.528h-1.079l1.865-8.774H63.12l.027-.127h5.59l-.027.127h-2.262l-1.865 8.774Zm12.581-8.901-.027.127h-4.095l-.81 3.815h3.795l-.027.127h-3.796l-1 4.705h4.381l-.027.127h-5.46l1.892-8.901h5.174Zm13.057 0c.13.16.169.368.115.623a1.951 1.951 0 0 1-.28.648l-4.69 7.63-.157.063-.584-5.328-3.238 5.265-.156.063-.98-8.964h1.104l.727 7.527 2.522-4.094-.376-3.433h1.105l.727 7.527 3.84-6.256a1.91 1.91 0 0 0 .283-.661c.048-.229.021-.407-.082-.534l.12-.076Zm8.668 0-.028.127h-4.094l-.811 3.815h3.796l-.027.127h-3.796l-1 4.705h4.38l-.027.127h-5.46l1.892-8.901h5.175Zm3.584.101a41.035 41.035 0 0 1 2.687-.101c2.14 0 3.062.699 2.765 2.098-.112.525-.365.979-.758 1.36-.391.373-.943.628-1.657.763.643.077 1.121.272 1.436.585.315.314.389.86.223 1.64-.348 1.637-1.592 2.455-3.732 2.455h-2.834l1.87-8.8Zm-.764 8.673h1.755c.771 0 1.358-.195 1.762-.585.414-.399.707-1.005.88-1.819.173-.813.124-1.356-.148-1.627-.271-.272-.73-.416-1.377-.433h-1.924l-.948 4.464Zm3.424-8.647c-.503 0-1.038.03-1.605.089l-.844 3.967h1.924c1.233-.05 1.99-.737 2.271-2.06.137-.644.06-1.136-.232-1.475-.29-.347-.795-.521-1.514-.521Z"/></mask><path d="m13.481 55.837-.027.127H9.359l-.81 3.815h3.795l-.027.127H8.521l-1 4.705h4.381l-.027.127h-5.46l1.892-8.901h5.174Zm1.818 8.9h-.169l3.023-8.9h.43l.98 8.227 4.466-8.227h.43l-.762 8.9h-1.079l.617-7.12-3.867 7.12h-.819l-.884-7.031-2.366 7.032Zm14.038-8.799a40.886 40.886 0 0 1 2.673-.101c2.15 0 3.067.741 2.751 2.225a3.793 3.793 0 0 1-.93 1.806c-.25.28-.592.504-1.027.673-.433.162-.93.242-1.494.242h-1.924l-.84 3.955h-1.08l1.87-8.8Zm2.66.026c-.503 0-1.038.03-1.605.089l-.979 4.603h1.924c1.233-.05 2.026-.907 2.379-2.569.144-.678.073-1.2-.214-1.564-.284-.373-.786-.56-1.506-.56Zm11.434.407a5.63 5.63 0 0 0-2.141-.445c-.693 0-1.266.144-1.717.432a1.82 1.82 0 0 0-.839 1.195c-.132.62.096 1.098.683 1.437.264.144.555.28.875.407.33.119.657.254.98.407.322.153.61.326.864.521.253.195.434.467.542.814.11.34.108.776-.006 1.31a2.596 2.596 0 0 1-.741 1.348 3.027 3.027 0 0 1-1.267.763 5.67 5.67 0 0 1-1.536.19c-1.066 0-1.92-.258-2.565-.775l.087-.102c.239.22.568.403.989.547.43.135.883.203 1.36.203.702 0 1.334-.157 1.894-.47.571-.322.923-.793 1.054-1.412.144-.678-.072-1.208-.65-1.59a6.122 6.122 0 0 0-.875-.47 77.496 77.496 0 0 1-.958-.445 5.31 5.31 0 0 1-.862-.534c-.568-.424-.77-1.026-.604-1.805.132-.62.45-1.12.956-1.5.508-.39 1.186-.586 2.035-.586.858 0 1.699.144 2.521.432l-.079.128Zm4.746 8.367h-1.079l1.865-8.774h-2.249l.027-.127h5.59l-.027.127h-2.262l-1.865 8.774Zm4.11 0h-.156l5.78-8.901.156-.064 1.37 8.965h-1.105l-.419-2.798h-3.796l-1.83 2.798Zm4.928-7.528-3.019 4.603h3.705l-.686-4.603Zm7.367 7.528h-1.079l1.865-8.774H63.12l.027-.127h5.59l-.027.127h-2.262l-1.865 8.774Zm12.581-8.901-.027.127h-4.095l-.81 3.815h3.795l-.027.127h-3.796l-1 4.705h4.381l-.027.127h-5.46l1.892-8.901h5.174Zm13.057 0c.13.16.169.368.115.623a1.951 1.951 0 0 1-.28.648l-4.69 7.63-.157.063-.584-5.328-3.238 5.265-.156.063-.98-8.964h1.104l.727 7.527 2.522-4.094-.376-3.433h1.105l.727 7.527 3.84-6.256a1.91 1.91 0 0 0 .283-.661c.048-.229.021-.407-.082-.534l.12-.076Zm8.668 0-.028.127h-4.094l-.811 3.815h3.796l-.027.127h-3.796l-1 4.705h4.38l-.027.127h-5.46l1.892-8.901h5.175Zm3.584.101a41.035 41.035 0 0 1 2.687-.101c2.14 0 3.062.699 2.765 2.098-.112.525-.365.979-.758 1.36-.391.373-.943.628-1.657.763.643.077 1.121.272 1.436.585.315.314.389.86.223 1.64-.348 1.637-1.592 2.455-3.732 2.455h-2.834l1.87-8.8Zm-.764 8.673h1.755c.771 0 1.358-.195 1.762-.585.414-.399.707-1.005.88-1.819.173-.813.124-1.356-.148-1.627-.271-.272-.73-.416-1.377-.433h-1.924l-.948 4.464Zm3.424-8.647c-.503 0-1.038.03-1.605.089l-.844 3.967h1.924c1.233-.05 1.99-.737 2.271-2.06.137-.644.06-1.136-.232-1.475-.29-.347-.795-.521-1.514-.521Z" fill="#fff"/><path d="M13.481 55.837h.2l.042-.196h-.2l-.042.196Zm-.027.127-.042.195h.2l.042-.195h-.2Zm-4.095 0 .042-.196h-.2l-.042.196h.2Zm-.81 3.815h-.2l-.042.195h.2l.041-.195Zm3.795 0h.2l.042-.196h-.2l-.042.196Zm-.027.127-.041.195h.2l.041-.195h-.2Zm-3.796 0 .042-.196h-.2l-.042.196h.2Zm-1 4.705h-.2l-.041.195h.2l.041-.195Zm4.381 0h.2l.042-.196h-.2l-.042.196Zm-.027.127-.041.195h.2l.041-.195h-.2Zm-5.46 0h-.2l-.042.195h.2l.042-.195Zm1.892-8.901.042-.196h-.2l-.042.196h.2Zm4.974 0-.027.127h.4l.027-.127h-.4Zm.215-.069H9.4l-.084.391h4.095l.084-.39Zm-4.337.196-.81 3.815h.4l.81-3.815h-.4Zm-.652 4.01h3.796l.083-.391H8.59l-.083.391Zm3.637-.195-.027.127h.4l.027-.127h-.4Zm.215-.069H8.563l-.083.391h3.796l.083-.39Zm-4.038.196-1 4.705h.4l1-4.705h-.4Zm-.841 4.9h4.38l.084-.391H7.563l-.083.391Zm4.222-.195-.027.127h.4l.027-.127h-.4Zm.215-.069h-5.46l-.084.391h5.46l.084-.39Zm-5.302.196 1.892-8.901h-.4l-1.892 8.9h.4Zm1.65-8.706h5.175l.083-.391H8.349l-.084.391Zm7.034 8.706-.041.195h.177l.058-.172-.194-.023Zm-.169 0-.193-.024-.075.22h.227l.041-.196Zm3.023-8.901.042-.196h-.177l-.058.172.193.024Zm.43 0 .202-.06-.016-.136h-.145l-.042.196Zm.98 8.227-.203.06.069.575.312-.575-.178-.06Zm4.466-8.227.042-.196h-.146l-.073.136.177.06Zm.43 0 .203-.025.014-.171H24.5l-.042.196Zm-.762 8.9-.041.196h.226l.019-.22-.204.025Zm-1.079 0-.203.025-.015.171h.177l.041-.195Zm.617-7.12.203-.024-.38-.036.177.06Zm-3.867 7.12-.041.196h.145l.074-.135-.178-.06Zm-.819 0-.203.062.017.134h.145l.041-.195Zm-.884-7.031.203-.062-.397.038.194.024Zm-2.324 6.836h-.17l-.082.391h.169l.083-.39Zm-.018.22 3.023-8.901-.386-.048-3.023 8.9.386.049Zm2.789-8.73h.429l.083-.391h-.43l-.082.391Zm.267-.135.981 8.227.407-.12-.982-8.228-.406.121Zm1.362 8.227 4.466-8.227-.355-.12-4.466 8.227.355.12Zm4.247-8.092h.429l.083-.391h-.43l-.082.391Zm.267-.171-.761 8.9.407-.047.76-8.901-.407.048Zm-.516 8.681h-1.08l-.082.391h1.079l.083-.39Zm-.917.172.616-7.121-.407.048-.616 7.12.407-.047Zm.235-7.157-3.866 7.12.355.12 3.866-7.12-.355-.12Zm-3.647 6.985h-.82l-.082.391h.819l.083-.39Zm-.658.134-.884-7.032-.406.123.884 7.032.406-.123Zm-1.28-6.994-2.366 7.032.387.047 2.365-7.032-.387-.047Zm11.865-1.744.027-.195-.188.013-.04.182h.2Zm4.495 3.93-.142-.111-.002.002.144.109Zm-1.028.673.038.181.004-.001-.042-.18Zm-3.418.242.042-.196h-.2l-.042.196h.2Zm-.84 3.955-.042.195h.2l.041-.195h-.2Zm-1.08 0h-.2l-.041.195h.2l.041-.195Zm2.925-8.685.02-.195-.182.02-.037.175h.2Zm-.978 4.603h-.2l-.041.196h.2l.041-.196Zm1.924 0-.042.196h.009l.033-.196Zm2.165-4.133-.173.135.001.002.172-.137Zm-4.193-.39a40.727 40.727 0 0 1 2.66-.1l.083-.392c-.768 0-1.665.034-2.688.102l-.055.39Zm2.66-.1c1.057 0 1.775.183 2.192.52.406.328.547.82.4 1.509h.4c.17-.794.01-1.415-.502-1.829-.5-.405-1.315-.592-2.407-.592l-.083.391Zm2.592 2.029a3.554 3.554 0 0 1-.87 1.695l.282.221a4.032 4.032 0 0 0 .988-1.916h-.4Zm-.873 1.697c-.215.241-.519.445-.925.603l.083.359c.463-.18.844-.426 1.129-.745l-.287-.217Zm-.922.602c-.4.149-.87.227-1.414.227l-.084.39c.582 0 1.108-.082 1.574-.256l-.076-.361Zm-1.414.227h-1.924l-.084.39h1.924l.084-.39Zm-2.166.195-.84 3.955h.4l.84-3.955h-.4Zm-.599 3.76h-1.079l-.083.39h1.079l.083-.39Zm-.92.195 1.87-8.8h-.4l-1.87 8.8h.4Zm4.371-8.97c-.51 0-1.053.03-1.627.09l-.04.39a15.24 15.24 0 0 1 1.584-.089l.083-.39Zm-1.846.285-.979 4.603h.4l.979-4.603h-.4Zm-.82 4.799h1.924l.083-.392h-1.924l-.083.392Zm1.932 0c.669-.028 1.243-.278 1.693-.764.44-.476.739-1.152.919-2h-.4c-.173.812-.447 1.395-.8 1.776-.343.37-.782.573-1.346.597l-.066.39Zm2.612-2.765c.151-.712.082-1.289-.241-1.7l-.345.273c.25.317.323.783.186 1.427h.4Zm-.24-1.699c-.324-.424-.885-.62-1.638-.62l-.083.391c.685 0 1.128.178 1.374.5l.347-.27Zm9.755-.017-.11.182.17.07.11-.18-.17-.072Zm-3.858-.013-.087-.156.087.156Zm-.156 2.632-.13.173.003.002.127-.175Zm.875.407-.11.183.006.002.104-.185Zm.98.407.118-.18-.118.18Zm1.406 1.335-.197.09v.001l.197-.09Zm-.747 2.658.13.122-.13-.122Zm-1.267.763.018.187h.003l-.021-.187Zm-4.1-.585-.148-.104-.134.157.132.107.15-.16Zm.086-.102.156-.154-.146-.135-.158.185.148.104Zm.988.547-.101.186.004.001.097-.187Zm3.255-.267.074.164h.001l-.075-.164Zm.404-3.001.138-.169-.138.169Zm-.875-.47-.116.18h.001l.115-.18Zm-.958-.446-.122.178.003.002.119-.18Zm-.862-.534.147-.162-.002-.001-.145.163Zm.352-3.306.105.144.002-.001-.107-.143Zm4.556-.153.17.073.12-.192-.187-.066-.103.185Zm.032-.055a5.811 5.811 0 0 0-2.21-.458l-.084.391c.673 0 1.364.142 2.073.432l.221-.365Zm-2.21-.458c-.72 0-1.341.15-1.846.472l.174.312c.398-.254.92-.393 1.588-.393l.084-.391Zm-1.846.472a2.073 2.073 0 0 0-.952 1.351h.4c.096-.452.337-.79.726-1.039l-.174-.312Zm-.952 1.351c-.15.706.12 1.245.753 1.61l.26-.346c-.541-.312-.726-.732-.613-1.264h-.4Zm.756 1.612c.27.148.568.286.893.415l.218-.366a7.84 7.84 0 0 1-.858-.399l-.253.35Zm.898.417c.325.117.647.25.965.401l.237-.358a11.158 11.158 0 0 0-.994-.413l-.208.37Zm.965.401c.314.148.592.317.836.504l.293-.324a4.86 4.86 0 0 0-.892-.538l-.237.358Zm.836.504c.227.175.392.42.492.741l.394-.178a1.735 1.735 0 0 0-.593-.887l-.293.324Zm.492.743c.098.302.1.705-.009 1.219h.4c.118-.554.124-1.025.002-1.4l-.393.181Zm-.009 1.219a2.353 2.353 0 0 1-.672 1.226l.262.244c.421-.412.69-.905.81-1.47h-.4Zm-.672 1.226a2.763 2.763 0 0 1-1.158.698l.043.373a3.293 3.293 0 0 0 1.377-.827l-.262-.244Zm-1.155.698c-.427.12-.918.182-1.475.182l-.083.391c.586 0 1.119-.065 1.595-.2l-.037-.373Zm-1.475.182c-1.032 0-1.847-.25-2.458-.74l-.298.32c.677.544 1.572.811 2.673.811l.083-.391Zm-2.46-.477.087-.101-.295-.208-.087.102.296.208Zm-.217-.051c.259.238.609.43 1.044.579l.203-.372c-.405-.14-.714-.312-.934-.515l-.313.308Zm1.048.58c.448.141.92.212 1.417.212l.083-.391c-.457 0-.892-.065-1.305-.195l-.195.374Zm1.417.212c.733 0 1.405-.164 2.01-.502l-.149-.328c-.517.29-1.107.439-1.778.439l-.083.391Zm2.01-.502c.64-.361 1.035-.895 1.18-1.576h-.4c-.12.557-.426.964-.93 1.248l.15.328Zm1.18-1.576c.16-.755-.089-1.345-.713-1.758l-.276.337c.531.35.716.82.588 1.421h.4Zm-.714-1.758a6.272 6.272 0 0 0-.897-.482l-.23.361c.318.141.602.294.853.459l.274-.338Zm-.895-.482a76.489 76.489 0 0 1-.957-.444l-.237.358c.324.153.644.302.96.446l.234-.36Zm-.953-.442a5.155 5.155 0 0 1-.837-.519l-.293.324c.261.202.557.385.886.55l.244-.355Zm-.84-.52c-.519-.387-.7-.927-.548-1.642h-.4c-.18.844.042 1.508.66 1.969l.289-.327Zm-.548-1.642c.121-.57.41-1.016.86-1.357l-.209-.288c-.56.422-.91.977-1.051 1.645h.4Zm.862-1.358c.447-.343 1.066-.532 1.888-.532l.083-.391c-.877 0-1.615.2-2.184.638l.213.285Zm1.888-.532c.834 0 1.654.14 2.46.422l.205-.371a7.758 7.758 0 0 0-2.582-.442l-.083.39Zm2.392.164-.079.127.34.145.08-.127-.34-.145Zm4.837 8.567-.041.195h.2l.041-.195h-.2Zm-1.079 0h-.2l-.041.195h.2l.041-.195Zm1.865-8.774h.2l.042-.196h-.2l-.042.196Zm-2.249 0h-.2l-.041.195h.2l.041-.195Zm.027-.127.042-.196h-.2l-.042.196h.2Zm5.59 0h.2l.042-.196h-.2l-.042.196Zm-.027.127-.041.195h.2l.041-.195h-.2Zm-2.262 0 .042-.196h-.2l-.042.196h.2Zm-1.823 8.578h-1.08l-.082.391h1.079l.083-.39Zm-.92.196 1.864-8.774h-.4l-1.865 8.774h.4Zm1.706-8.97h-2.25l-.082.391h2.249l.083-.39Zm-2.09.196.026-.127h-.4l-.027.127h.4Zm-.215.068h5.59l.083-.391h-5.59l-.083.391Zm5.431-.195-.027.127h.4l.027-.127h-.4Zm.215-.069h-2.262L50 56.16h2.262l.083-.39Zm-2.504.196-1.865 8.774h.4l1.865-8.774h-.4Zm2.445 8.774-.041.195h.131l.078-.118-.168-.077Zm-.156 0-.167-.077-.177.272h.303l.041-.195Zm5.78-8.901-.046-.179-.077.032-.045.07.167.077Zm.156-.064.202-.066-.03-.2-.217.088.045.178Zm1.37 8.965-.041.195h.284l-.04-.261-.203.066Zm-1.105 0-.202.065.02.13h.14l.042-.195Zm-.419-2.798.202-.065-.02-.13h-.14l-.042.195Zm-3.796 0 .042-.195h-.132l-.077.118.167.077Zm3.099-4.73.202-.065-.07-.47-.3.457.167.078Zm-3.02 4.603-.167-.078-.18.274h.306l.041-.196Zm3.705 0-.042.196h.283l-.039-.261-.202.065Zm-5.572 2.73h-.156l-.083.39h.156l.083-.39Zm-.03.272 5.779-8.901-.335-.154-5.78 8.9.336.155Zm5.656-8.8.157-.064-.09-.356-.157.063.09.357Zm-.09-.176 1.37 8.965.405-.132-1.37-8.965-.405.132Zm1.614 8.703h-1.105l-.083.391h1.105l.083-.39Zm-.944.13-.42-2.797-.404.13.419 2.798.405-.13Zm-.58-2.927h-3.796l-.084.39h3.796l.084-.39Zm-4.005.118-1.83 2.797.335.155 1.83-2.797-.335-.155Zm3.098-4.73-3.019 4.602.334.156 3.02-4.603-.335-.156Zm-2.894 4.876h3.705l.084-.392h-3.705l-.084.392Zm3.95-.261-.686-4.603-.405.13.686 4.603.404-.13Zm6.478 2.99-.041.195h.2l.041-.195h-.2Zm-1.079 0h-.2l-.041.195h.2l.041-.195Zm1.865-8.774h.2l.042-.196h-.2l-.042.196Zm-2.249 0h-.2l-.041.195h.2l.041-.195Zm.027-.127.042-.196h-.2l-.042.196h.2Zm5.59 0h.2l.042-.196h-.2l-.042.196Zm-.027.127-.041.195h.2l.041-.195h-.2Zm-2.262 0 .042-.196h-.2l-.042.196h.2Zm-1.823 8.578h-1.08l-.082.391h1.079l.083-.39Zm-.92.196 1.864-8.774h-.4l-1.865 8.774h.4Zm1.706-8.97h-2.25l-.082.391h2.249l.083-.39Zm-2.09.196.026-.127h-.4l-.027.127h.4Zm-.215.068h5.59l.083-.391h-5.59l-.083.391Zm5.431-.195-.027.127h.4l.027-.127h-.4Zm.215-.069h-2.262l-.083.391h2.262l.083-.39Zm-2.504.196-1.865 8.774h.4l1.865-8.774h-.4Zm10.916-.127h.2l.042-.196h-.2l-.042.196Zm-.027.127-.041.195h.2l.041-.195h-.2Zm-4.095 0 .042-.196h-.2l-.042.196h.2Zm-.81 3.815h-.2l-.042.195h.2l.041-.195Zm3.795 0h.2l.042-.196h-.2l-.042.196Zm-.027.127-.041.195h.2l.041-.195H76Zm-3.796 0 .042-.196h-.2l-.042.196h.2Zm-1 4.705h-.2l-.041.195h.2l.041-.195Zm4.381 0h.2l.042-.196h-.2l-.042.196Zm-.027.127-.041.195h.2l.041-.195h-.2Zm-5.46 0h-.2l-.041.195h.2l.041-.195Zm1.892-8.901.042-.196h-.2l-.042.196h.2Zm4.974 0-.027.127h.4l.027-.127h-.4Zm.215-.069h-4.095L73 56.16h4.095l.083-.39Zm-4.337.196-.81 3.815h.4l.81-3.815h-.4Zm-.652 4.01h3.796l.083-.391h-3.796l-.083.391Zm3.637-.195-.027.127h.4l.027-.127h-.4Zm.215-.069h-3.796l-.083.391h3.796l.083-.39Zm-4.038.196-1 4.705h.4l1-4.705h-.4Zm-.841 4.9h4.38l.084-.391h-4.381l-.083.391Zm4.222-.195-.027.127h.4l.027-.127h-.4Zm.215-.069h-5.46l-.083.391h5.46l.083-.39Zm-5.302.196 1.892-8.901h-.4l-1.892 8.9h.4Zm1.65-8.706h5.175l.083-.391H72.03l-.083.391Zm18.273-.195.171-.139-.097-.12-.16.102.086.157Zm-.166 1.271-.168-.076-.003.005.171.071Zm-4.69 7.63.045.178.081-.033.045-.074-.17-.071Zm-.156.063-.203.06.023.21.225-.092-.045-.178Zm-.584-5.328.204-.058-.058-.528-.316.515.17.071Zm-3.238 5.265.045.178.08-.033.046-.074-.17-.071Zm-.156.063-.203.06.023.21.225-.092-.045-.178Zm-.98-8.964.04-.196h-.272l.028.254.203-.058Zm1.104 0 .204-.057-.014-.139h-.148l-.042.196Zm.727 7.527-.203.057.052.539.322-.524-.17-.072Zm2.522-4.094.17.072.04-.065-.007-.066-.203.059Zm-.376-3.433.042-.196h-.273l.028.254.203-.058Zm1.105 0 .204-.057-.014-.139h-.148l-.042.196Zm.727 7.527-.203.057.052.54.322-.525-.17-.072Zm3.84-6.256-.167-.079-.005.008.171.071Zm.201-1.195-.087-.157-.213.136.13.16.17-.14Zm-.05.062c.097.12.13.276.085.485h.4c.064-.3.02-.56-.144-.762l-.342.277Zm.085.485c-.039.182-.12.373-.249.572l.336.152c.156-.241.262-.483.313-.724h-.4Zm-.252.577-4.69 7.63.342.142 4.69-7.63-.342-.142ZM85.32 64.56l-.157.063.09.356.156-.063-.09-.356Zm.091.183-.583-5.328-.407.117.584 5.328.406-.117Zm-.957-5.341-3.238 5.264.341.143 3.238-5.264-.341-.143Zm-3.112 5.158-.157.063.09.356.156-.063-.09-.356Zm.091.183-.98-8.965-.407.117.98 8.965.407-.117Zm-1.225-8.71h1.105l.083-.392H80.29l-.083.391Zm.943-.14.727 7.528.407-.113-.727-7.528-.407.113Zm1.101 7.543 2.521-4.094-.341-.144-2.522 4.095.342.143Zm2.554-4.225-.375-3.433-.407.117.375 3.434.407-.118Zm-.62-3.179h1.105l.083-.391h-1.105l-.083.391Zm.943-.139.727 7.528.407-.113-.727-7.528-.407.113Zm1.101 7.543 3.84-6.256-.343-.143-3.839 6.256.342.143Zm3.834-6.249c.157-.236.263-.484.318-.74h-.4a1.683 1.683 0 0 1-.25.582l.332.158Zm.318-.74c.056-.266.03-.5-.111-.672l-.342.276c.066.081.093.204.053.396h.4Zm-.195-.378.12-.076-.173-.313-.12.076.173.313Zm8.7-.232h.2l.042-.196h-.2l-.041.196Zm-.026.127-.042.195h.2l.041-.195h-.2Zm-4.096 0 .042-.196h-.2l-.041.196h.2Zm-.81 3.815h-.2l-.042.195h.2l.042-.195Zm3.796 0h.2l.041-.196h-.2l-.041.196Zm-.027.127-.042.195h.2l.042-.195h-.2Zm-3.796 0 .041-.196h-.2l-.041.196h.2Zm-1 4.705h-.2l-.042.195h.2l.041-.195Zm4.38 0h.2l.042-.196h-.2l-.041.196Zm-.027.127-.041.195h.2l.041-.195h-.2Zm-5.46 0h-.2l-.041.195h.2l.041-.195Zm1.892-8.901.042-.196h-.2l-.042.196h.2Zm4.975 0-.028.127h.4l.028-.127h-.4Zm.214-.069h-4.095l-.083.391h4.095l.083-.39Zm-4.337.196-.81 3.815h.4l.81-3.815h-.4Zm-.652 4.01h3.796l.083-.391h-3.796l-.083.391Zm3.638-.195-.027.127h.4l.027-.127h-.4Zm.214-.069H93.97l-.083.391h3.796l.083-.39Zm-4.037.196-1 4.705h.4l1-4.705h-.4Zm-.842 4.9h4.381l.083-.391h-4.38l-.084.391Zm4.223-.195-.027.127h.4l.026-.127h-.4Zm.214-.069h-5.46l-.083.391h5.46l.083-.39Zm-5.301.196 1.891-8.901h-.4l-1.892 8.9h.4Zm1.65-8.706h5.174l.083-.391h-5.174l-.083.391Zm8.8-.094.028-.195-.189.013-.039.182h.2Zm4.694 3.357.129.124.002-.001-.131-.123Zm-1.657.763.001-.191-.066.386.065-.195Zm1.436.585.16-.15-.16.15Zm-6.343 4.095h-.2l-.042.195h.2l.042-.195Zm1.106-.127h-.2l-.042.195h.2l.042-.195Zm3.517-.585-.129-.123h-.001l.13.123Zm.732-3.446.161-.15-.161.15Zm-1.377-.433.047-.195h-.005l-.042.195Zm-1.924 0 .042-.195h-.2l-.042.195h.2Zm.871-4.094.019-.195-.182.02-.037.175h.2Zm-.844 3.967h-.2l-.041.196h.2l.041-.196Zm1.924 0-.041.196h.008l.033-.196Zm2.039-3.535-.17.14.002.002.168-.142Zm-4.202-.352a40.886 40.886 0 0 1 2.673-.1l.083-.392c-.777 0-1.677.034-2.7.102l-.056.39Zm2.673-.1c1.054 0 1.773.173 2.193.49.407.31.55.77.414 1.412h.4c.16-.756-.008-1.346-.523-1.736-.502-.382-1.315-.558-2.401-.558l-.083.391Zm2.607 1.902a2.372 2.372 0 0 1-.688 1.238l.261.245c.431-.42.706-.917.827-1.483h-.4Zm-.686 1.236c-.342.327-.842.565-1.528.696l-.002.383c.741-.14 1.346-.41 1.787-.83l-.257-.248Zm-1.594 1.082c.617.073 1.057.258 1.34.54l.321-.3c-.346-.345-.863-.55-1.531-.629l-.13.389Zm1.34.54c.26.259.345.734.184 1.49h.4c.171-.803.107-1.421-.263-1.79l-.321.3Zm.184 1.49c-.164.774-.531 1.324-1.084 1.687-.564.37-1.357.572-2.407.572l-.083.391c1.091 0 1.99-.207 2.671-.655.691-.454 1.12-1.132 1.303-1.994h-.4Zm-3.491 2.26h-2.834l-.083.39h2.834l.083-.39Zm-2.675.195 1.87-8.8h-.4l-1.87 8.8h.4Zm.864.068h1.755l.083-.391h-1.755l-.083.391Zm1.755 0c.801 0 1.462-.202 1.934-.658l-.26-.245c-.335.324-.849.512-1.591.512l-.083.391Zm1.933-.657c.466-.449.774-1.108.951-1.942h-.4c-.168.794-.447 1.347-.809 1.696l.258.246Zm.951-1.942c.175-.822.145-1.446-.187-1.777l-.321.3c.211.21.28.672.108 1.477h.4Zm-.187-1.777c-.312-.311-.821-.46-1.491-.478l-.094.39c.624.017 1.032.156 1.264.387l.321-.299Zm-1.496-.478h-1.924l-.083.391h1.924l.083-.391Zm-2.166.195-.948 4.464h.4l.948-4.464h-.4Zm2.717-4.379c-.511 0-1.053.03-1.627.09l-.039.39a15.242 15.242 0 0 1 1.583-.089l.083-.39Zm-1.846.285-.844 3.967h.4l.844-3.967h-.4Zm-.685 4.163h1.924l.083-.392h-1.924l-.083.392Zm1.932 0c.654-.027 1.213-.225 1.649-.62.432-.393.709-.948.855-1.636h-.4c-.135.635-.377 1.084-.702 1.379-.321.29-.756.462-1.336.486l-.066.39Zm2.504-2.256c.145-.68.069-1.23-.264-1.617l-.336.284c.251.291.329.725.2 1.333h.4Zm-.263-1.615c-.33-.396-.892-.577-1.642-.577l-.083.391c.689 0 1.136.167 1.386.466l.339-.28Z" fill="#fff" mask="url(#ia)"/></svg><svg fill="none" viewBox="0 0 36 30" id="services--svg-fancy_icon-256-5" xmlns="http://www.w3.org/2000/svg"><path d="M20.7 22H6.3c-1.489 0-2.7-1.346-2.7-3V3c0-1.654 1.211-3 2.7-3h23.4c1.489 0 2.7 1.346 2.7 3v2c0 .552-.403 1-.9 1s-.9-.448-.9-1V3c0-.552-.403-1-.9-1H6.3c-.497 0-.9.448-.9 1v16c0 .552.403 1 .9 1h14.4c.497 0 .9.448.9 1s-.403 1-.9 1ZM20.7 30h-18C1.211 30 0 28.652 0 27v-2c0-.553.403-1 .9-1h19.8c.497 0 .9.447.9 1 0 .551-.403 1-.9 1H1.8v1c0 .551.403 1 .9 1h18c.497 0 .9.447.9 1 0 .551-.403 1-.9 1Z" fill="#000"/><path d="M33.3 30h-7.2c-1.489 0-2.7-1.346-2.7-3V11c0-1.654 1.211-3 2.7-3h7.2c1.489 0 2.7 1.346 2.7 3v16c0 1.654-1.212 3-2.7 3Zm-7.2-20c-.497 0-.9.448-.9 1v16c0 .552.403 1 .9 1h7.2c.497 0 .9-.448.9-1V11c0-.552-.403-1-.9-1h-7.2Z" fill="#000"/><path d="M29.7 26a.854.854 0 0 1-.636-.295A1.071 1.071 0 0 1 28.8 25c0-.262.095-.522.264-.706A.864.864 0 0 1 29.7 24c.236 0 .47.106.635.294.168.186.265.444.265.706 0 .262-.096.522-.265.706A.864.864 0 0 1 29.7 26Z" fill="#000"/></svg></svg>