<svg width="48" height="48" viewBox="0 0 48 48" fill="none" xmlns="http://www.w3.org/2000/svg">
<path fill-rule="evenodd" clip-rule="evenodd" d="M24 48C37.2547 48 48 37.2547 48 24C48 10.7452 37.2547 0 24 0C10.7452 0 0 10.7452 0 24C0 37.2547 10.7452 48 24 48ZM9.59965 21.6014C9.59965 24.9151 12.2859 27.6014 15.5997 27.6014L21.5997 33.6014V21.6014C21.5997 18.2877 18.9134 15.6014 15.5997 15.6014C12.2859 15.6014 9.59965 18.2877 9.59965 21.6014ZM31.1993 27.6014C27.8856 27.6014 25.1993 24.9151 25.1993 21.6014C25.1993 18.2877 27.8856 15.6014 31.1993 15.6014C34.513 15.6014 37.1993 18.2877 37.1993 21.6014V33.6014L31.1993 27.6014Z" fill="black"/>
</svg>
