<svg width="60" height="47" viewBox="0 0 60 47" fill="none" xmlns="http://www.w3.org/2000/svg">
<rect x="6" width="48" height="47" rx="23.5" fill="black"/>
<g clip-path="url(#clip0_3806_1525)">
<path d="M10 44L12.8271 33.7338C11.0793 30.7205 10.1624 27.308 10.1719 23.8194C10.1719 12.8878 19.1117 4 30.0859 4C35.4155 4 40.4202 6.06274 44.1738 9.80799C47.9369 13.5532 50.0095 18.5342 50 23.8289C50 34.7605 41.0601 43.6483 30.0764 43.6483H30.0668C26.7335 43.6483 23.4575 42.8118 20.5444 41.2338L10 44ZM21.0506 37.6502L21.6523 38.0114C24.1929 39.5133 27.106 40.3023 30.0764 40.3118H30.0859C39.2072 40.3118 46.638 32.9259 46.638 23.8384C46.638 19.4373 44.9188 15.3023 41.7956 12.1844C38.6724 9.06654 34.5081 7.35551 30.0859 7.35551C20.9647 7.34601 13.5339 14.7319 13.5339 23.8194C13.5339 26.9278 14.4031 29.9601 16.0649 32.5837L16.4565 33.211L14.7851 39.2852L21.0506 37.6502Z" fill="black"/>
<path d="M10.6973 43.3061L13.4289 33.3916C11.7383 30.4924 10.8501 27.1939 10.8501 23.8289C10.8596 13.2776 19.4843 4.69391 30.086 4.69391C35.234 4.69391 40.0573 6.69011 43.6867 10.3023C47.3162 13.9144 49.3123 18.7243 49.3123 23.8384C49.3123 34.3897 40.6781 42.9734 30.086 42.9734H30.0764C26.8577 42.9734 23.6963 42.1654 20.8883 40.6445L10.6973 43.3061Z" fill="#FFFFB6"/>
<path d="M10 44L12.8271 33.7338C11.0793 30.7205 10.1624 27.308 10.1719 23.8194C10.1719 12.8878 19.1117 4 30.0859 4C35.4155 4 40.4202 6.06274 44.1738 9.80799C47.9369 13.5532 50.0095 18.5342 50 23.8289C50 34.7605 41.0601 43.6483 30.0764 43.6483H30.0668C26.7335 43.6483 23.4575 42.8118 20.5444 41.2338L10 44ZM21.0506 37.6502L21.6523 38.0114C24.1929 39.5133 27.106 40.3023 30.0764 40.3118H30.0859C39.2072 40.3118 46.638 32.9259 46.638 23.8384C46.638 19.4373 44.9188 15.3023 41.7956 12.1844C38.6724 9.06654 34.5081 7.35551 30.0859 7.35551C20.9647 7.34601 13.5339 14.7319 13.5339 23.8194C13.5339 26.9278 14.4031 29.9601 16.0649 32.5837L16.4565 33.211L14.7851 39.2852L21.0506 37.6502Z" fill="black"/>
<path fill-rule="evenodd" clip-rule="evenodd" d="M25.1097 15.5304C24.7372 14.7034 24.3456 14.6844 23.9922 14.6749C23.7057 14.6654 23.3714 14.6654 23.0371 14.6654C22.7028 14.6654 22.1679 14.789 21.7095 15.2833C21.251 15.7776 19.9712 16.9753 19.9712 19.4183C19.9712 21.8517 21.7572 24.2091 22.0056 24.5418C22.2539 24.8745 25.4535 30.0361 30.506 32.0228C34.7085 33.6768 35.5681 33.3441 36.4755 33.2586C37.3828 33.173 39.4172 32.0608 39.8375 30.9011C40.2482 29.7415 40.2482 28.7529 40.124 28.5437C39.9998 28.3346 39.6655 28.211 39.1689 27.9639C38.6722 27.7167 36.2271 26.519 35.7687 26.3479C35.3102 26.1863 34.976 26.1008 34.6512 26.5951C34.3169 27.0894 33.3618 28.2015 33.0753 28.5342C32.7888 28.8669 32.4927 28.905 31.996 28.6578C31.4994 28.4107 29.8948 27.8878 27.9941 26.1958C26.5137 24.884 25.5108 23.2586 25.2243 22.7643C24.9378 22.27 25.1956 22.0038 25.444 21.7567C25.6636 21.538 25.9406 21.1768 26.189 20.8916C26.4373 20.6065 26.5232 20.3973 26.6856 20.0646C26.848 19.7319 26.7716 19.4468 26.6474 19.1996C26.5232 18.962 25.549 16.5095 25.1097 15.5304Z" fill="black"/>
</g>
<defs>
<clipPath id="clip0_3806_1525">
<rect width="40" height="40" fill="white" transform="translate(10 4)"/>
</clipPath>
</defs>
</svg>
