<svg width="36" height="30" fill="none" xmlns="http://www.w3.org/2000/svg"><path d="M20.7 22H6.3c-1.489 0-2.7-1.346-2.7-3V3c0-1.654 1.211-3 2.7-3h23.4c1.489 0 2.7 1.346 2.7 3v2c0 .552-.403 1-.9 1s-.9-.448-.9-1V3c0-.552-.403-1-.9-1H6.3c-.497 0-.9.448-.9 1v16c0 .552.403 1 .9 1h14.4c.497 0 .9.448.9 1s-.403 1-.9 1zm0 8h-18C1.211 30 0 28.652 0 27v-2c0-.553.403-1 .9-1h19.8c.497 0 .9.447.9 1 0 .551-.403 1-.9 1H1.8v1c0 .551.403 1 .9 1h18c.497 0 .9.447.9 1 0 .551-.403 1-.9 1z" fill="#000"/><path d="M33.3 30h-7.2c-1.489 0-2.7-1.346-2.7-3V11c0-1.654 1.211-3 2.7-3h7.2c1.489 0 2.7 1.346 2.7 3v16c0 1.654-1.212 3-2.7 3zm-7.2-20c-.497 0-.9.448-.9 1v16c0 .552.403 1 .9 1h7.2c.497 0 .9-.448.9-1V11c0-.552-.403-1-.9-1h-7.2z" fill="#000"/><path d="M29.7 26a.854.854 0 01-.636-.295A1.071 1.071 0 0128.8 25c0-.262.095-.522.264-.706A.864.864 0 0129.7 24c.236 0 .47.106.635.294.168.186.265.444.265.706 0 .262-.096.522-.265.706A.864.864 0 0129.7 26z" fill="#000"/></svg>