<svg width="116" height="80" fill="none" xmlns="http://www.w3.org/2000/svg"><path d="M37.533 18.024h41.376v61.443H37.533V18.024z" fill="#1F1F1F"/><path fill-rule="evenodd" clip-rule="evenodd" d="M37 17.492h42.442V80H37V17.492zm1.066 1.065v60.377h40.31V18.557h-40.31z" fill="#fff"/><path d="M39.13 19.623h1.066v59.311h-1.065V19.623zm1.954 0h1.066v59.311h-1.066V19.623zm1.954 0h1.065v59.311h-1.065V19.623zm1.953 0h1.066v59.311H44.99V19.623zm1.953 0h1.066v59.311h-1.066V19.623zm1.954 0h1.065v59.311h-1.065V19.623zm1.953 0h1.066v59.311H50.85V19.623zm1.954 0h1.065v59.311h-1.065V19.623zm1.953 0h1.065v59.311h-1.065V19.623zm1.953 0h1.066v59.311H56.71V19.623zm1.954 0h1.065v59.311h-1.065V19.623zm1.953 0h1.066v59.311h-1.066V19.623zm1.953 0h1.066v59.311H62.57V19.623zm1.954 0h1.065v59.311h-1.065V19.623zm1.953 0h1.066v59.311h-1.066V19.623zm1.954 0h1.065v59.311h-1.065V19.623zm1.953 0h1.066v59.311h-1.066V19.623zm1.953 0h1.066v59.311h-1.066V19.623zm1.954 0h1.066v59.311h-1.066V19.623zm1.953 0h1.066v59.311h-1.066V19.623z" fill="#fff"/><path fill-rule="evenodd" clip-rule="evenodd" d="M59.02 1.065a.355.355 0 00-.355.356v9.677l-1.51.48v1.882l-.71.226v4.184l-.622.198v8.665l-1.065.327v1.408l-1.243.382v1.409l-1.243.381v1.506l-3.197.983v2.835l-1.065.328v4.485l-2.22.688V51.55l-1.065.33v27.054H73.67V51.506l-1.137-.822v-9.545l-2.249-1.627h.064v-3.447l-1.137-.822V32.95l-3.432-2.482.02-.027-1.103-.796v-.855l-1.25-.902v-.854l-1.319-.953V19.27l-.915-.696v-4.218l-.666-.482v-1.826l-1.171-.847V1.42a.355.355 0 00-.355-.355z" fill="#F2EEE3"/><path fill-rule="evenodd" clip-rule="evenodd" d="M56.09 12.681V10.8l1.51-.48v-8.9a1.42 1.42 0 012.84 0v9.235l1.172.848v1.826l.666.481v4.235l.915.695v6.798l1.318.952v.854l1.25.903v.854l1.525 1.101-.02.027 3.01 2.177v2.292l1.138.822v3.494l2.185 1.58v9.545l1.137.822v27.974H43.659v-27.84l1.066-.33V40.68l2.22-.687v-4.486l1.065-.329v-2.835l3.196-.983v-1.506l1.243-.382v-1.408l1.244-.382v-1.408l1.065-.328V17.29l.621-.198v-4.184l.71-.226z" fill="#F5F5F5"/><path fill-rule="evenodd" clip-rule="evenodd" d="M65.343 45.485l8.327 6.02V80h-.71V51.87l-7.745-5.6-7.4 2.295-.482.168v1.359h-.71v-1.864l.97-.338 7.75-2.404zm-11.952 4.451l-7.956 2.468V80h-.71V51.88l8.456-2.622.21.678z" fill="#000"/><path fill-rule="evenodd" clip-rule="evenodd" d="M64.83 35.568l7.703 5.571v9.65h-.71v-9.287l-7.122-5.15-6.125 1.897v.819h-.71v-1.34l.392-.125 6.571-2.035zm-11.05 3.417v1.592h-.71v-.627l-2.165.674-4.406 1.364V51.5h-.71V41.465l4.905-1.52 3.086-.96z" fill="#000"/><path fill-rule="evenodd" clip-rule="evenodd" d="M63.89 31.395l6.458 4.67v3.448h-.71v-3.085l-5.877-4.25-15.04 4.639v4.294h-.711v-4.819l15.88-4.897z" fill="#000"/><path fill-rule="evenodd" clip-rule="evenodd" d="M63.376 28.732l5.835 4.219v2.388h-.71v-2.025l-5.254-3.8-13.462 4.14v2.396h-.71v-2.921l14.301-4.397z" fill="#000"/><path fill-rule="evenodd" clip-rule="evenodd" d="M61.955 27.666l3.844 2.776-.417.576-3.556-2.569-8.844 2.716v1.51h-.71V30.64l9.683-2.974z" fill="#000"/><path fill-rule="evenodd" clip-rule="evenodd" d="M61.417 26.423l3.279 2.369v1.226h-.71v-.863l-2.698-1.949-7.063 2.17v1.168h-.71V28.85l7.902-2.427z" fill="#000"/><path fill-rule="evenodd" clip-rule="evenodd" d="M61.417 26.423l3.132 2.262-.416.576-2.845-2.055-7.063 2.17v1.345h-.71v-1.87l7.902-2.428z" fill="#000"/><path fill-rule="evenodd" clip-rule="evenodd" d="M60.878 25.18l2.568 1.855v.977h-.71v-.614l-1.987-1.435-5.28 1.622v1.005h-.711v-1.53l6.12-1.88z" fill="#000"/><path d="M66.39 48.746l.71.533V80h-.71V48.746zm-.71-10.272l.71.533v7.37l-.71-.533v-7.37zm-7.636-20.716h-.71v8.746l.71-.222v-8.524zm9.233 21.871l.71.532v7.37l-.71-.533v-7.37zM58.665 1.42a.355.355 0 01.71 0v10.123a.355.355 0 01-.71 0V1.42zm10.211 39.363l.71.533v7.37l-.71-.533v-7.37zm-8.791-22.67h.71v7.77l-.71.221v-7.99zm4.795 15.744l.71.533v2.042l-.71-.532v-2.043zm1.598 1.155l.71.532v2.043l-.71-.533v-2.042zm1.599 1.154l.71.533v2.042l-.71-.533v-2.042zm-4.085-5.239l.71.533v1.154l-.71-.532v-1.155zm1.598 1.154l.71.533v1.155l-.71-.533v-1.154zm1.599 1.155l.71.533v1.154l-.71-.533v-1.154zm3.285 8.701l.71.533v7.37l-.71-.533v-7.37zm-5.86 3.79l.71-.222V80h-.71V45.727zm3.374 4.173l.71.533V80h-.71V49.9zm1.598 1.154l.71.533V80h-.71V51.054zm-10.033-1.598l-.71.222v1.332l.71-.222v-1.332zm0 1.909l-.71.222v1.332l.71-.222v-1.332zm0 1.909l-.71.222v1.332l.71-.222v-1.332zm0 1.909l-.71.222v1.332l.71-.222v-1.332zm0 1.909l-.71.222v1.332l.71-.222v-1.332zm0 1.909l-.71.222v1.332l.71-.222V59zm0 1.909l-.71.222v1.332l.71-.222V60.91zm0 1.91l-.71.221v1.332l.71-.222v-1.332zm0 1.908l-.71.222v1.332l.71-.222v-1.332zm0 1.909l-.71.222v1.332l.71-.222v-1.332zm0 1.909l-.71.222V70.1l.71-.222v-1.332zm0 1.909l-.71.222v1.332l.71-.222v-1.332zm0 1.909l-.71.222v1.332l.71-.222v-1.332zm0 1.909l-.71.222v1.332l.71-.222v-1.332zm0 1.909l-.71.222v1.332l.71-.222v-1.332zm0 1.909l-.71.222v1.332l.71-.222V78.09zm-4.085-42.486l-.71.222v1.332l.71-.222v-1.332zm0 1.909l-.71.222v1.332l.71-.222v-1.332zm0 1.909l-.71.222v1.332l.71-.222v-1.332zm0 1.909l-.71.222v1.332l.71-.222v-1.332zm0 1.908l-.71.223v1.332l.71-.222V43.24zm0 1.91l-.71.222v1.331l.71-.222V45.15zm0 1.909l-.71.222v1.332l.71-.222v-1.332zm0 1.909l-.71.222v1.332l.71-.222v-1.332zm0 1.909l-.71.222v1.332l.71-.222v-1.332zm0 1.909l-.71.222v1.332l.71-.222v-1.332zm0 1.909l-.71.222v1.332l.71-.222v-1.332zm0 1.909l-.71.222v1.332l.71-.222v-1.332zm0 1.909l-.71.222v1.331l.71-.222v-1.331zm0 1.909l-.71.222v1.332l.71-.222v-1.332zm0 1.908l-.71.223v1.332l.71-.222V62.33zm0 1.91l-.71.222v1.332l.71-.222V64.24zm0 1.909l-.71.222v1.332l.71-.222v-1.332zm0 1.909l-.71.222v1.331l.71-.222v-1.331zm0 1.909l-.71.222v1.331l.71-.222v-1.331zm0 1.909l-.71.222v1.332l.71-.222v-1.332zm0 1.909l-.71.222v1.331l.71-.221v-1.332zm0 1.909l-.71.222v1.331l.71-.222v-1.331zm0 1.909l-.71.222v1.331l.71-.222v-1.331zm-1.687-41.465l-.71.222v1.331l.71-.222v-1.331zm0 1.909l-.71.222V39.6l.71-.221v-1.332zm3.374-2.975l-.71.222v1.332l.71-.222v-1.332zm0 1.909l-.71.222v1.332l.71-.222V36.98zm0 1.909l-.71.222v1.332l.71-.222V38.89zm0 1.91l-.71.221v1.332l.71-.222v-1.332zm0 1.908l-.71.222v1.332l.71-.222v-1.332zm0 1.909l-.71.222v1.332l.71-.222v-1.332zm0 1.909l-.71.222v1.332l.71-.222v-1.332zm0 1.909l-.71.222v1.332l.71-.222v-1.332zm0 1.909l-.71.222v1.332l.71-.222v-1.332zm0 1.909l-.71.222v1.332l.71-.222v-1.332zm0 1.909l-.71.222v1.332l.71-.222v-1.332zm0 1.909l-.71.222v1.332l.71-.222V56.07zm0 1.909l-.71.222v1.332l.71-.222V57.98zm0 1.909l-.71.222v1.332l.71-.222v-1.332zm0 1.909l-.71.222v1.332l.71-.222v-1.332zm0 1.909l-.71.222v1.332l.71-.222v-1.332zm0 1.909l-.71.222v1.332l.71-.222v-1.332zm0 1.909l-.71.222v1.332l.71-.222v-1.332zm0 1.909l-.71.222v1.332l.71-.222v-1.332zm0 1.909l-.71.222v1.332l.71-.222v-1.332zm0 1.909l-.71.222v1.332l.71-.222v-1.332zm0 1.908l-.71.223v1.332l.71-.222V75.16zm0 1.91l-.71.222v1.332l.71-.222V77.07zm1.776-42.53l-.71.221v1.332l.71-.222V34.54zm0 1.909l-.71.221v1.332l.71-.222v-1.33zm1.687-2.442l-.71.222v3.107l.71-.222v-3.107z" fill="#000"/><path d="M58.931 34.54l-.71.221v3.108l.71-.222v-3.108zm-1.776.532l-.71.222v3.108l.71-.222v-3.108zm-1.687.533l-.71.222v3.108l.71-.222v-3.108zm-1.687.533l-.71.222v3.107l.71-.222v-3.107zm5.15-4.44l-.71.222v1.776l.71-.222v-1.776zm-1.776.533l-.71.222v1.864l.71-.221V32.23zm-1.687.533l-.71.222v1.776l.71-.223v-1.775zm-1.687.532l-.71.222v1.776l.71-.222v-1.776zm-1.687 3.285l-.71.222v3.108l.71-.222v-3.108zm-1.687.444l-.71.222v3.108l.71-.222v-3.108zm11.898-3.462l-.71.222v3.107l.71-.222v-3.107z" fill="#000"/><path d="M52.094 36.581l-.71.222v3.108l.71-.222v-3.108zm-1.687.444l-.71.222v3.108l.71-.222v-3.108zm10.211-5.86l-.71.222v1.687l.71-.222v-1.687zm-8.524 2.575l-.71.222v1.865l.71-.222V33.74zm-4.439 19.385l-.71.222v1.332l.71-.222v-1.332zm0 1.909l-.71.222v1.331l.71-.222v-1.331zm0 1.909l-.71.222v1.332l.71-.222v-1.332zm0 1.909l-.71.222v1.332l.71-.222v-1.332zm0 1.908l-.71.223v1.332l.71-.222V60.76zm0 1.91l-.71.222v1.331l.71-.222V62.67zm0 1.909l-.71.222v1.331l.71-.222v-1.33zm0 1.909l-.71.222v1.332l.71-.222v-1.332zm0 1.909l-.71.222v1.332l.71-.222v-1.332zm0 1.909l-.71.222v1.331l.71-.221v-1.332zm0 1.909l-.71.222v1.331l.71-.222v-1.331zm0 1.909l-.71.222v1.332l.71-.222v-1.332zm0 1.908l-.71.222v1.332l.71-.222v-1.332zm0 1.91l-.71.222v1.332l.71-.222v-1.332zm13.674-29.045l-.71.222v1.332l.71-.222v-1.332zm0 1.909l-.71.222v1.331l.71-.221v-1.332zm0 1.909l-.71.222v1.332l.71-.222v-1.332zm0 1.909l-.71.222v1.332l.71-.222v-1.332zm0 1.909l-.71.222v1.331l.71-.221v-1.332zm0 1.909l-.71.222v1.331l.71-.221v-1.332zm0 1.908l-.71.223v1.331l.71-.222v-1.331zm0 1.91l-.71.221v1.332l.71-.222V62.26zm0 1.909l-.71.222v1.331l.71-.221v-1.332zm0 1.909l-.71.222v1.332l.71-.223v-1.331zm0 1.909l-.71.222v1.331l.71-.222v-1.331zm0 1.908l-.71.223v1.331l.71-.222v-1.332zm0 1.91l-.71.222v1.332l.71-.222v-1.332zm0 1.909l-.71.222v1.331l.71-.221v-1.332zm0 1.909l-.71.221v1.332l.71-.222v-1.331zm0 1.909l-.71.222v1.332l.71-.222v-1.332zM49.43 52.565l-.71.222v1.332l.71-.222v-1.332zm0 1.909l-.71.222v1.332l.71-.222v-1.332zm0 1.909l-.71.222v1.332l.71-.222v-1.332zm0 1.909l-.71.222v1.332l.71-.222v-1.332zm0 1.909l-.71.222v1.332l.71-.222v-1.332zm0 1.909l-.71.222v1.332l.71-.222V62.11zm0 1.91l-.71.221v1.332l.71-.222V64.02zm0 1.908l-.71.222v1.332l.71-.222v-1.332zm0 1.909l-.71.222v1.332l.71-.222v-1.332zm0 1.909l-.71.222V71.3l.71-.222v-1.332zm0 1.909l-.71.222v1.332l.71-.222v-1.332zm0 1.909l-.71.222v1.332l.71-.222v-1.332zm0 1.909l-.71.222v1.332l.71-.222v-1.332zm0 1.909l-.71.222v1.332l.71-.222v-1.332zm13.675-29.036l-.71.222V49.9l.71-.222v-1.332zm0 1.909l-.71.222v1.332l.71-.222v-1.332zm0 1.909l-.71.222v1.332l.71-.222v-1.332zm0 1.909l-.71.222v1.332l.71-.222v-1.332zm0 1.909l-.71.222v1.332l.71-.222v-1.332zm0 1.909l-.71.222v1.332l.71-.222v-1.332zm0 1.909l-.71.222v1.332l.71-.222V59.8zm0 1.91l-.71.221v1.332l.71-.222V61.71zm0 1.908l-.71.222v1.332l.71-.222v-1.332zm0 1.909l-.71.222v1.332l.71-.222v-1.332zm0 1.909l-.71.222v1.332l.71-.222v-1.332zm0 1.909l-.71.222V70.9l.71-.222v-1.332zm0 1.909l-.71.222v1.332l.71-.222v-1.332zm0 1.909l-.71.222v1.332l.71-.222v-1.332zm0 1.909l-.71.222v1.332l.71-.222v-1.332zm0 1.909l-.71.222v1.332l.71-.222V76.98zM51.206 52.015l-.71.222v1.332l.71-.222v-1.332zm0 1.909l-.71.222v1.332l.71-.222v-1.332zm0 1.909l-.71.222v1.332l.71-.222v-1.332zm0 1.909l-.71.222v1.332l.71-.222v-1.332zm0 1.908l-.71.223v1.332l.71-.222V59.65zm0 1.91l-.71.222v1.332l.71-.222V61.56zm0 1.909l-.71.222v1.332l.71-.222v-1.332zm0 1.909l-.71.222v1.332l.71-.222v-1.332zm0 1.909l-.71.222v1.332l.71-.222v-1.332zm0 1.909l-.71.222v1.332l.71-.222v-1.332zm0 1.909l-.71.222v1.332l.71-.222v-1.332zm0 1.909l-.71.222v1.331l.71-.221v-1.332zm0 1.909l-.71.222v1.332l.71-.222v-1.332zm0 1.909l-.71.222v1.332l.71-.222v-1.332zm0 1.908l-.71.223v.977l.71-.222v-.977zm19.978-26.531l.71.532V80h-.71V52.209zm-14.561-3.907l.71-.222V80h-.71V48.302zm-3.907 1.288l.71-.223V80h-.71V49.59zm.71 0l.71-.223v30.588h-.71V49.59z" fill="#000"/><path d="M52.36 39.778l.711-.222v10.255h-.71V39.778zm.711 0l.71-.222v10.255h-.71V39.778zm4.795-1.776l.71-.222v10.255h-.71V38.002zm6.126-1.953l.71-.222v10.255h-.71V36.05zm-.887-4.262l.71-.222v4.928h-.71v-4.706z" fill="#000"/><path d="M62.572 29.123l.71-.222v3.152h-.71v-2.93zM49.786 42.32l-.71.222v1.332l.71-.222v-1.331zm0 1.91l-.71.222v1.332l.71-.222V44.23zm0 1.909l-.71.222v1.332l.71-.222v-1.332zm0 1.909l-.71.222v1.332l.71-.222v-1.332zm11.898-9.456l-.71.221v1.332l.71-.222v-1.331zm0 1.908l-.71.222v1.332l.71-.222v-1.331zm0 1.91l-.71.222v1.332l.71-.222V42.41zm0 1.908l-.71.222v1.332l.71-.222v-1.332zm-13.319-1.553l-.71.222v1.331l.71-.221v-1.332zm0 1.909l-.71.222v1.331l.71-.222v-1.331zm0 1.909l-.71.221v1.332l.71-.222v-1.331zm0 1.909l-.71.222v1.331l.71-.221v-1.332zm11.898-9.457l-.71.222v1.332l.71-.222v-1.332zm0 1.909l-.71.222v1.332l.71-.222v-1.332zm0 1.909l-.71.222v1.332l.71-.222v-1.332zm0 1.91l-.71.221v1.332l.71-.222v-1.331zm-9.057-2.931l-.71.222v1.332l.71-.222v-1.332zm0 1.91l-.71.221v1.332l.71-.222v-1.331zm0 1.908l-.71.222v1.332l.71-.222V45.65zm0 1.91l-.71.221v1.332l.71-.222V47.56zm11.899-9.398l-.71.222v1.332l.71-.222v-1.332zm0 1.909l-.71.222v1.332l.71-.222V40.07zm0 1.909l-.71.222v1.332l.71-.222V41.98zm0 1.909l-.71.222v1.332l.71-.222v-1.332z" fill="#000"/><path fill-rule="evenodd" clip-rule="evenodd" d="M59.153 17.009l2.975 2.26v7.324h-.71V19.62l-1.978-1.5v7.86h-.71v-8.09l-2.196.698v8.317h-.71v-8.836l3.33-1.06z" fill="#000"/><path fill-rule="evenodd" clip-rule="evenodd" d="M59.114 14.88l2.098 1.517v2.297h-.71V16.76l-1.096-.793v1.519h-.71v-1.728l-1.54.49v1.954h-.711v-2.474l2.669-.849z" fill="#000"/><path fill-rule="evenodd" clip-rule="evenodd" d="M59.114 12.837l2.098 1.518v2.652h-.71v-2.29l-1.096-.792v3.294h-.71v-3.504l-1.54.49v3.73h-.711v-4.249l2.669-.85z" fill="#000"/><path fill-rule="evenodd" clip-rule="evenodd" d="M59.06 10.972l1.487 1.075v2.382l-1.59-.916-1.802.573V11.58l1.906-.607zm.293 1.95l.483.278v-.79l-.483-.35v.862zm-.71-1.071v1.016l-.777.248v-1.017l.777-.247z" fill="#000"/><path d="M4 51h112l-4 19H0l4-19z" fill="#fff"/><mask id="a" maskUnits="userSpaceOnUse" x="5.297" y="54.956" width="104.287" height="10.76" fill="#000"><path fill="#fff" d="M5.297 54.956h104.287v10.76H5.297z"/><path d="M13.481 55.837l-.027.127H9.359l-.81 3.815h3.795l-.027.127H8.521l-1 4.705h4.381l-.027.127h-5.46l1.892-8.901h5.174zm1.818 8.9h-.169l3.023-8.9h.43l.98 8.227 4.466-8.227h.43l-.762 8.9h-1.079l.617-7.12-3.867 7.12h-.819l-.884-7.031-2.366 7.032zm14.038-8.799a40.886 40.886 0 012.673-.101c2.15 0 3.067.741 2.751 2.225a3.793 3.793 0 01-.93 1.806c-.25.28-.592.504-1.027.673-.433.162-.93.242-1.494.242h-1.924l-.84 3.955h-1.08l1.87-8.8zm2.66.026c-.503 0-1.038.03-1.605.089l-.979 4.603h1.924c1.233-.05 2.026-.907 2.379-2.569.144-.678.073-1.2-.214-1.564-.284-.373-.786-.56-1.506-.56zm11.434.407a5.63 5.63 0 00-2.141-.445c-.693 0-1.266.144-1.717.432a1.82 1.82 0 00-.839 1.195c-.132.62.096 1.098.683 1.437.264.144.555.28.875.407.33.119.657.254.98.407.322.153.61.326.864.521.253.195.434.467.542.814.11.34.108.776-.006 1.31a2.596 2.596 0 01-.741 1.348 3.027 3.027 0 01-1.267.763 5.67 5.67 0 01-1.536.19c-1.066 0-1.92-.258-2.565-.775l.087-.102c.239.22.568.403.989.547.43.135.883.203 1.36.203.702 0 1.334-.157 1.894-.47.571-.322.923-.793 1.054-1.412.144-.678-.072-1.208-.65-1.59a6.122 6.122 0 00-.875-.47 77.496 77.496 0 01-.958-.445 5.31 5.31 0 01-.862-.534c-.568-.424-.77-1.026-.604-1.805.132-.62.45-1.12.956-1.5.508-.39 1.186-.586 2.035-.586.858 0 1.699.144 2.521.432l-.079.128zm4.746 8.367h-1.079l1.865-8.774h-2.249l.027-.127h5.59l-.027.127h-2.262l-1.865 8.774zm4.11 0h-.156l5.78-8.901.156-.064 1.37 8.965h-1.105l-.419-2.798h-3.796l-1.83 2.798zm4.928-7.528l-3.019 4.603h3.705l-.686-4.603zm7.367 7.528h-1.079l1.865-8.774H63.12l.027-.127h5.59l-.027.127h-2.262l-1.865 8.774zm12.581-8.901l-.027.127h-4.095l-.81 3.815h3.795l-.027.127h-3.796l-1 4.705h4.381l-.027.127h-5.46l1.892-8.901h5.174zm13.057 0c.13.16.169.368.115.623a1.951 1.951 0 01-.28.648l-4.69 7.63-.157.063-.584-5.328-3.238 5.265-.156.063-.98-8.964h1.104l.727 7.527 2.522-4.094-.376-3.433h1.105l.727 7.527 3.84-6.256a1.91 1.91 0 00.283-.661c.048-.229.021-.407-.082-.534l.12-.076zm8.668 0l-.028.127h-4.094l-.811 3.815h3.796l-.027.127h-3.796l-1 4.705h4.38l-.027.127h-5.46l1.892-8.901h5.175zm3.584.101a41.035 41.035 0 012.687-.101c2.14 0 3.062.699 2.765 2.098a2.62 2.62 0 01-.758 1.36c-.391.373-.943.628-1.657.763.643.077 1.121.272 1.436.585.315.314.389.86.223 1.64-.348 1.637-1.592 2.455-3.732 2.455h-2.834l1.87-8.8zm-.764 8.673h1.755c.771 0 1.358-.195 1.762-.585.414-.399.707-1.005.88-1.819.173-.813.124-1.356-.148-1.627-.271-.272-.73-.416-1.377-.433h-1.924l-.948 4.464zm3.424-8.647c-.503 0-1.038.03-1.605.089l-.844 3.967h1.924c1.233-.05 1.99-.737 2.271-2.06.137-.644.06-1.136-.232-1.475-.29-.347-.795-.521-1.514-.521z"/></mask><path d="M13.481 55.837l-.027.127H9.359l-.81 3.815h3.795l-.027.127H8.521l-1 4.705h4.381l-.027.127h-5.46l1.892-8.901h5.174zm1.818 8.9h-.169l3.023-8.9h.43l.98 8.227 4.466-8.227h.43l-.762 8.9h-1.079l.617-7.12-3.867 7.12h-.819l-.884-7.031-2.366 7.032zm14.038-8.799a40.886 40.886 0 012.673-.101c2.15 0 3.067.741 2.751 2.225a3.793 3.793 0 01-.93 1.806c-.25.28-.592.504-1.027.673-.433.162-.93.242-1.494.242h-1.924l-.84 3.955h-1.08l1.87-8.8zm2.66.026c-.503 0-1.038.03-1.605.089l-.979 4.603h1.924c1.233-.05 2.026-.907 2.379-2.569.144-.678.073-1.2-.214-1.564-.284-.373-.786-.56-1.506-.56zm11.434.407a5.63 5.63 0 00-2.141-.445c-.693 0-1.266.144-1.717.432a1.82 1.82 0 00-.839 1.195c-.132.62.096 1.098.683 1.437.264.144.555.28.875.407.33.119.657.254.98.407.322.153.61.326.864.521.253.195.434.467.542.814.11.34.108.776-.006 1.31a2.596 2.596 0 01-.741 1.348 3.027 3.027 0 01-1.267.763 5.67 5.67 0 01-1.536.19c-1.066 0-1.92-.258-2.565-.775l.087-.102c.239.22.568.403.989.547.43.135.883.203 1.36.203.702 0 1.334-.157 1.894-.47.571-.322.923-.793 1.054-1.412.144-.678-.072-1.208-.65-1.59a6.122 6.122 0 00-.875-.47 77.496 77.496 0 01-.958-.445 5.31 5.31 0 01-.862-.534c-.568-.424-.77-1.026-.604-1.805.132-.62.45-1.12.956-1.5.508-.39 1.186-.586 2.035-.586.858 0 1.699.144 2.521.432l-.079.128zm4.746 8.367h-1.079l1.865-8.774h-2.249l.027-.127h5.59l-.027.127h-2.262l-1.865 8.774zm4.11 0h-.156l5.78-8.901.156-.064 1.37 8.965h-1.105l-.419-2.798h-3.796l-1.83 2.798zm4.928-7.528l-3.019 4.603h3.705l-.686-4.603zm7.367 7.528h-1.079l1.865-8.774H63.12l.027-.127h5.59l-.027.127h-2.262l-1.865 8.774zm12.581-8.901l-.027.127h-4.095l-.81 3.815h3.795l-.027.127h-3.796l-1 4.705h4.381l-.027.127h-5.46l1.892-8.901h5.174zm13.057 0c.13.16.169.368.115.623a1.951 1.951 0 01-.28.648l-4.69 7.63-.157.063-.584-5.328-3.238 5.265-.156.063-.98-8.964h1.104l.727 7.527 2.522-4.094-.376-3.433h1.105l.727 7.527 3.84-6.256a1.91 1.91 0 00.283-.661c.048-.229.021-.407-.082-.534l.12-.076zm8.668 0l-.028.127h-4.094l-.811 3.815h3.796l-.027.127h-3.796l-1 4.705h4.38l-.027.127h-5.46l1.892-8.901h5.175zm3.584.101a41.035 41.035 0 012.687-.101c2.14 0 3.062.699 2.765 2.098a2.62 2.62 0 01-.758 1.36c-.391.373-.943.628-1.657.763.643.077 1.121.272 1.436.585.315.314.389.86.223 1.64-.348 1.637-1.592 2.455-3.732 2.455h-2.834l1.87-8.8zm-.764 8.673h1.755c.771 0 1.358-.195 1.762-.585.414-.399.707-1.005.88-1.819.173-.813.124-1.356-.148-1.627-.271-.272-.73-.416-1.377-.433h-1.924l-.948 4.464zm3.424-8.647c-.503 0-1.038.03-1.605.089l-.844 3.967h1.924c1.233-.05 1.99-.737 2.271-2.06.137-.644.06-1.136-.232-1.475-.29-.347-.795-.521-1.514-.521z" fill="#000"/><path d="M13.481 55.837h.2l.042-.196h-.2l-.042.196zm-.027.127l-.042.195h.2l.042-.195h-.2zm-4.095 0l.042-.196h-.2l-.042.196h.2zm-.81 3.815h-.2l-.042.195h.2l.041-.195zm3.795 0h.2l.042-.196h-.2l-.042.196zm-.027.127l-.041.195h.2l.041-.195h-.2zm-3.796 0l.042-.196h-.2l-.042.196h.2zm-1 4.705h-.2l-.041.195h.2l.041-.195zm4.381 0h.2l.042-.196h-.2l-.042.196zm-.027.127l-.041.195h.2l.041-.195h-.2zm-5.46 0h-.2l-.042.195h.2l.042-.195zm1.892-8.901l.042-.196h-.2l-.042.196h.2zm4.974 0l-.027.127h.4l.027-.127h-.4zm.215-.069H9.4l-.084.391h4.095l.084-.39zm-4.337.196l-.81 3.815h.4l.81-3.815h-.4zm-.652 4.01h3.796l.083-.391H8.59l-.083.391zm3.637-.195l-.027.127h.4l.027-.127h-.4zm.215-.069H8.563l-.083.391h3.796l.083-.39zm-4.038.196l-1 4.705h.4l1-4.705h-.4zm-.841 4.9h4.38l.084-.391H7.563l-.083.391zm4.222-.195l-.027.127h.4l.027-.127h-.4zm.215-.069h-5.46l-.084.391h5.46l.084-.39zm-5.302.196l1.892-8.901h-.4l-1.892 8.9h.4zm1.65-8.706h5.175l.083-.391H8.349l-.084.391zm7.034 8.706l-.041.195h.177l.058-.172-.194-.023zm-.169 0l-.193-.024-.075.22h.227l.041-.196zm3.023-8.901l.042-.196h-.177l-.058.172.193.024zm.43 0l.202-.06-.016-.136h-.145l-.042.196zm.98 8.227l-.203.06.069.575.312-.575-.178-.06zm4.466-8.227l.042-.196h-.146l-.073.136.177.06zm.43 0l.203-.025.014-.171H24.5l-.042.196zm-.762 8.9l-.041.196h.226l.019-.22-.204.025zm-1.079 0l-.203.025-.015.171h.177l.041-.195zm.617-7.12l.203-.024-.38-.036.177.06zm-3.867 7.12l-.041.196h.145l.074-.135-.178-.06zm-.819 0l-.203.062.017.134h.145l.041-.195zm-.884-7.031l.203-.062-.397.038.194.024zm-2.324 6.836h-.17l-.082.391h.169l.083-.39zm-.018.22l3.023-8.901-.386-.048-3.023 8.9.386.049zm2.789-8.73h.429l.083-.391h-.43l-.082.391zm.267-.135l.981 8.227.407-.12-.982-8.228-.406.121zm1.362 8.227l4.466-8.227-.355-.12-4.466 8.227.355.12zm4.247-8.092h.429l.083-.391h-.43l-.082.391zm.267-.171l-.761 8.9.407-.047.76-8.901-.407.048zm-.516 8.681h-1.08l-.082.391h1.079l.083-.39zm-.917.172l.616-7.121-.407.048-.616 7.12.407-.047zm.235-7.157l-3.866 7.12.355.12 3.866-7.12-.355-.12zm-3.647 6.985h-.82l-.082.391h.819l.083-.39zm-.658.134l-.884-7.032-.406.123.884 7.032.406-.123zm-1.28-6.994l-2.366 7.032.387.047 2.365-7.032-.387-.047zm11.865-1.744l.027-.195-.188.013-.04.182h.2zm4.495 3.93l-.142-.111-.002.002.144.109zm-1.028.673l.038.181.004-.001-.042-.18zm-3.418.242l.042-.196h-.2l-.042.196h.2zm-.84 3.955l-.042.195h.2l.041-.195h-.2zm-1.08 0h-.2l-.041.195h.2l.041-.195zm2.925-8.685l.02-.195-.182.02-.037.175h.2zm-.978 4.603h-.2l-.041.196h.2l.041-.196zm1.924 0l-.042.196h.009l.033-.196zm2.165-4.133l-.173.135.001.002.172-.137zm-4.193-.39a40.727 40.727 0 012.66-.1l.083-.392c-.768 0-1.665.034-2.688.102l-.055.39zm2.66-.1c1.057 0 1.775.183 2.192.52.406.328.547.82.4 1.509h.4c.17-.794.01-1.415-.502-1.829-.5-.405-1.315-.592-2.407-.592l-.083.391zm2.592 2.029a3.554 3.554 0 01-.87 1.695l.282.221a4.032 4.032 0 00.988-1.916h-.4zm-.873 1.697c-.215.241-.519.445-.925.603l.083.359c.463-.18.844-.426 1.129-.745l-.287-.217zm-.922.602c-.4.149-.87.227-1.414.227l-.084.39c.582 0 1.108-.082 1.574-.256l-.076-.361zm-1.414.227h-1.924l-.084.39h1.924l.084-.39zm-2.166.195l-.84 3.955h.4l.84-3.955h-.4zm-.599 3.76h-1.079l-.083.39h1.079l.083-.39zm-.92.195l1.87-8.8h-.4l-1.87 8.8h.4zm4.371-8.97c-.51 0-1.053.03-1.627.09l-.04.39a15.24 15.24 0 011.584-.089l.083-.39zm-1.846.285l-.979 4.603h.4l.979-4.603h-.4zm-.82 4.799h1.924l.083-.392h-1.924l-.083.392zm1.932 0c.669-.028 1.243-.278 1.693-.764.44-.476.739-1.152.919-2h-.4c-.173.812-.447 1.395-.8 1.776-.343.37-.782.573-1.346.597l-.066.39zm2.612-2.765c.151-.712.082-1.289-.241-1.7l-.345.273c.25.317.323.783.186 1.427h.4zm-.24-1.699c-.324-.424-.885-.62-1.638-.62l-.083.391c.685 0 1.128.178 1.374.5l.347-.27zm9.755-.017l-.11.182.17.07.11-.18-.17-.072zm-3.858-.013l-.087-.156.087.156zm-.156 2.632l-.13.173.003.002.127-.175zm.875.407l-.11.183.006.002.104-.185zm.98.407l.118-.18-.118.18zm1.406 1.335l-.197.09v.001l.197-.09zm-.747 2.658l.13.122-.13-.122zm-1.267.763l.018.187h.003l-.021-.187zm-4.1-.585l-.148-.104-.134.157.132.107.15-.16zm.086-.102l.156-.154-.146-.135-.158.185.148.104zm.988.547l-.101.186.004.001.097-.187zm3.255-.267l.074.164h.001l-.075-.164zm.404-3.001l.138-.169-.138.169zm-.875-.47l-.116.18h.001l.115-.18zm-.958-.446l-.122.178.003.002.119-.18zm-.862-.534l.147-.162-.002-.001-.145.163zm.352-3.306l.105.144.002-.001-.107-.143zm4.556-.153l.17.073.12-.192-.187-.066-.103.185zm.032-.055a5.811 5.811 0 00-2.21-.458l-.084.391c.673 0 1.364.142 2.073.432l.221-.365zm-2.21-.458c-.72 0-1.341.15-1.846.472l.174.312c.398-.254.92-.393 1.588-.393l.084-.391zm-1.846.472a2.073 2.073 0 00-.952 1.351h.4a1.57 1.57 0 01.726-1.039l-.174-.312zm-.952 1.351c-.15.706.12 1.245.753 1.61l.26-.346c-.541-.312-.726-.732-.613-1.264h-.4zm.756 1.612c.27.148.568.286.893.415l.218-.366a7.84 7.84 0 01-.858-.399l-.253.35zm.898.417c.325.117.647.25.965.401l.237-.358a11.158 11.158 0 00-.994-.413l-.208.37zm.965.401c.314.148.592.317.836.504l.293-.324a4.86 4.86 0 00-.892-.538l-.237.358zm.836.504c.227.175.392.42.492.741l.394-.178a1.735 1.735 0 00-.593-.887l-.293.324zm.492.743c.098.302.1.705-.009 1.219h.4c.118-.554.124-1.025.002-1.4l-.393.181zm-.009 1.219a2.353 2.353 0 01-.672 1.226l.262.244c.421-.412.69-.905.81-1.47h-.4zm-.672 1.226a2.763 2.763 0 01-1.158.698l.043.373a3.293 3.293 0 001.377-.827l-.262-.244zm-1.155.698a5.46 5.46 0 01-1.475.182l-.083.391c.586 0 1.119-.065 1.595-.2l-.037-.373zm-1.475.182c-1.032 0-1.847-.25-2.458-.74l-.298.32c.677.544 1.572.811 2.673.811l.083-.391zm-2.46-.477l.087-.101-.295-.208-.087.102.296.208zm-.217-.051c.259.238.609.43 1.044.579l.203-.372c-.405-.14-.714-.312-.934-.515l-.313.308zm1.048.58c.448.141.92.212 1.417.212l.083-.391c-.457 0-.892-.065-1.305-.195l-.195.374zm1.417.212c.733 0 1.405-.164 2.01-.502l-.149-.328c-.517.29-1.107.439-1.778.439l-.083.391zm2.01-.502c.64-.361 1.035-.895 1.18-1.576h-.4c-.12.557-.426.964-.93 1.248l.15.328zm1.18-1.576c.16-.755-.089-1.345-.713-1.758l-.276.337c.531.35.716.82.588 1.421h.4zm-.714-1.758a6.272 6.272 0 00-.897-.482l-.23.361c.318.141.602.294.853.459l.274-.338zm-.895-.482a76.489 76.489 0 01-.957-.444l-.237.358c.324.153.644.302.96.446l.234-.36zm-.953-.442a5.155 5.155 0 01-.837-.519l-.293.324c.261.202.557.385.886.55l.244-.355zm-.84-.52c-.519-.387-.7-.927-.548-1.642h-.4c-.18.844.042 1.508.66 1.969l.289-.327zm-.548-1.642c.121-.57.41-1.016.86-1.357l-.209-.288c-.56.422-.91.977-1.051 1.645h.4zm.862-1.358c.447-.343 1.066-.532 1.888-.532l.083-.391c-.877 0-1.615.2-2.184.638l.213.285zm1.888-.532c.834 0 1.654.14 2.46.422l.205-.371a7.758 7.758 0 00-2.582-.442l-.083.39zm2.392.164l-.079.127.34.145.08-.127-.34-.145zm4.837 8.567l-.041.195h.2l.041-.195h-.2zm-1.079 0h-.2l-.041.195h.2l.041-.195zm1.865-8.774h.2l.042-.196h-.2l-.042.196zm-2.249 0h-.2l-.041.195h.2l.041-.195zm.027-.127l.042-.196h-.2l-.042.196h.2zm5.59 0h.2l.042-.196h-.2l-.042.196zm-.027.127l-.041.195h.2l.041-.195h-.2zm-2.262 0l.042-.196h-.2l-.042.196h.2zm-1.823 8.578h-1.08l-.082.391h1.079l.083-.39zm-.92.196l1.864-8.774h-.4l-1.865 8.774h.4zm1.706-8.97h-2.25l-.082.391h2.249l.083-.39zm-2.09.196l.026-.127h-.4l-.027.127h.4zm-.215.068h5.59l.083-.391h-5.59l-.083.391zm5.431-.195l-.027.127h.4l.027-.127h-.4zm.215-.069h-2.262L50 56.16h2.262l.083-.39zm-2.504.196l-1.865 8.774h.4l1.865-8.774h-.4zm2.445 8.774l-.041.195h.131l.078-.118-.168-.077zm-.156 0l-.167-.077-.177.272h.303l.041-.195zm5.78-8.901l-.046-.179-.077.032-.045.07.167.077zm.156-.064l.202-.066-.03-.2-.217.088.045.178zm1.37 8.965l-.041.195h.284l-.04-.261-.203.066zm-1.105 0l-.202.065.02.13h.14l.042-.195zm-.419-2.798l.202-.065-.02-.13h-.14l-.042.195zm-3.796 0l.042-.195h-.132l-.077.118.167.077zm3.099-4.73l.202-.065-.07-.47-.3.457.167.078zm-3.02 4.603l-.167-.078-.18.274h.306l.041-.196zm3.705 0l-.042.196h.283l-.039-.261-.202.065zm-5.572 2.73h-.156l-.083.39h.156l.083-.39zm-.03.272l5.779-8.901-.335-.154-5.78 8.9.336.155zm5.656-8.8l.157-.064-.09-.356-.157.063.09.357zm-.09-.176l1.37 8.965.405-.132-1.37-8.965-.405.132zm1.614 8.703h-1.105l-.083.391h1.105l.083-.39zm-.944.13l-.42-2.797-.404.13.419 2.798.405-.13zm-.58-2.927h-3.796l-.084.39h3.796l.084-.39zm-4.005.118l-1.83 2.797.335.155 1.83-2.797-.335-.155zm3.098-4.73l-3.019 4.602.334.156 3.02-4.603-.335-.156zm-2.894 4.876h3.705l.084-.392h-3.705l-.084.392zm3.95-.261l-.686-4.603-.405.13.686 4.603.404-.13zm6.478 2.99l-.041.195h.2l.041-.195h-.2zm-1.079 0h-.2l-.041.195h.2l.041-.195zm1.865-8.774h.2l.042-.196h-.2l-.042.196zm-2.249 0h-.2l-.041.195h.2l.041-.195zm.027-.127l.042-.196h-.2l-.042.196h.2zm5.59 0h.2l.042-.196h-.2l-.042.196zm-.027.127l-.041.195h.2l.041-.195h-.2zm-2.262 0l.042-.196h-.2l-.042.196h.2zm-1.823 8.578h-1.08l-.082.391h1.079l.083-.39zm-.92.196l1.864-8.774h-.4l-1.865 8.774h.4zm1.706-8.97h-2.25l-.082.391h2.249l.083-.39zm-2.09.196l.026-.127h-.4l-.027.127h.4zm-.215.068h5.59l.083-.391h-5.59l-.083.391zm5.431-.195l-.027.127h.4l.027-.127h-.4zm.215-.069h-2.262l-.083.391h2.262l.083-.39zm-2.504.196l-1.865 8.774h.4l1.865-8.774h-.4zm10.916-.127h.2l.042-.196h-.2l-.042.196zm-.027.127l-.041.195h.2l.041-.195h-.2zm-4.095 0l.042-.196h-.2l-.042.196h.2zm-.81 3.815h-.2l-.042.195h.2l.041-.195zm3.795 0h.2l.042-.196h-.2l-.042.196zm-.027.127l-.041.195h.2l.041-.195H76zm-3.796 0l.042-.196h-.2l-.042.196h.2zm-1 4.705h-.2l-.041.195h.2l.041-.195zm4.381 0h.2l.042-.196h-.2l-.042.196zm-.027.127l-.041.195h.2l.041-.195h-.2zm-5.46 0h-.2l-.041.195h.2l.041-.195zm1.892-8.901l.042-.196h-.2l-.042.196h.2zm4.974 0l-.027.127h.4l.027-.127h-.4zm.215-.069h-4.095L73 56.16h4.095l.083-.39zm-4.337.196l-.81 3.815h.4l.81-3.815h-.4zm-.652 4.01h3.796l.083-.391h-3.796l-.083.391zm3.637-.195l-.027.127h.4l.027-.127h-.4zm.215-.069h-3.796l-.083.391h3.796l.083-.39zm-4.038.196l-1 4.705h.4l1-4.705h-.4zm-.841 4.9h4.38l.084-.391h-4.381l-.083.391zm4.222-.195l-.027.127h.4l.027-.127h-.4zm.215-.069h-5.46l-.083.391h5.46l.083-.39zm-5.302.196l1.892-8.901h-.4l-1.892 8.9h.4zm1.65-8.706h5.175l.083-.391H72.03l-.083.391zm18.273-.195l.171-.139-.097-.12-.16.102.086.157zm-.166 1.271l-.168-.076-.003.005.171.071zm-4.69 7.63l.045.178.081-.033.045-.074-.17-.071zm-.156.063l-.203.06.023.21.225-.092-.045-.178zm-.584-5.328l.204-.058-.058-.528-.316.515.17.071zm-3.238 5.265l.045.178.08-.033.046-.074-.17-.071zm-.156.063l-.203.06.023.21.225-.092-.045-.178zm-.98-8.964l.04-.196h-.272l.028.254.203-.058zm1.104 0l.204-.057-.014-.139h-.148l-.042.196zm.727 7.527l-.203.057.052.539.322-.524-.17-.072zm2.522-4.094l.17.072.04-.065-.007-.066-.203.059zm-.376-3.433l.042-.196h-.273l.028.254.203-.058zm1.105 0l.204-.057-.014-.139h-.148l-.042.196zm.727 7.527l-.203.057.052.54.322-.525-.17-.072zm3.84-6.256l-.167-.079-.005.008.171.071zm.201-1.195l-.087-.157-.213.136.13.16.17-.14zm-.05.062c.097.12.13.276.085.485h.4c.064-.3.02-.56-.144-.762l-.342.277zm.085.485a1.72 1.72 0 01-.249.572l.336.152c.156-.241.262-.483.313-.724h-.4zm-.252.577l-4.69 7.63.342.142 4.69-7.63-.342-.142zM85.32 64.56l-.157.063.09.356.156-.063-.09-.356zm.091.183l-.583-5.328-.407.117.584 5.328.406-.117zm-.957-5.341l-3.238 5.264.341.143 3.238-5.264-.341-.143zm-3.112 5.158l-.157.063.09.356.156-.063-.09-.356zm.091.183l-.98-8.965-.407.117.98 8.965.407-.117zm-1.225-8.71h1.105l.083-.392H80.29l-.083.391zm.943-.14l.727 7.528.407-.113-.727-7.528-.407.113zm1.101 7.543l2.521-4.094-.341-.144-2.522 4.095.342.143zm2.554-4.225l-.375-3.433-.407.117.375 3.434.407-.118zm-.62-3.179h1.105l.083-.391h-1.105l-.083.391zm.943-.139l.727 7.528.407-.113-.727-7.528-.407.113zm1.101 7.543l3.84-6.256-.343-.143-3.839 6.256.342.143zm3.834-6.249c.157-.236.263-.484.318-.74h-.4a1.683 1.683 0 01-.25.582l.332.158zm.318-.74c.056-.266.03-.5-.111-.672l-.342.276c.066.081.093.204.053.396h.4zm-.195-.378l.12-.076-.173-.313-.12.076.173.313zm8.7-.232h.2l.042-.196h-.2l-.041.196zm-.026.127l-.042.195h.2l.041-.195h-.2zm-4.096 0l.042-.196h-.2l-.041.196h.2zm-.81 3.815h-.2l-.042.195h.2l.042-.195zm3.796 0h.2l.041-.196h-.2l-.041.196zm-.027.127l-.042.195h.2l.042-.195h-.2zm-3.796 0l.041-.196h-.2l-.041.196h.2zm-1 4.705h-.2l-.042.195h.2l.041-.195zm4.38 0h.2l.042-.196h-.2l-.041.196zm-.027.127l-.041.195h.2l.041-.195h-.2zm-5.46 0h-.2l-.041.195h.2l.041-.195zm1.892-8.901l.042-.196h-.2l-.042.196h.2zm4.975 0l-.028.127h.4l.028-.127h-.4zm.214-.069h-4.095l-.083.391h4.095l.083-.39zm-4.337.196l-.81 3.815h.4l.81-3.815h-.4zm-.652 4.01h3.796l.083-.391h-3.796l-.083.391zm3.638-.195l-.027.127h.4l.027-.127h-.4zm.214-.069H93.97l-.083.391h3.796l.083-.39zm-4.037.196l-1 4.705h.4l1-4.705h-.4zm-.842 4.9h4.381l.083-.391h-4.38l-.084.391zm4.223-.195l-.027.127h.4l.026-.127h-.4zm.214-.069h-5.46l-.083.391h5.46l.083-.39zm-5.301.196l1.891-8.901h-.4l-1.892 8.9h.4zm1.65-8.706h5.174l.083-.391h-5.174l-.083.391zm8.8-.094l.028-.195-.189.013-.039.182h.2zm4.694 3.357l.129.124.002-.001-.131-.123zm-1.657.763l.001-.191-.066.386.065-.195zm1.436.585l.16-.15-.16.15zm-6.343 4.095h-.2l-.042.195h.2l.042-.195zm1.106-.127h-.2l-.042.195h.2l.042-.195zm3.517-.585l-.129-.123h-.001l.13.123zm.732-3.446l.161-.15-.161.15zm-1.377-.433l.047-.195h-.005l-.042.195zm-1.924 0l.042-.195h-.2l-.042.195h.2zm.871-4.094l.019-.195-.182.02-.037.175h.2zm-.844 3.967h-.2l-.041.196h.2l.041-.196zm1.924 0l-.041.196h.008l.033-.196zm2.039-3.535l-.17.14.002.002.168-.142zm-4.202-.352a40.886 40.886 0 012.673-.1l.083-.392c-.777 0-1.677.034-2.7.102l-.056.39zm2.673-.1c1.054 0 1.773.173 2.193.49.407.31.55.77.414 1.412h.4c.16-.756-.008-1.346-.523-1.736-.502-.382-1.315-.558-2.401-.558l-.083.391zm2.607 1.902a2.372 2.372 0 01-.688 1.238l.261.245c.431-.42.706-.917.827-1.483h-.4zm-.686 1.236c-.342.327-.842.565-1.528.696l-.002.383c.741-.14 1.346-.41 1.787-.83l-.257-.248zm-1.594 1.082c.617.073 1.057.258 1.34.54l.321-.3c-.346-.345-.863-.55-1.531-.629l-.13.389zm1.34.54c.26.259.345.734.184 1.49h.4c.171-.803.107-1.421-.263-1.79l-.321.3zm.184 1.49c-.164.774-.531 1.324-1.084 1.687-.564.37-1.357.572-2.407.572l-.083.391c1.091 0 1.99-.207 2.671-.655.691-.454 1.12-1.132 1.303-1.994h-.4zm-3.491 2.26h-2.834l-.083.39h2.834l.083-.39zm-2.675.195l1.87-8.8h-.4l-1.87 8.8h.4zm.864.068h1.755l.083-.391h-1.755l-.083.391zm1.755 0c.801 0 1.462-.202 1.934-.658l-.26-.245c-.335.324-.849.512-1.591.512l-.083.391zm1.933-.657c.466-.449.774-1.108.951-1.942h-.4c-.168.794-.447 1.347-.809 1.696l.258.246zm.951-1.942c.175-.822.145-1.446-.187-1.777l-.321.3c.211.21.28.672.108 1.477h.4zm-.187-1.777c-.312-.311-.821-.46-1.491-.478l-.094.39c.624.017 1.032.156 1.264.387l.321-.299zm-1.496-.478h-1.924l-.083.391h1.924l.083-.391zm-2.166.195l-.948 4.464h.4l.948-4.464h-.4zm2.717-4.379c-.511 0-1.053.03-1.627.09l-.039.39a15.242 15.242 0 011.583-.089l.083-.39zm-1.846.285l-.844 3.967h.4l.844-3.967h-.4zm-.685 4.163h1.924l.083-.392h-1.924l-.083.392zm1.932 0c.654-.027 1.213-.225 1.649-.62.432-.393.709-.948.855-1.636h-.4c-.135.635-.377 1.084-.702 1.379-.321.29-.756.462-1.336.486l-.066.39zm2.504-2.256c.145-.68.069-1.23-.264-1.617l-.336.284c.251.291.329.725.2 1.333h.4zm-.263-1.615c-.33-.396-.892-.577-1.642-.577l-.083.391c.689 0 1.136.167 1.386.466l.339-.28z" fill="#000" mask="url(#a)"/></svg>