<svg width="28" height="28" fill="none" xmlns="http://www.w3.org/2000/svg"><g clip-path="url(#clip0_3806_1509)"><path d="M25.933 0H2.067A2.067 2.067 0 000 2.067v23.866A2.067 2.067 0 002.067 28h23.866A2.067 2.067 0 0028 25.933V2.067A2.067 2.067 0 0025.933 0zM8.346 23.852h-4.21V10.481h4.21v13.371zM6.238 8.627a2.417 2.417 0 112.43-2.415 2.382 2.382 0 01-2.43 2.415zm17.624 15.237h-4.208V16.56c0-2.155-.915-2.82-2.098-2.82-1.248 0-2.473.942-2.473 2.874v7.251h-4.21V10.49h4.049v1.853h.054c.406-.822 1.83-2.228 4.002-2.228 2.349 0 4.886 1.394 4.886 5.477l-.002 8.272z" fill="#C6BAAA"/></g><defs><clipPath id="clip0_3806_1509"><path fill="#fff" d="M0 0h28v28H0z"/></clipPath></defs></svg>