<svg width="28" height="28" fill="none" xmlns="http://www.w3.org/2000/svg"><rect width="28" height="28" rx="3" fill="#C6BAAA"/><path d="M11.438 21.385c6.209 0 9.604-5.145 9.604-9.604 0-.147 0-.294-.007-.434a6.915 6.915 0 001.687-1.75 6.851 6.851 0 01-1.94.532 3.374 3.374 0 001.485-1.87 6.835 6.835 0 01-2.142.82 3.376 3.376 0 00-5.747 3.08A9.575 9.575 0 017.42 8.63a3.386 3.386 0 00-.455 1.694 3.36 3.36 0 001.505 2.807 3.316 3.316 0 01-1.526-.42v.042a3.38 3.38 0 002.709 3.31 3.365 3.365 0 01-1.526.057 3.37 3.37 0 003.15 2.345 6.785 6.785 0 01-4.998 1.393 9.404 9.404 0 005.159 1.526z" fill="#000"/></svg>