<svg width="301" height="559" viewBox="0 0 301 559" fill="none" xmlns="http://www.w3.org/2000/svg">
<path d="M0 211.025V327.371L28.2688 0H18.2222L0 211.025Z" fill="black"/>
<path d="M8.17559 0L0 94.6786V0H8.17559Z" fill="black"/>
<path d="M38.3154 0L0 443.717V559H0.0917735L48.362 0H38.3154Z" fill="black"/>
<path d="M58.4086 0L10.1384 559H20.1849L68.4551 0H58.4086Z" fill="black"/>
<path d="M78.5017 0L30.2315 559H40.2781L88.5483 0H78.5017Z" fill="black"/>
<path d="M98.5949 0L50.3247 559H60.3713L108.641 0H98.5949Z" fill="black"/>
<path d="M118.688 0L70.4178 559H80.4644L128.735 0H118.688Z" fill="black"/>
<path d="M138.781 0L90.511 559H100.558L148.828 0H138.781Z" fill="black"/>
<path d="M158.874 0L110.604 559H120.651L168.921 0H158.874Z" fill="black"/>
<path d="M178.968 0L130.697 559H140.744L189.014 0H178.968Z" fill="black"/>
<path d="M199.061 0L150.791 559H160.837L209.107 0H199.061Z" fill="black"/>
<path d="M219.154 0L170.884 559H180.93L229.201 0H219.154Z" fill="black"/>
<path d="M239.247 0L190.977 559H201.023L249.294 0H239.247Z" fill="black"/>
<path d="M259.34 0L211.07 559H221.117L269.387 0H259.34Z" fill="black"/>
<path d="M279.433 0L231.163 559H241.21L289.48 0H279.433Z" fill="black"/>
<path d="M299.527 0L251.256 559H261.303L301 99.2824V0H299.527Z" fill="black"/>
<path d="M301 215.628L271.349 559H281.396L301 331.974V215.628Z" fill="black"/>
<path d="M301 448.32L291.443 559H301V448.32Z" fill="black"/>
</svg>
