<svg width="26" height="26" fill="none" xmlns="http://www.w3.org/2000/svg"><g clip-path="url(#clip0_3806_1537)" fill="#fff"><path d="M0 26l1.838-6.673a12.76 12.76 0 01-1.726-6.444C.112 5.777 5.922 0 13.056 0c3.464 0 6.717 1.34 9.157 3.775A12.744 12.744 0 0126 12.89c0 7.105-5.81 12.882-12.95 12.882h-.007c-2.166 0-4.296-.543-6.19-1.569L0 26zm7.183-4.127l.391.234a10.828 10.828 0 005.476 1.496h.006c5.929 0 10.759-4.801 10.759-10.708 0-2.86-1.118-5.549-3.148-7.575a10.703 10.703 0 00-7.611-3.139C7.127 2.175 2.297 6.976 2.297 12.883c0 2.02.565 3.991 1.645 5.696l.255.408-1.087 3.948 4.073-1.062z"/><path d="M0 26l1.838-6.673a12.76 12.76 0 01-1.726-6.444C.112 5.777 5.922 0 13.056 0c3.464 0 6.717 1.34 9.157 3.775A12.744 12.744 0 0126 12.89c0 7.105-5.81 12.882-12.95 12.882h-.007c-2.166 0-4.296-.543-6.19-1.569L0 26zm7.183-4.127l.391.234a10.828 10.828 0 005.476 1.496h.006c5.929 0 10.759-4.801 10.759-10.708 0-2.86-1.118-5.549-3.148-7.575a10.703 10.703 0 00-7.611-3.139C7.127 2.175 2.297 6.976 2.297 12.883c0 2.02.565 3.991 1.645 5.696l.255.408-1.087 3.948 4.073-1.062z"/><path fill-rule="evenodd" clip-rule="evenodd" d="M9.821 7.495c-.242-.538-.496-.55-.726-.556-.186-.006-.403-.006-.62-.006-.218 0-.566.08-.864.401-.298.322-1.13 1.1-1.13 2.688 0 1.582 1.161 3.114 1.323 3.33.161.217 2.241 3.572 5.525 4.863 2.732 1.075 3.29.859 3.88.803.59-.055 1.912-.778 2.186-1.532.267-.754.267-1.396.186-1.533-.08-.135-.298-.216-.621-.376-.323-.161-1.912-.94-2.21-1.05-.298-.106-.515-.161-.727.16-.217.321-.838 1.044-1.024 1.26-.186.217-.379.241-.701.08-.323-.16-1.366-.5-2.602-1.6-.962-.852-1.614-1.909-1.8-2.23-.186-.321-.019-.494.143-.655.143-.142.323-.377.484-.562.161-.186.217-.322.323-.538.105-.216.056-.402-.025-.562-.08-.155-.714-1.749-1-2.385z"/></g><defs><clipPath id="clip0_3806_1537"><path fill="#fff" d="M0 0h26v26H0z"/></clipPath></defs></svg>