<svg width="60" height="47" fill="none" xmlns="http://www.w3.org/2000/svg"><rect x="6" width="48" height="47" rx="23.5" fill="#000"/><g clip-path="url(#clip0_3806_1525)"><path d="M10 44l2.827-10.266a19.63 19.63 0 01-2.655-9.915C10.172 12.888 19.112 4 30.086 4c5.33 0 10.334 2.063 14.088 5.808 3.763 3.745 5.836 8.726 5.826 14.02 0 10.933-8.94 19.82-19.924 19.82h-.01c-3.332 0-6.608-.836-9.522-2.414L10 44zm11.05-6.35l.602.361a16.66 16.66 0 008.424 2.3h.01c9.121 0 16.552-7.385 16.552-16.473 0-4.4-1.72-8.536-4.842-11.654-3.124-3.117-7.288-4.828-11.71-4.828-9.121-.01-16.552 7.376-16.552 16.463 0 3.109.87 6.141 2.53 8.765l.392.627-1.67 6.074 6.265-1.635z" fill="#000"/><path d="M10.697 43.306l2.732-9.914a18.976 18.976 0 01-2.579-9.563c.01-10.551 8.634-19.135 19.236-19.135 5.148 0 9.971 1.996 13.6 5.608a18.97 18.97 0 015.626 13.536c0 10.552-8.634 19.135-19.226 19.135h-.01c-3.218 0-6.38-.808-9.188-2.328l-10.19 2.661z" fill="#FFFFB6"/><path d="M10 44l2.827-10.266a19.63 19.63 0 01-2.655-9.915C10.172 12.888 19.112 4 30.086 4c5.33 0 10.334 2.063 14.088 5.808 3.763 3.745 5.836 8.726 5.826 14.02 0 10.933-8.94 19.82-19.924 19.82h-.01c-3.332 0-6.608-.836-9.522-2.414L10 44zm11.05-6.35l.602.361a16.66 16.66 0 008.424 2.3h.01c9.121 0 16.552-7.385 16.552-16.473 0-4.4-1.72-8.536-4.842-11.654-3.124-3.117-7.288-4.828-11.71-4.828-9.121-.01-16.552 7.376-16.552 16.463 0 3.109.87 6.141 2.53 8.765l.392.627-1.67 6.074 6.265-1.635z" fill="#000"/><path fill-rule="evenodd" clip-rule="evenodd" d="M25.11 15.53c-.373-.827-.764-.846-1.118-.855-.286-.01-.62-.01-.955-.01-.334 0-.87.124-1.328.618-.458.495-1.738 1.692-1.738 4.135 0 2.434 1.786 4.791 2.035 5.124.248.332 3.447 5.494 8.5 7.48 4.203 1.655 5.062 1.322 5.97 1.237.907-.086 2.941-1.198 3.361-2.358.411-1.16.411-2.148.287-2.357-.124-.21-.459-.333-.955-.58-.497-.247-2.942-1.445-3.4-1.616-.459-.162-.793-.247-1.118.247-.334.494-1.29 1.607-1.576 1.94-.286.332-.582.37-1.079.123s-2.101-.77-4.002-2.462c-1.48-1.312-2.483-2.937-2.77-3.432-.286-.494-.028-.76.22-1.007.22-.219.497-.58.745-.865.248-.285.334-.495.497-.827.162-.333.086-.618-.039-.865-.124-.238-1.098-2.69-1.537-3.67z" fill="#000"/></g><defs><clipPath id="clip0_3806_1525"><path fill="#fff" transform="translate(10 4)" d="M0 0h40v40H0z"/></clipPath></defs></svg>