<svg width="301" height="559" fill="none" xmlns="http://www.w3.org/2000/svg"><path d="M0 211.025v116.346L28.269 0H18.222L0 211.025zM8.176 0L0 94.679V0h8.176zm30.139 0L0 443.717V559h.092L48.362 0H38.315zm20.094 0l-48.27 559h10.046L68.455 0H58.41zm20.093 0l-48.27 559h10.046L88.548 0H78.502zm20.093 0l-48.27 559H60.37L108.64 0H98.595zm20.093 0l-48.27 559h10.046L128.735 0h-10.047zm20.093 0l-48.27 559h10.047l48.27-559h-10.047zm20.093 0l-48.27 559h10.047l48.27-559h-10.047zm20.094 0l-48.271 559h10.047l48.27-559h-10.046zm20.093 0l-48.27 559h10.046l48.27-559h-10.046zm20.093 0l-48.27 559h10.046L229.201 0h-10.047zm20.093 0l-48.27 559h10.046L249.294 0h-10.047zm20.093 0l-48.27 559h10.047l48.27-559H259.34zm20.093 0l-48.27 559h10.047L289.48 0h-10.047zm20.094 0l-48.271 559h10.047L301 99.282V0h-1.473zM301 215.628L271.349 559h10.047L301 331.974V215.628zm0 232.692L291.443 559H301V448.32z" fill="#000"/></svg>