<svg width="116" height="80" viewBox="0 0 116 80" fill="none" xmlns="http://www.w3.org/2000/svg">
<path d="M37.5327 18.0244H78.9089V79.4672H37.5327V18.0244Z" fill="#1F1F1F"/>
<path fill-rule="evenodd" clip-rule="evenodd" d="M37 17.4917H79.4417V80H37V17.4917ZM38.0655 18.5572V78.9345H78.3762V18.5572H38.0655Z" fill="white"/>
<path d="M39.1309 19.6226H40.1963V78.9344H39.1309V19.6226Z" fill="white"/>
<path d="M41.0845 19.6226H42.15V78.9344H41.0845V19.6226Z" fill="white"/>
<path d="M43.0376 19.6226H44.1031V78.9344H43.0376V19.6226Z" fill="white"/>
<path d="M44.9912 19.6226H46.0567V78.9344H44.9912V19.6226Z" fill="white"/>
<path d="M46.9443 19.6226H48.0098V78.9344H46.9443V19.6226Z" fill="white"/>
<path d="M48.8979 19.6226H49.9634V78.9344H48.8979V19.6226Z" fill="white"/>
<path d="M50.8511 19.6226H51.9166V78.9344H50.8511V19.6226Z" fill="white"/>
<path d="M52.8047 19.6226H53.8702V78.9344H52.8047V19.6226Z" fill="white"/>
<path d="M54.7578 19.6226H55.8233V78.9344H54.7578V19.6226Z" fill="white"/>
<path d="M56.7114 19.6226H57.7769V78.9344H56.7114V19.6226Z" fill="white"/>
<path d="M58.6646 19.6226H59.73V78.9344H58.6646V19.6226Z" fill="white"/>
<path d="M60.6182 19.6226H61.6836V78.9344H60.6182V19.6226Z" fill="white"/>
<path d="M62.5713 19.6226H63.6368V78.9344H62.5713V19.6226Z" fill="white"/>
<path d="M64.5249 19.6226H65.5904V78.9344H64.5249V19.6226Z" fill="white"/>
<path d="M66.4785 19.6226H67.544V78.9344H66.4785V19.6226Z" fill="white"/>
<path d="M68.4316 19.6226H69.4971V78.9344H68.4316V19.6226Z" fill="white"/>
<path d="M70.3853 19.6226H71.4507V78.9344H70.3853V19.6226Z" fill="white"/>
<path d="M72.3384 19.6226H73.4039V78.9344H72.3384V19.6226Z" fill="white"/>
<path d="M74.292 19.6226H75.3575V78.9344H74.292V19.6226Z" fill="white"/>
<path d="M76.2451 19.6226H77.3106V78.9344H76.2451V19.6226Z" fill="white"/>
<path fill-rule="evenodd" clip-rule="evenodd" d="M59.0198 1.06543C58.8237 1.06543 58.6647 1.22444 58.6647 1.42059V11.0984L57.1552 11.5786V13.4601L56.4449 13.6861V17.8701L55.8234 18.0678V26.7326L54.7579 27.0599V28.4683L53.5148 28.8501V30.2585L52.2718 30.6402V32.1461L49.0753 33.1289V35.9638L48.0098 36.2923V40.7773L45.7901 41.4648V51.5501L44.7246 51.8806V78.9344H73.6702V51.5055L72.5334 50.6835V41.1389L70.2842 39.5125H70.3482V36.0649L69.2111 35.2427V32.9507L65.7789 30.4689L65.7983 30.4421L64.6956 29.6457V28.7915L63.4457 27.8887V27.0345L62.1275 26.0824V19.2688L61.2122 18.5733V14.3547L60.5465 13.8732V12.047L59.375 11.1996V1.42059C59.375 1.22444 59.216 1.06543 59.0198 1.06543Z" fill="#F2EEE3"/>
<path fill-rule="evenodd" clip-rule="evenodd" d="M56.0898 12.6811V10.7996L57.5992 10.3193V1.42064C57.5992 0.636044 58.2353 0 59.0199 0C59.8045 0 60.4405 0.636043 60.4405 1.42064V10.6554L61.6121 11.5028V13.329L62.2777 13.8105V18.0448L63.193 18.7403V25.5377L64.5112 26.4897V27.344L65.7611 28.2467V29.1009L67.2859 30.2023L67.2662 30.2295L70.2767 32.4064V34.6983L71.4137 35.5205V39.0144L73.599 40.5945V50.1392L74.7357 50.9612V78.9345H43.6592L43.6592 51.0956L44.7247 50.7651V40.6794L46.9444 39.992V35.5059L48.0099 35.1774V32.3418L51.2063 31.359V29.8529L52.4494 29.4712V28.0627L53.6925 27.681V26.2726L54.758 25.9453V17.2888L55.3795 17.091V12.9071L56.0898 12.6811Z" fill="#F5F5F5"/>
<path fill-rule="evenodd" clip-rule="evenodd" d="M65.3433 45.4846L73.6702 51.5057V80.0001H72.9599V51.8687L65.2147 46.2682L57.8154 48.5636L57.3328 48.7319V50.091H56.6225V48.2273L57.5932 47.8888L65.3433 45.4846ZM53.3909 49.9361L45.4349 52.4042V80.0001H44.7246V51.8808L53.1805 49.2577L53.3909 49.9361Z" fill="black"/>
<path fill-rule="evenodd" clip-rule="evenodd" d="M64.8294 35.5684L72.5334 41.139V50.7889H71.8231V41.502L64.7007 36.3518L58.5758 38.2487V39.0678H57.8655V37.7283L58.2581 37.6035L64.8294 35.5684ZM53.7812 38.9847V40.5772H53.0708V39.9499L50.9058 40.6242L46.5004 41.9885V51.4993H45.79V41.4649L50.6951 39.9458L53.7812 38.9847Z" fill="black"/>
<path fill-rule="evenodd" clip-rule="evenodd" d="M63.8902 31.3953L70.3481 36.0649V39.5125H69.6378V36.4278L63.761 32.1784L48.7201 36.8166V41.1107H48.0098V36.2923L63.8902 31.3953Z" fill="black"/>
<path fill-rule="evenodd" clip-rule="evenodd" d="M63.3762 28.7317L69.211 32.9508V35.3394H68.5007V33.3137L63.2467 29.5146L49.7855 33.6537V36.0497H49.0752V33.1289L63.3762 28.7317Z" fill="black"/>
<path fill-rule="evenodd" clip-rule="evenodd" d="M61.9552 27.6663L65.7985 30.4421L65.3825 31.018L61.8259 28.4491L52.9823 31.1652V32.6747H52.272V30.6403L61.9552 27.6663Z" fill="black"/>
<path fill-rule="evenodd" clip-rule="evenodd" d="M61.417 26.4233L64.6959 28.7916V30.0181H63.9855V29.1548L61.2876 27.2061L54.2255 29.3751V30.5439H53.5151V28.8502L61.417 26.4233Z" fill="black"/>
<path fill-rule="evenodd" clip-rule="evenodd" d="M61.417 26.4233L64.5487 28.6853L64.1328 29.2611L61.2876 27.2061L54.2255 29.3751V30.7215H53.5151V28.8502L61.417 26.4233Z" fill="black"/>
<path fill-rule="evenodd" clip-rule="evenodd" d="M60.8782 25.1802L63.4456 27.0345V28.0122H62.7353V27.3977L60.7489 25.963L55.4681 27.5848V28.5904H54.7578V27.0599L60.8782 25.1802Z" fill="black"/>
<path d="M66.3896 48.7458L67.1 49.2786V80H66.3896V48.7458Z" fill="black"/>
<path d="M65.6792 38.4744L66.3895 39.0071V46.3767L65.6792 45.844V38.4744Z" fill="black"/>
<path d="M58.0435 17.7581H57.3331V26.5039L58.0435 26.2819V17.7581Z" fill="black"/>
<path d="M67.2773 39.6287L67.9877 40.1614V47.531L67.2773 46.9982V39.6287Z" fill="black"/>
<path d="M58.665 1.42059C58.665 1.22444 58.824 1.06543 59.0202 1.06543C59.2163 1.06543 59.3754 1.22444 59.3754 1.42059V11.5427C59.3754 11.7388 59.2163 11.8978 59.0202 11.8978C58.824 11.8978 58.665 11.7388 58.665 11.5427V1.42059Z" fill="black"/>
<path d="M68.8755 40.783L69.5858 41.3157V48.6853L68.8755 48.1525V40.783Z" fill="black"/>
<path d="M60.0854 18.1133L60.7958 18.1133V25.8824L60.0854 26.1044L60.0854 18.1133Z" fill="black"/>
<path d="M64.8804 33.8574L65.5907 34.3902V36.4323L64.8804 35.8996V33.8574Z" fill="black"/>
<path d="M66.4785 35.0117L67.1888 35.5445V37.5866L66.4785 37.0539V35.0117Z" fill="black"/>
<path d="M68.0767 36.1658L68.787 36.6985V38.7407L68.0767 38.2079V36.1658Z" fill="black"/>
<path d="M63.9922 30.9272L64.7025 31.46V32.6143L63.9922 32.0815V30.9272Z" fill="black"/>
<path d="M65.5903 32.0815L66.3007 32.6143V33.7686L65.5903 33.2358V32.0815Z" fill="black"/>
<path d="M67.1885 33.2358L67.8988 33.7686V34.9229L67.1885 34.3901V33.2358Z" fill="black"/>
<path d="M70.4736 41.9373L71.184 42.47V49.8396L70.4736 49.3068V41.9373Z" fill="black"/>
<path d="M64.6138 45.7269L65.3241 45.5049V79.9999H64.6138V45.7269Z" fill="black"/>
<path d="M67.9878 49.9001L68.6981 50.4329V80H67.9878V49.9001Z" fill="black"/>
<path d="M69.5859 51.0544L70.2963 51.5872V80H69.5859V51.0544Z" fill="black"/>
<path d="M59.5527 49.4563L58.8424 49.6783V51.0101L59.5527 50.7882V49.4563Z" fill="black"/>
<path d="M59.5527 51.3652L58.8424 51.5872V52.9191L59.5527 52.6971V51.3652Z" fill="black"/>
<path d="M59.5527 53.2742L58.8424 53.4961V54.828L59.5527 54.606V53.2742Z" fill="black"/>
<path d="M59.5527 55.1831L58.8424 55.4051V56.7369L59.5527 56.515V55.1831Z" fill="black"/>
<path d="M59.5527 57.092L58.8424 57.314V58.6459L59.5527 58.4239V57.092Z" fill="black"/>
<path d="M59.5527 59.001L58.8424 59.223V60.5548L59.5527 60.3328V59.001Z" fill="black"/>
<path d="M59.5527 60.9102L58.8424 61.1321V62.464L59.5527 62.242V60.9102Z" fill="black"/>
<path d="M59.5527 62.8191L58.8424 63.0411V64.3729L59.5527 64.1509V62.8191Z" fill="black"/>
<path d="M59.5527 64.728L58.8424 64.95V66.2819L59.5527 66.0599V64.728Z" fill="black"/>
<path d="M59.5527 66.637L58.8424 66.8589V68.1908L59.5527 67.9688V66.637Z" fill="black"/>
<path d="M59.5527 68.5461L58.8424 68.7681V70.1L59.5527 69.878V68.5461Z" fill="black"/>
<path d="M59.5527 70.4551L58.8424 70.6771V72.0089L59.5527 71.7869V70.4551Z" fill="black"/>
<path d="M59.5527 72.364L58.8424 72.586V73.9178L59.5527 73.6959V72.364Z" fill="black"/>
<path d="M59.5527 74.2729L58.8424 74.4949V75.8268L59.5527 75.6048V74.2729Z" fill="black"/>
<path d="M59.5527 76.1819L58.8424 76.4039V77.7357L59.5527 77.5137V76.1819Z" fill="black"/>
<path d="M59.5527 78.0911L58.8424 78.313V79.6449L59.5527 79.4229V78.0911Z" fill="black"/>
<path d="M55.4683 35.605L54.7579 35.827V37.1588L55.4683 36.9368V35.605Z" fill="black"/>
<path d="M55.4683 37.5139L54.7579 37.7359V39.0677L55.4683 38.8458V37.5139Z" fill="black"/>
<path d="M55.4683 39.4229L54.7579 39.6448V40.9767L55.4683 40.7547V39.4229Z" fill="black"/>
<path d="M55.4683 41.3318L54.7579 41.5538V42.8856L55.4683 42.6636V41.3318Z" fill="black"/>
<path d="M55.4683 43.2407L54.7579 43.4627V44.7946L55.4683 44.5726V43.2407Z" fill="black"/>
<path d="M55.4683 45.1497L54.7579 45.3716V46.7035L55.4683 46.4815V45.1497Z" fill="black"/>
<path d="M55.4683 47.0588L54.7579 47.2808V48.6127L55.4683 48.3907V47.0588Z" fill="black"/>
<path d="M55.4683 48.9678L54.7579 49.1897V50.5216L55.4683 50.2996V48.9678Z" fill="black"/>
<path d="M55.4683 50.8767L54.7579 51.0987V52.4305L55.4683 52.2086V50.8767Z" fill="black"/>
<path d="M55.4683 52.7859L54.7579 53.0079V54.3397L55.4683 54.1177V52.7859Z" fill="black"/>
<path d="M55.4683 54.6948L54.7579 54.9168V56.2487L55.4683 56.0267V54.6948Z" fill="black"/>
<path d="M55.4683 56.6038L54.7579 56.8257V58.1576L55.4683 57.9356V56.6038Z" fill="black"/>
<path d="M55.4683 58.5127L54.7579 58.7347V60.0665L55.4683 59.8445V58.5127Z" fill="black"/>
<path d="M55.4683 60.4219L54.7579 60.6439V61.9757L55.4683 61.7537V60.4219Z" fill="black"/>
<path d="M55.4683 62.3308L54.7579 62.5528V63.8846L55.4683 63.6627V62.3308Z" fill="black"/>
<path d="M55.4683 64.2397L54.7579 64.4617V65.7936L55.4683 65.5716V64.2397Z" fill="black"/>
<path d="M55.4683 66.1487L54.7579 66.3707V67.7025L55.4683 67.4805V66.1487Z" fill="black"/>
<path d="M55.4683 68.0576L54.7579 68.2796V69.6114L55.4683 69.3895V68.0576Z" fill="black"/>
<path d="M55.4683 69.9666L54.7579 70.1885V71.5204L55.4683 71.2984V69.9666Z" fill="black"/>
<path d="M55.4683 71.8757L54.7579 72.0977V73.4296L55.4683 73.2076V71.8757Z" fill="black"/>
<path d="M55.4683 73.7847L54.7579 74.0066V75.3385L55.4683 75.1165V73.7847Z" fill="black"/>
<path d="M55.4683 75.6936L54.7579 75.9156V77.2474L55.4683 77.0255V75.6936Z" fill="black"/>
<path d="M55.4683 77.6025L54.7579 77.8245V79.1564L55.4683 78.9344V77.6025Z" fill="black"/>
<path d="M53.7812 36.1377L53.0709 36.3597V37.6915L53.7812 37.4695V36.1377Z" fill="black"/>
<path d="M53.7812 38.0466L53.0709 38.2686V39.6005L53.7812 39.3785V38.0466Z" fill="black"/>
<path d="M57.1553 35.072L56.445 35.294V36.6258L57.1553 36.4039V35.072Z" fill="black"/>
<path d="M57.1553 36.981L56.445 37.2029V38.5348L57.1553 38.3128V36.981Z" fill="black"/>
<path d="M57.1553 38.8901L56.445 39.1121V40.444L57.1553 40.222V38.8901Z" fill="black"/>
<path d="M57.1553 40.7991L56.445 41.021V42.3529L57.1553 42.1309V40.7991Z" fill="black"/>
<path d="M57.1553 42.708L56.445 42.93V44.2618L57.1553 44.0399V42.708Z" fill="black"/>
<path d="M57.1553 44.6172L56.445 44.8392V46.171L57.1553 45.949V44.6172Z" fill="black"/>
<path d="M57.1553 46.5261L56.445 46.7481V48.08L57.1553 47.858V46.5261Z" fill="black"/>
<path d="M57.1553 48.4351L56.445 48.657V49.9889L57.1553 49.7669V48.4351Z" fill="black"/>
<path d="M57.1553 50.344L56.445 50.566V51.8978L57.1553 51.6758V50.344Z" fill="black"/>
<path d="M57.1553 52.2532L56.445 52.4751V53.807L57.1553 53.585V52.2532Z" fill="black"/>
<path d="M57.1553 54.1621L56.445 54.3841V55.7159L57.1553 55.494V54.1621Z" fill="black"/>
<path d="M57.1553 56.071L56.445 56.293V57.6249L57.1553 57.4029V56.071Z" fill="black"/>
<path d="M57.1553 57.98L56.445 58.202V59.5338L57.1553 59.3118V57.98Z" fill="black"/>
<path d="M57.1553 59.8889L56.445 60.1109V61.4427L57.1553 61.2208V59.8889Z" fill="black"/>
<path d="M57.1553 61.7979L56.445 62.0198V63.3517L57.1553 63.1297V61.7979Z" fill="black"/>
<path d="M57.1553 63.707L56.445 63.929V65.2609L57.1553 65.0389V63.707Z" fill="black"/>
<path d="M57.1553 65.616L56.445 65.8379V67.1698L57.1553 66.9478V65.616Z" fill="black"/>
<path d="M57.1553 67.5249L56.445 67.7469V69.0787L57.1553 68.8568V67.5249Z" fill="black"/>
<path d="M57.1553 69.4338L56.445 69.6558V70.9877L57.1553 70.7657V69.4338Z" fill="black"/>
<path d="M57.1553 71.3428L56.445 71.5647V72.8966L57.1553 72.6746V71.3428Z" fill="black"/>
<path d="M57.1553 73.252L56.445 73.4739V74.8058L57.1553 74.5838V73.252Z" fill="black"/>
<path d="M57.1553 75.1609L56.445 75.3829V76.7147L57.1553 76.4927V75.1609Z" fill="black"/>
<path d="M57.1553 77.0701L56.445 77.292V78.6239L57.1553 78.4019V77.0701Z" fill="black"/>
<path d="M58.9312 34.5393L58.2208 34.7613V36.0931L58.9312 35.8712V34.5393Z" fill="black"/>
<path d="M58.9312 36.4485L58.2208 36.6705V38.0023L58.9312 37.7803V36.4485Z" fill="black"/>
<path d="M60.6182 34.0066L59.9078 34.2286V37.3362L60.6182 37.1142V34.0066Z" fill="black"/>
<path d="M58.9312 34.5393L58.2208 34.7613V37.8689L58.9312 37.647V34.5393Z" fill="black"/>
<path d="M57.1553 35.072L56.445 35.294V38.4017L57.1553 38.1797V35.072Z" fill="black"/>
<path d="M55.4683 35.605L54.7579 35.827V38.9346L55.4683 38.7126V35.605Z" fill="black"/>
<path d="M53.7812 36.1377L53.0709 36.3597V39.4673L53.7812 39.2454V36.1377Z" fill="black"/>
<path d="M58.9312 31.698L58.2208 31.92V33.6958L58.9312 33.4738V31.698Z" fill="black"/>
<path d="M57.1553 32.231L56.445 32.4529V34.3175L57.1553 34.0956V32.231Z" fill="black"/>
<path d="M55.4683 32.7637L54.7579 32.9856V34.7615L55.4683 34.5395V32.7637Z" fill="black"/>
<path d="M53.7812 33.2964L53.0709 33.5184V35.2942L53.7812 35.0722V33.2964Z" fill="black"/>
<path d="M52.0942 36.5815L51.3839 36.8035V39.9112L52.0942 39.6892V36.5815Z" fill="black"/>
<path d="M50.4072 37.0254L49.6969 37.2474V40.355L50.4072 40.133V37.0254Z" fill="black"/>
<path d="M62.3052 33.5627L61.5949 33.7847V36.8924L62.3052 36.6704V33.5627Z" fill="black"/>
<path d="M52.0942 36.5815L51.3839 36.8035V39.9112L52.0942 39.6892V36.5815Z" fill="black"/>
<path d="M50.4072 37.0254L49.6969 37.2474V40.355L50.4072 40.133V37.0254Z" fill="black"/>
<path d="M60.6182 31.1653L59.9078 31.3873V33.0743L60.6182 32.8523V31.1653Z" fill="black"/>
<path d="M52.0942 33.7402L51.3839 33.9622V35.8268L52.0942 35.6048V33.7402Z" fill="black"/>
<path d="M47.6548 53.1248L46.9445 53.3467V54.6786L47.6548 54.4566V53.1248Z" fill="black"/>
<path d="M47.6548 55.0337L46.9445 55.2557V56.5875L47.6548 56.3655V55.0337Z" fill="black"/>
<path d="M47.6548 56.9429L46.9445 57.1648V58.4967L47.6548 58.2747V56.9429Z" fill="black"/>
<path d="M47.6548 58.8518L46.9445 59.0738V60.4056L47.6548 60.1837V58.8518Z" fill="black"/>
<path d="M47.6548 60.7607L46.9445 60.9827V62.3146L47.6548 62.0926V60.7607Z" fill="black"/>
<path d="M47.6548 62.6697L46.9445 62.8917V64.2235L47.6548 64.0015V62.6697Z" fill="black"/>
<path d="M47.6548 64.5786L46.9445 64.8006V66.1324L47.6548 65.9105V64.5786Z" fill="black"/>
<path d="M47.6548 66.4878L46.9445 66.7098V68.0416L47.6548 67.8196V66.4878Z" fill="black"/>
<path d="M47.6548 68.3967L46.9445 68.6187V69.9506L47.6548 69.7286V68.3967Z" fill="black"/>
<path d="M47.6548 70.3057L46.9445 70.5276V71.8595L47.6548 71.6375V70.3057Z" fill="black"/>
<path d="M47.6548 72.2146L46.9445 72.4366V73.7684L47.6548 73.5465V72.2146Z" fill="black"/>
<path d="M47.6548 74.1238L46.9445 74.3458V75.6776L47.6548 75.4556V74.1238Z" fill="black"/>
<path d="M47.6548 76.0325L46.9445 76.2544V77.5863L47.6548 77.3643V76.0325Z" fill="black"/>
<path d="M47.6548 77.9417L46.9445 78.1636V79.4955L47.6548 79.2735V77.9417Z" fill="black"/>
<path d="M61.3286 48.8967L60.6183 49.1187V50.4506L61.3286 50.2286V48.8967Z" fill="black"/>
<path d="M61.3286 50.8057L60.6183 51.0276V52.3595L61.3286 52.1375V50.8057Z" fill="black"/>
<path d="M61.3286 52.7148L60.6183 52.9368V54.2687L61.3286 54.0467V52.7148Z" fill="black"/>
<path d="M61.3286 54.6238L60.6183 54.8458V56.1776L61.3286 55.9556V54.6238Z" fill="black"/>
<path d="M61.3286 56.5327L60.6183 56.7547V58.0865L61.3286 57.8646V56.5327Z" fill="black"/>
<path d="M61.3286 58.4417L60.6183 58.6636V59.9955L61.3286 59.7735V58.4417Z" fill="black"/>
<path d="M61.3286 60.3506L60.6183 60.5726V61.9044L61.3286 61.6824V60.3506Z" fill="black"/>
<path d="M61.3286 62.2595L60.6183 62.4815V63.8133L61.3286 63.5914V62.2595Z" fill="black"/>
<path d="M61.3286 64.1687L60.6183 64.3907V65.7225L61.3286 65.5006V64.1687Z" fill="black"/>
<path d="M61.3286 66.0776L60.6183 66.2996V67.6315L61.3286 67.4095V66.0776Z" fill="black"/>
<path d="M61.3286 67.9866L60.6183 68.2085V69.5404L61.3286 69.3184V67.9866Z" fill="black"/>
<path d="M61.3286 69.8955L60.6183 70.1175V71.4493L61.3286 71.2274V69.8955Z" fill="black"/>
<path d="M61.3286 71.8047L60.6183 72.0267V73.3585L61.3286 73.1365V71.8047Z" fill="black"/>
<path d="M61.3286 73.7136L60.6183 73.9356V75.2675L61.3286 75.0455V73.7136Z" fill="black"/>
<path d="M61.3286 75.6226L60.6183 75.8445V77.1764L61.3286 76.9544V75.6226Z" fill="black"/>
<path d="M61.3286 77.5317L60.6183 77.7537V79.0856L61.3286 78.8636V77.5317Z" fill="black"/>
<path d="M49.4307 52.5654L48.7203 52.7874V54.1193L49.4307 53.8973V52.5654Z" fill="black"/>
<path d="M49.4307 54.4744L48.7203 54.6963V56.0282L49.4307 55.8062V54.4744Z" fill="black"/>
<path d="M49.4307 56.3835L48.7203 56.6055V57.9374L49.4307 57.7154V56.3835Z" fill="black"/>
<path d="M49.4307 58.2925L48.7203 58.5145V59.8463L49.4307 59.6243V58.2925Z" fill="black"/>
<path d="M49.4307 60.2014L48.7203 60.4234V61.7552L49.4307 61.5333V60.2014Z" fill="black"/>
<path d="M49.4307 62.1104L48.7203 62.3323V63.6642L49.4307 63.4422V62.1104Z" fill="black"/>
<path d="M49.4307 64.0193L48.7203 64.2413V65.5731L49.4307 65.3511V64.0193Z" fill="black"/>
<path d="M49.4307 65.9285L48.7203 66.1504V67.4823L49.4307 67.2603V65.9285Z" fill="black"/>
<path d="M49.4307 67.8374L48.7203 68.0594V69.3912L49.4307 69.1693V67.8374Z" fill="black"/>
<path d="M49.4307 69.7463L48.7203 69.9683V71.3002L49.4307 71.0782V69.7463Z" fill="black"/>
<path d="M49.4307 71.6553L48.7203 71.8772V73.2091L49.4307 72.9871V71.6553Z" fill="black"/>
<path d="M49.4307 73.5642L48.7203 73.7862V75.118L49.4307 74.8961V73.5642Z" fill="black"/>
<path d="M49.4307 75.4731L48.7203 75.6951V77.027L49.4307 76.805V75.4731Z" fill="black"/>
<path d="M49.4307 77.3823L48.7203 77.6043V78.9362L49.4307 78.7142V77.3823Z" fill="black"/>
<path d="M63.1045 48.3462L62.3942 48.5682V49.9L63.1045 49.678V48.3462Z" fill="black"/>
<path d="M63.1045 50.2554L62.3942 50.4773V51.8092L63.1045 51.5872V50.2554Z" fill="black"/>
<path d="M63.1045 52.1643L62.3942 52.3863V53.7181L63.1045 53.4962V52.1643Z" fill="black"/>
<path d="M63.1045 54.0732L62.3942 54.2952V55.6271L63.1045 55.4051V54.0732Z" fill="black"/>
<path d="M63.1045 55.9822L62.3942 56.2042V57.536L63.1045 57.314V55.9822Z" fill="black"/>
<path d="M63.1045 57.8911L62.3942 58.1131V59.4449L63.1045 59.223V57.8911Z" fill="black"/>
<path d="M63.1045 59.8003L62.3942 60.0223V61.3541L63.1045 61.1321V59.8003Z" fill="black"/>
<path d="M63.1045 61.7092L62.3942 61.9312V63.2631L63.1045 63.0411V61.7092Z" fill="black"/>
<path d="M63.1045 63.6182L62.3942 63.8401V65.172L63.1045 64.95V63.6182Z" fill="black"/>
<path d="M63.1045 65.5271L62.3942 65.7491V67.0809L63.1045 66.859V65.5271Z" fill="black"/>
<path d="M63.1045 67.4363L62.3942 67.6583V68.9901L63.1045 68.7681V67.4363Z" fill="black"/>
<path d="M63.1045 69.3452L62.3942 69.5672V70.899L63.1045 70.6771V69.3452Z" fill="black"/>
<path d="M63.1045 71.2542L62.3942 71.4761V72.808L63.1045 72.586V71.2542Z" fill="black"/>
<path d="M63.1045 73.1631L62.3942 73.3851V74.7169L63.1045 74.4949V73.1631Z" fill="black"/>
<path d="M63.1045 75.072L62.3942 75.294V76.6258L63.1045 76.4039V75.072Z" fill="black"/>
<path d="M63.1045 76.981L62.3942 77.2029V78.5348L63.1045 78.3128V76.981Z" fill="black"/>
<path d="M51.2065 52.0149L50.4962 52.2369V53.5687L51.2065 53.3467V52.0149Z" fill="black"/>
<path d="M51.2065 53.9238L50.4962 54.1458V55.4777L51.2065 55.2557V53.9238Z" fill="black"/>
<path d="M51.2065 55.833L50.4962 56.055V57.3868L51.2065 57.1649V55.833Z" fill="black"/>
<path d="M51.2065 57.7419L50.4962 57.9639V59.2958L51.2065 59.0738V57.7419Z" fill="black"/>
<path d="M51.2065 59.6509L50.4962 59.8729V61.2047L51.2065 60.9827V59.6509Z" fill="black"/>
<path d="M51.2065 61.5598L50.4962 61.7818V63.1136L51.2065 62.8917V61.5598Z" fill="black"/>
<path d="M51.2065 63.4688L50.4962 63.6907V65.0226L51.2065 64.8006V63.4688Z" fill="black"/>
<path d="M51.2065 65.3777L50.4962 65.5997V66.9315L51.2065 66.7095V65.3777Z" fill="black"/>
<path d="M51.2065 67.2869L50.4962 67.5088V68.8407L51.2065 68.6187V67.2869Z" fill="black"/>
<path d="M51.2065 69.1958L50.4962 69.4178V70.7496L51.2065 70.5277V69.1958Z" fill="black"/>
<path d="M51.2065 71.105L50.4962 71.327V72.6588L51.2065 72.4368V71.105Z" fill="black"/>
<path d="M51.2065 73.0137L50.4962 73.2356V74.5675L51.2065 74.3455V73.0137Z" fill="black"/>
<path d="M51.2065 74.9229L50.4962 75.1448V76.4767L51.2065 76.2547V74.9229Z" fill="black"/>
<path d="M51.2065 76.8318L50.4962 77.0538V78.3856L51.2065 78.1636V76.8318Z" fill="black"/>
<path d="M51.2065 78.7407L50.4957 78.9629V79.9402L51.2065 79.7181V78.7407Z" fill="black"/>
<path d="M71.1841 52.2085L71.8944 52.7412V79.9998H71.1841V52.2085Z" fill="black"/>
<path d="M56.6226 48.3018L57.3329 48.0798V79.9999H56.6226V48.3018Z" fill="black"/>
<path d="M52.7158 49.5892L53.4261 49.3672V79.9998H52.7158V49.5892Z" fill="black"/>
<path d="M53.4263 49.5892L54.1366 49.3672V79.9554H53.4263V49.5892Z" fill="black"/>
<path d="M52.3608 39.7781L53.0712 39.5562V49.8114H52.3608V39.7781Z" fill="black"/>
<path d="M53.0713 39.7781L53.7816 39.5562V49.8114H53.0713V39.7781Z" fill="black"/>
<path d="M57.8657 38.0022L58.576 37.7803V48.0355H57.8657V38.0022Z" fill="black"/>
<path d="M63.9922 36.0489L64.7025 35.8269V46.0822H63.9922V36.0489Z" fill="black"/>
<path d="M63.1045 31.7869L63.8148 31.5649V36.4928H63.1045V31.7869Z" fill="black"/>
<path d="M62.5718 29.1231L63.2821 28.9011V32.0532H62.5718V29.1231Z" fill="black"/>
<path d="M49.7856 42.3206L49.0753 42.5425V43.8744L49.7856 43.6524V42.3206Z" fill="black"/>
<path d="M49.7856 44.2297L49.0753 44.4517V45.7836L49.7856 45.5616V44.2297Z" fill="black"/>
<path d="M49.7856 46.1387L49.0753 46.3606V47.6925L49.7856 47.4705V46.1387Z" fill="black"/>
<path d="M49.7856 48.0479L49.0753 48.2698V49.6017L49.7856 49.3797V48.0479Z" fill="black"/>
<path d="M61.6836 38.5916L60.9733 38.8135V40.1454L61.6836 39.9234V38.5916Z" fill="black"/>
<path d="M61.6836 40.5005L60.9733 40.7225V42.0543L61.6836 41.8323V40.5005Z" fill="black"/>
<path d="M61.6836 42.4097L60.9733 42.6316V43.9635L61.6836 43.7415V42.4097Z" fill="black"/>
<path d="M61.6836 44.3184L60.9733 44.5403V45.8722L61.6836 45.6502V44.3184Z" fill="black"/>
<path d="M48.3652 42.7646L47.6549 42.9866V44.3185L48.3652 44.0965V42.7646Z" fill="black"/>
<path d="M48.3652 44.6736L47.6549 44.8956V46.2274L48.3652 46.0054V44.6736Z" fill="black"/>
<path d="M48.3652 46.5825L47.6549 46.8045V48.1363L48.3652 47.9144V46.5825Z" fill="black"/>
<path d="M48.3652 48.4917L47.6549 48.7137V50.0455L48.3652 49.8236V48.4917Z" fill="black"/>
<path d="M60.2632 39.0354L59.5529 39.2574V40.5892L60.2632 40.3673V39.0354Z" fill="black"/>
<path d="M60.2632 40.9443L59.5529 41.1663V42.4982L60.2632 42.2762V40.9443Z" fill="black"/>
<path d="M60.2632 42.8535L59.5529 43.0755V44.4073L60.2632 44.1854V42.8535Z" fill="black"/>
<path d="M60.2632 44.7625L59.5529 44.9844V46.3163L60.2632 46.0943V44.7625Z" fill="black"/>
<path d="M51.2065 41.8323L50.4962 42.0543V43.3861L51.2065 43.1641V41.8323Z" fill="black"/>
<path d="M51.2065 43.7415L50.4962 43.9634V45.2953L51.2065 45.0733V43.7415Z" fill="black"/>
<path d="M51.2065 45.6504L50.4962 45.8724V47.2042L51.2065 46.9822V45.6504Z" fill="black"/>
<path d="M51.2065 47.5593L50.4962 47.7813V49.1132L51.2065 48.8912V47.5593Z" fill="black"/>
<path d="M63.1045 38.1621L62.3942 38.3841V39.7159L63.1045 39.494V38.1621Z" fill="black"/>
<path d="M63.1045 40.071L62.3942 40.293V41.6249L63.1045 41.4029V40.071Z" fill="black"/>
<path d="M63.1045 41.98L62.3942 42.202V43.5338L63.1045 43.3118V41.98Z" fill="black"/>
<path d="M63.1045 43.8889L62.3942 44.1109V45.4427L63.1045 45.2208V43.8889Z" fill="black"/>
<path fill-rule="evenodd" clip-rule="evenodd" d="M59.1532 17.0085L62.1278 19.2689V26.5927H61.4175V19.6213L59.4403 18.1188V25.9787H58.73V17.8886L56.5341 18.5873V26.9035H55.8237V18.0679L59.1532 17.0085Z" fill="black"/>
<path fill-rule="evenodd" clip-rule="evenodd" d="M59.1137 14.8792L61.2121 16.397V18.6943H60.5018V16.7598L59.4059 15.9671V17.4858H58.6955V15.7576L57.1551 16.2477V18.202H56.4448V15.7283L59.1137 14.8792Z" fill="black"/>
<path fill-rule="evenodd" clip-rule="evenodd" d="M59.1137 12.8369L61.2121 14.3547V17.0073H60.5018V14.7176L59.4059 13.9249V17.2194H58.6955V13.7154L57.1551 14.2055V17.9355H56.4448V13.6861L59.1137 12.8369Z" fill="black"/>
<path fill-rule="evenodd" clip-rule="evenodd" d="M59.0608 10.9724L60.5466 12.0471V14.4294L58.9562 13.5131L57.1553 14.0862V11.5787L59.0608 10.9724ZM59.3529 12.9219L59.8362 13.2004V12.41L59.3529 12.0604V12.9219ZM58.6426 11.8509V12.8675L57.8656 13.1147V12.0981L58.6426 11.8509Z" fill="black"/>
<path d="M4 51H116L112 70H0L4 51Z" fill="white"/>
<mask id="path-246-outside-1_3806_1548" maskUnits="userSpaceOnUse" x="5.29715" y="54.9563" width="104.287" height="10.7596" fill="black">
<rect fill="white" x="5.29715" y="54.9563" width="104.287" height="10.7596"/>
<path d="M13.4811 55.8366L13.454 55.9638H9.35903L8.54817 59.7786H12.3442L12.3171 59.9057H8.52114L7.52109 64.6106H11.9021L11.8751 64.7378H6.41506L8.30706 55.8366H13.4811ZM15.2991 64.7378H15.1301L18.1531 55.8366H18.5821L19.5634 64.0638L24.0291 55.8366H24.4581L23.6971 64.7378H22.6181L23.2347 57.6169L19.3681 64.7378H18.5491L17.6648 57.7059L15.2991 64.7378ZM29.3368 55.9384C30.3565 55.8705 31.2478 55.8366 32.0104 55.8366C34.1598 55.8366 35.0768 56.5784 34.7614 58.0619C34.6155 58.7486 34.3055 59.3505 33.8316 59.8676C33.5815 60.1473 33.2391 60.372 32.8044 60.5415C32.3715 60.7026 31.8733 60.7831 31.31 60.7831H29.386L28.5454 64.7378H27.4664L29.3368 55.9384ZM31.9964 55.9638C31.4937 55.9638 30.9588 55.9935 30.3915 56.0528L29.413 60.656H31.337C32.5699 60.6051 33.3628 59.7489 33.716 58.0873C33.8602 57.4092 33.789 56.8878 33.5025 56.5233C33.2178 56.1503 32.7157 55.9638 31.9964 55.9638ZM43.4314 56.3707C42.7058 56.074 41.992 55.9256 41.29 55.9256C40.5966 55.9256 40.0243 56.0698 39.5731 56.358C39.1218 56.6462 38.8421 57.0446 38.734 57.5533C38.6025 58.1721 38.83 58.6511 39.4166 58.9902C39.6806 59.1343 39.9724 59.2699 40.2921 59.3971C40.6222 59.5158 40.9487 59.6514 41.2716 59.804C41.5945 59.9566 41.8825 60.1304 42.1358 60.3253C42.389 60.5203 42.5697 60.7916 42.6778 61.1392C42.7877 61.4783 42.7859 61.9148 42.6724 62.4489C42.5607 62.9745 42.3135 63.4238 41.9309 63.7968C41.5483 64.1698 41.1259 64.4241 40.6637 64.5597C40.212 64.6869 39.7002 64.7505 39.1282 64.7505C38.0622 64.7505 37.2071 64.4919 36.5631 63.9748L36.6497 63.8731C36.8888 64.0935 37.2184 64.2758 37.6385 64.4199C38.069 64.5555 38.5225 64.6233 38.9992 64.6233C39.7012 64.6233 40.3325 64.4665 40.8932 64.1528C41.4644 63.8307 41.8157 63.3602 41.9472 62.7414C42.0914 62.0632 41.8747 61.5334 41.2971 61.1519C41.0385 60.9823 40.7468 60.8255 40.4221 60.6814C40.1061 60.5373 39.7866 60.3889 39.4637 60.2363C39.1426 60.0753 38.8554 59.8972 38.6022 59.7023C38.0336 59.2784 37.8322 58.6765 37.998 57.8966C38.1296 57.2778 38.4482 56.7776 38.954 56.3961C39.4615 56.0062 40.1399 55.8112 40.9893 55.8112C41.8473 55.8112 42.6877 55.9553 43.5104 56.2435L43.4314 56.3707ZM48.1774 64.7378H47.0984L48.9633 55.9638H46.7143L46.7414 55.8366H52.3314L52.3043 55.9638H50.0423L48.1774 64.7378ZM52.2874 64.7378H52.1314L57.9104 55.8366L58.0669 55.773L59.4374 64.7378H58.3324L57.913 61.9403H54.117L52.2874 64.7378ZM57.2155 57.2099L54.196 61.8131H57.901L57.2155 57.2099ZM64.5822 64.7378H63.5032L65.3682 55.9638H63.1192L63.1462 55.8366H68.7362L68.7092 55.9638H66.4472L64.5822 64.7378ZM77.1633 55.8366L77.1363 55.9638H73.0413L72.2304 59.7786H76.0264L75.9994 59.9057H72.2034L71.2033 64.6106H75.5843L75.5573 64.7378H70.0973L71.9893 55.8366H77.1633ZM90.2204 55.8366C90.3508 55.9977 90.389 56.2054 90.3349 56.4597C90.2899 56.6716 90.1963 56.8878 90.0541 57.1082L85.3644 64.7378L85.2078 64.8014L84.6243 59.4734L81.3864 64.7378L81.2298 64.8014L80.2494 55.8366H81.3544L82.0813 63.3645L84.6026 59.2699L84.2274 55.8366H85.3324L86.0593 63.3645L89.8981 57.1082C90.0385 56.8963 90.133 56.6759 90.1816 56.447C90.2303 56.2181 90.2031 56.0401 90.1001 55.9129L90.2204 55.8366ZM98.8875 55.8366L98.8605 55.9638H94.7655L93.9546 59.7786H97.7506L97.7236 59.9057H93.9276L92.9275 64.6106H97.3085L97.2815 64.7378H91.8215L93.7135 55.8366H98.8875ZM102.472 55.9384C103.492 55.8705 104.387 55.8366 105.159 55.8366C107.299 55.8366 108.221 56.536 107.924 57.9348C107.812 58.4603 107.559 58.9139 107.166 59.2954C106.775 59.6684 106.223 59.9227 105.509 60.0583C106.152 60.1346 106.63 60.3296 106.945 60.6432C107.26 60.9569 107.334 61.5037 107.168 62.2836C106.82 63.9197 105.576 64.7378 103.436 64.7378H100.602L102.472 55.9384ZM101.708 64.6106H103.463C104.234 64.6106 104.821 64.4156 105.225 64.0257C105.639 63.6272 105.932 63.0211 106.105 62.2073C106.278 61.3935 106.229 60.8509 105.957 60.5797C105.686 60.3084 105.227 60.1643 104.58 60.1473H102.656L101.708 64.6106ZM105.132 55.9638C104.629 55.9638 104.094 55.9935 103.527 56.0528L102.683 60.0202H104.607C105.84 59.9693 106.597 59.2826 106.878 57.9602C107.015 57.3159 106.938 56.8242 106.646 56.4851C106.356 56.1376 105.851 55.9638 105.132 55.9638Z"/>
</mask>
<path d="M13.4811 55.8366L13.454 55.9638H9.35903L8.54817 59.7786H12.3442L12.3171 59.9057H8.52114L7.52109 64.6106H11.9021L11.8751 64.7378H6.41506L8.30706 55.8366H13.4811ZM15.2991 64.7378H15.1301L18.1531 55.8366H18.5821L19.5634 64.0638L24.0291 55.8366H24.4581L23.6971 64.7378H22.6181L23.2347 57.6169L19.3681 64.7378H18.5491L17.6648 57.7059L15.2991 64.7378ZM29.3368 55.9384C30.3565 55.8705 31.2478 55.8366 32.0104 55.8366C34.1598 55.8366 35.0768 56.5784 34.7614 58.0619C34.6155 58.7486 34.3055 59.3505 33.8316 59.8676C33.5815 60.1473 33.2391 60.372 32.8044 60.5415C32.3715 60.7026 31.8733 60.7831 31.31 60.7831H29.386L28.5454 64.7378H27.4664L29.3368 55.9384ZM31.9964 55.9638C31.4937 55.9638 30.9588 55.9935 30.3915 56.0528L29.413 60.656H31.337C32.5699 60.6051 33.3628 59.7489 33.716 58.0873C33.8602 57.4092 33.789 56.8878 33.5025 56.5233C33.2178 56.1503 32.7157 55.9638 31.9964 55.9638ZM43.4314 56.3707C42.7058 56.074 41.992 55.9256 41.29 55.9256C40.5966 55.9256 40.0243 56.0698 39.5731 56.358C39.1218 56.6462 38.8421 57.0446 38.734 57.5533C38.6025 58.1721 38.83 58.6511 39.4166 58.9902C39.6806 59.1343 39.9724 59.2699 40.2921 59.3971C40.6222 59.5158 40.9487 59.6514 41.2716 59.804C41.5945 59.9566 41.8825 60.1304 42.1358 60.3253C42.389 60.5203 42.5697 60.7916 42.6778 61.1392C42.7877 61.4783 42.7859 61.9148 42.6724 62.4489C42.5607 62.9745 42.3135 63.4238 41.9309 63.7968C41.5483 64.1698 41.1259 64.4241 40.6637 64.5597C40.212 64.6869 39.7002 64.7505 39.1282 64.7505C38.0622 64.7505 37.2071 64.4919 36.5631 63.9748L36.6497 63.8731C36.8888 64.0935 37.2184 64.2758 37.6385 64.4199C38.069 64.5555 38.5225 64.6233 38.9992 64.6233C39.7012 64.6233 40.3325 64.4665 40.8932 64.1528C41.4644 63.8307 41.8157 63.3602 41.9472 62.7414C42.0914 62.0632 41.8747 61.5334 41.2971 61.1519C41.0385 60.9823 40.7468 60.8255 40.4221 60.6814C40.1061 60.5373 39.7866 60.3889 39.4637 60.2363C39.1426 60.0753 38.8554 59.8972 38.6022 59.7023C38.0336 59.2784 37.8322 58.6765 37.998 57.8966C38.1296 57.2778 38.4482 56.7776 38.954 56.3961C39.4615 56.0062 40.1399 55.8112 40.9893 55.8112C41.8473 55.8112 42.6877 55.9553 43.5104 56.2435L43.4314 56.3707ZM48.1774 64.7378H47.0984L48.9633 55.9638H46.7143L46.7414 55.8366H52.3314L52.3043 55.9638H50.0423L48.1774 64.7378ZM52.2874 64.7378H52.1314L57.9104 55.8366L58.0669 55.773L59.4374 64.7378H58.3324L57.913 61.9403H54.117L52.2874 64.7378ZM57.2155 57.2099L54.196 61.8131H57.901L57.2155 57.2099ZM64.5822 64.7378H63.5032L65.3682 55.9638H63.1192L63.1462 55.8366H68.7362L68.7092 55.9638H66.4472L64.5822 64.7378ZM77.1633 55.8366L77.1363 55.9638H73.0413L72.2304 59.7786H76.0264L75.9994 59.9057H72.2034L71.2033 64.6106H75.5843L75.5573 64.7378H70.0973L71.9893 55.8366H77.1633ZM90.2204 55.8366C90.3508 55.9977 90.389 56.2054 90.3349 56.4597C90.2899 56.6716 90.1963 56.8878 90.0541 57.1082L85.3644 64.7378L85.2078 64.8014L84.6243 59.4734L81.3864 64.7378L81.2298 64.8014L80.2494 55.8366H81.3544L82.0813 63.3645L84.6026 59.2699L84.2274 55.8366H85.3324L86.0593 63.3645L89.8981 57.1082C90.0385 56.8963 90.133 56.6759 90.1816 56.447C90.2303 56.2181 90.2031 56.0401 90.1001 55.9129L90.2204 55.8366ZM98.8875 55.8366L98.8605 55.9638H94.7655L93.9546 59.7786H97.7506L97.7236 59.9057H93.9276L92.9275 64.6106H97.3085L97.2815 64.7378H91.8215L93.7135 55.8366H98.8875ZM102.472 55.9384C103.492 55.8705 104.387 55.8366 105.159 55.8366C107.299 55.8366 108.221 56.536 107.924 57.9348C107.812 58.4603 107.559 58.9139 107.166 59.2954C106.775 59.6684 106.223 59.9227 105.509 60.0583C106.152 60.1346 106.63 60.3296 106.945 60.6432C107.26 60.9569 107.334 61.5037 107.168 62.2836C106.82 63.9197 105.576 64.7378 103.436 64.7378H100.602L102.472 55.9384ZM101.708 64.6106H103.463C104.234 64.6106 104.821 64.4156 105.225 64.0257C105.639 63.6272 105.932 63.0211 106.105 62.2073C106.278 61.3935 106.229 60.8509 105.957 60.5797C105.686 60.3084 105.227 60.1643 104.58 60.1473H102.656L101.708 64.6106ZM105.132 55.9638C104.629 55.9638 104.094 55.9935 103.527 56.0528L102.683 60.0202H104.607C105.84 59.9693 106.597 59.2826 106.878 57.9602C107.015 57.3159 106.938 56.8242 106.646 56.4851C106.356 56.1376 105.851 55.9638 105.132 55.9638Z" fill="black"/>
<path d="M13.4811 55.8366H13.6811L13.7226 55.641H13.5226L13.4811 55.8366ZM13.454 55.9638L13.4124 56.1594H13.6124L13.654 55.9638H13.454ZM9.35903 55.9638L9.40061 55.7682H9.20061L9.15903 55.9638H9.35903ZM8.54817 59.7786H8.34817L8.30659 59.9742H8.50659L8.54817 59.7786ZM12.3442 59.7786H12.5442L12.5858 59.5829H12.3858L12.3442 59.7786ZM12.3171 59.9057L12.2756 60.1014H12.4756L12.5171 59.9057H12.3171ZM8.52114 59.9057L8.56273 59.7101H8.36273L8.32114 59.9057H8.52114ZM7.52109 64.6106H7.32109L7.27951 64.8062H7.47951L7.52109 64.6106ZM11.9021 64.6106H12.1021L12.1437 64.415H11.9437L11.9021 64.6106ZM11.8751 64.7378L11.8335 64.9334H12.0335L12.0751 64.7378H11.8751ZM6.41506 64.7378H6.21506L6.17348 64.9334H6.37348L6.41506 64.7378ZM8.30706 55.8366L8.34864 55.641H8.14864L8.10706 55.8366H8.30706ZM13.2811 55.8366L13.254 55.9638H13.654L13.6811 55.8366H13.2811ZM13.4956 55.7682H9.40061L9.31745 56.1594H13.4124L13.4956 55.7682ZM9.15903 55.9638L8.34817 59.7786H8.74817L9.55903 55.9638H9.15903ZM8.50659 59.9742H12.3026L12.3858 59.5829H8.58975L8.50659 59.9742ZM12.1442 59.7786L12.1171 59.9057H12.5171L12.5442 59.7786H12.1442ZM12.3587 59.7101H8.56273L8.47956 60.1014H12.2756L12.3587 59.7101ZM8.32114 59.9057L7.32109 64.6106H7.72109L8.72114 59.9057H8.32114ZM7.47951 64.8062H11.8605L11.9437 64.415H7.56267L7.47951 64.8062ZM11.7021 64.6106L11.6751 64.7378H12.0751L12.1021 64.6106H11.7021ZM11.9166 64.5421H6.45664L6.37348 64.9334H11.8335L11.9166 64.5421ZM6.61506 64.7378L8.50706 55.8366H8.10706L6.21506 64.7378H6.61506ZM8.26547 56.0323H13.4395L13.5226 55.641H8.34864L8.26547 56.0323ZM15.2991 64.7378L15.2576 64.9334H15.4348L15.4927 64.7613L15.2991 64.7378ZM15.1301 64.7378L14.9368 64.7136L14.8622 64.9334H15.0886L15.1301 64.7378ZM18.1531 55.8366L18.1947 55.641H18.018L17.9598 55.8125L18.1531 55.8366ZM18.5821 55.8366L18.7852 55.7762L18.7691 55.641H18.6237L18.5821 55.8366ZM19.5634 64.0638L19.3603 64.1242L19.4289 64.6989L19.7409 64.124L19.5634 64.0638ZM24.0291 55.8366L24.0707 55.641H23.9251L23.8516 55.7765L24.0291 55.8366ZM24.4581 55.8366L24.6617 55.8125L24.6764 55.641H24.4997L24.4581 55.8366ZM23.6971 64.7378L23.6556 64.9334H23.882L23.9007 64.7136L23.6971 64.7378ZM22.6181 64.7378L22.4146 64.7617L22.3997 64.9334H22.5766L22.6181 64.7378ZM23.2347 57.6169L23.4383 57.5929L23.0572 57.5567L23.2347 57.6169ZM19.3681 64.7378L19.3266 64.9334H19.4721L19.5457 64.7979L19.3681 64.7378ZM18.5491 64.7378L18.3462 64.7992L18.3631 64.9334H18.5076L18.5491 64.7378ZM17.6648 57.7059L17.8678 57.6444L17.4713 57.6823L17.6648 57.7059ZM15.3407 64.5421H15.1717L15.0886 64.9334H15.2576L15.3407 64.5421ZM15.3235 64.7619L18.3465 55.8608L17.9598 55.8125L14.9368 64.7136L15.3235 64.7619ZM18.1116 56.0323H18.5406L18.6237 55.641H18.1947L18.1116 56.0323ZM18.3791 55.897L19.3603 64.1242L19.7665 64.0034L18.7852 55.7762L18.3791 55.897ZM19.7409 64.124L24.2067 55.8968L23.8516 55.7765L19.3859 64.0037L19.7409 64.124ZM23.9876 56.0323H24.4166L24.4997 55.641H24.0707L23.9876 56.0323ZM24.2545 55.8608L23.4935 64.7619L23.9007 64.7136L24.6617 55.8125L24.2545 55.8608ZM23.7387 64.5421H22.6597L22.5766 64.9334H23.6556L23.7387 64.5421ZM22.8217 64.7138L23.4383 57.5929L23.0312 57.6408L22.4146 64.7617L22.8217 64.7138ZM23.0572 57.5567L19.1906 64.6776L19.5457 64.7979L23.4123 57.677L23.0572 57.5567ZM19.4097 64.5421H18.5907L18.5076 64.9334H19.3266L19.4097 64.5421ZM18.7521 64.6763L17.8678 57.6444L17.4619 57.7673L18.3462 64.7992L18.7521 64.6763ZM17.4713 57.6823L15.1056 64.7142L15.4927 64.7613L17.8584 57.7294L17.4713 57.6823ZM29.3368 55.9384L29.3645 55.7432L29.1756 55.7558L29.1368 55.9384H29.3368ZM33.8316 59.8676L33.6905 59.7566L33.6883 59.7591L33.8316 59.8676ZM32.8044 60.5415L32.8423 60.7224L32.846 60.7209L32.8044 60.5415ZM29.386 60.7831L29.4276 60.5875H29.2276L29.186 60.7831H29.386ZM28.5454 64.7378L28.5038 64.9334H28.7038L28.7454 64.7378H28.5454ZM27.4664 64.7378H27.2664L27.2248 64.9334H27.4248L27.4664 64.7378ZM30.3915 56.0528L30.4111 55.8583L30.2288 55.8774L30.1915 56.0528H30.3915ZM29.413 60.656H29.213L29.1715 60.8516H29.3715L29.413 60.656ZM31.337 60.656L31.2954 60.8518L31.304 60.8514L31.337 60.656ZM33.5025 56.5233L33.3291 56.6584L33.3303 56.66L33.5025 56.5233ZM29.3091 56.1335C30.3256 56.0659 31.2119 56.0323 31.9688 56.0323L32.052 55.641C31.2836 55.641 30.3875 55.6752 29.3645 55.7432L29.3091 56.1335ZM31.9688 56.0323C33.0261 56.0323 33.7442 56.2158 34.1609 56.5528C34.5666 56.881 34.708 57.3725 34.5614 58.0619H34.9614C35.1302 57.2678 34.9707 56.6467 34.4595 56.2331C33.9591 55.8284 33.1441 55.641 32.052 55.641L31.9688 56.0323ZM34.5614 58.0619C34.4231 58.7128 34.1317 59.2752 33.6905 59.7566L33.9728 59.9785C34.4794 59.4257 34.8079 58.7843 34.9614 58.0619H34.5614ZM33.6883 59.7591C33.4727 60.0002 33.1691 60.2036 32.7628 60.3621L32.846 60.7209C33.309 60.5403 33.6903 60.2945 33.975 59.9761L33.6883 59.7591ZM32.7664 60.3607C32.3665 60.5095 31.8964 60.5875 31.3516 60.5875L31.2684 60.9787C31.8503 60.9787 32.3764 60.8957 32.8423 60.7223L32.7664 60.3607ZM31.3516 60.5875H29.4276L29.3444 60.9787H31.2684L31.3516 60.5875ZM29.186 60.7831L28.3454 64.7378H28.7454L29.586 60.7831H29.186ZM28.587 64.5421H27.508L27.4248 64.9334H28.5038L28.587 64.5421ZM27.6664 64.7378L29.5368 55.9384H29.1368L27.2664 64.7378H27.6664ZM32.038 55.7682C31.5273 55.7682 30.9849 55.7983 30.4111 55.8583L30.3719 56.2473C30.9326 56.1886 31.4601 56.1594 31.9548 56.1594L32.038 55.7682ZM30.1915 56.0528L29.213 60.656H29.613L30.5915 56.0528H30.1915ZM29.3715 60.8516H31.2955L31.3786 60.4603H29.4546L29.3715 60.8516ZM31.304 60.8514C31.9728 60.8238 32.5466 60.5735 32.9966 60.0876C33.4367 59.6125 33.7356 58.9364 33.916 58.0873H33.516C33.3433 58.8999 33.0691 59.4826 32.7162 59.8637C32.3732 60.234 31.9341 60.4372 31.3701 60.4605L31.304 60.8514ZM33.916 58.0873C34.0673 57.3755 33.9983 56.7985 33.6746 56.3866L33.3303 56.66C33.5796 56.9772 33.653 57.4428 33.516 58.0873H33.916ZM33.6759 56.3882C33.3521 55.9641 32.7914 55.7682 32.038 55.7682L31.9548 56.1594C32.6401 56.1594 33.0834 56.3365 33.3291 56.6584L33.6759 56.3882ZM43.4314 56.3707L43.3208 56.5533L43.4902 56.6226L43.6016 56.4434L43.4314 56.3707ZM39.5731 56.358L39.4857 56.2019L39.5731 56.358ZM39.4166 58.9902L39.2866 59.1633L39.2899 59.1652L39.4166 58.9902ZM40.2921 59.3971L40.1829 59.5803L40.1881 59.5822L40.2921 59.3971ZM41.2716 59.804L41.3901 59.6249L41.2716 59.804ZM42.6778 61.1392L42.4808 61.2284L42.4814 61.2301L42.6778 61.1392ZM41.9309 63.7968L42.0615 63.9186L41.9309 63.7968ZM40.6637 64.5597L40.6825 64.7468L40.6851 64.7461L40.6637 64.5597ZM36.5631 63.9748L36.4155 63.8711L36.2815 64.0285L36.4142 64.135L36.5631 63.9748ZM36.6497 63.8731L36.8061 63.7194L36.6596 63.5844L36.5021 63.7694L36.6497 63.8731ZM37.6384 64.4199L37.5368 64.6059L37.5408 64.6072L37.6384 64.4199ZM40.8932 64.1528L40.9672 64.3169L40.968 64.3165L40.8932 64.1528ZM41.2971 61.1519L41.4348 60.9835L41.4343 60.9833L41.2971 61.1519ZM40.4221 60.6814L40.3056 60.8614L40.3071 60.8621L40.4221 60.6814ZM39.4637 60.2363L39.3418 60.4139L39.3452 60.4155L39.4637 60.2363ZM38.6022 59.7023L38.7487 59.5402L38.7469 59.5388L38.6022 59.7023ZM38.954 56.3961L39.0586 56.5402L39.0605 56.5388L38.954 56.3961ZM43.5104 56.2435L43.6806 56.3162L43.8004 56.1236L43.6131 56.0579L43.5104 56.2435ZM43.542 56.1881C42.7995 55.8845 42.0625 55.73 41.3315 55.73L41.2484 56.1213C41.9214 56.1213 42.612 56.2635 43.3208 56.5533L43.542 56.1881ZM41.3315 55.73C40.6124 55.73 39.9908 55.8792 39.4857 56.2019L39.6604 56.5141C40.0578 56.2603 40.5809 56.1213 41.2484 56.1213L41.3315 55.73ZM39.4857 56.2019C38.9724 56.5298 38.6542 56.9879 38.534 57.5533H38.934C39.03 57.1014 39.2712 56.7627 39.6604 56.5141L39.4857 56.2019ZM38.534 57.5533C38.384 58.259 38.654 58.7976 39.2866 59.1633L39.5465 58.8171C39.006 58.5046 38.8209 58.0852 38.934 57.5533H38.534ZM39.2899 59.1652C39.5602 59.3127 39.858 59.451 40.1829 59.5803L40.4012 59.2139C40.0869 59.0889 39.801 58.9559 39.5432 58.8152L39.2899 59.1652ZM40.1881 59.5822C40.5131 59.6991 40.8348 59.8327 41.1531 59.9831L41.3901 59.6249C41.0626 59.4701 40.7313 59.3325 40.3961 59.212L40.1881 59.5822ZM41.1531 59.9831C41.4669 60.1314 41.7454 60.2996 41.9893 60.4874L42.2823 60.1633C42.0197 59.9611 41.7221 59.7818 41.3901 59.6249L41.1531 59.9831ZM41.9893 60.4874C42.2157 60.6617 42.3807 60.9065 42.4808 61.2283L42.8748 61.05C42.7586 60.6767 42.5623 60.3789 42.2823 60.1633L41.9893 60.4874ZM42.4814 61.2301C42.5793 61.5323 42.5817 61.9347 42.4724 62.4489H42.8724C42.9901 61.895 42.9961 61.4242 42.8742 61.0482L42.4814 61.2301ZM42.4724 62.4489C42.3691 62.9351 42.1437 63.3402 41.8003 63.675L42.0615 63.9186C42.4833 63.5074 42.7523 63.0139 42.8724 62.4489H42.4724ZM41.8003 63.675C41.4464 64.02 41.0615 64.2504 40.6424 64.3734L40.6851 64.7461C41.1903 64.5978 41.6502 64.3196 42.0615 63.9186L41.8003 63.675ZM40.6449 64.3727C40.2183 64.4928 39.7273 64.5549 39.1698 64.5549L39.0866 64.9461C39.673 64.9461 40.2058 64.881 40.6825 64.7468L40.6449 64.3727ZM39.1698 64.5549C38.1382 64.5549 37.3229 64.3052 36.7119 63.8146L36.4142 64.135C37.0914 64.6787 37.9862 64.9461 39.0866 64.9461L39.1698 64.5549ZM36.7106 64.0785L36.7972 63.9768L36.5021 63.7694L36.4155 63.8711L36.7106 64.0785ZM36.4932 64.0268C36.7517 64.2649 37.1019 64.4566 37.5368 64.6058L37.7401 64.2339C37.3349 64.0949 37.026 63.922 36.8061 63.7194L36.4932 64.0268ZM37.5408 64.6072C37.9888 64.7483 38.4612 64.819 38.9576 64.819L39.0408 64.4277C38.5838 64.4277 38.1491 64.3627 37.7361 64.2326L37.5408 64.6072ZM38.9576 64.819C39.6907 64.819 40.3632 64.6548 40.9672 64.3169L40.8192 63.9887C40.3019 64.2782 39.7117 64.4277 39.0408 64.4277L38.9576 64.819ZM40.968 64.3165C41.6072 63.956 42.0026 63.422 42.1472 62.7414H41.7472C41.6288 63.2984 41.3215 63.7054 40.8184 63.9892L40.968 64.3165ZM42.1472 62.7414C42.3078 61.9858 42.059 61.3958 41.4348 60.9835L41.1594 61.3202C41.6904 61.6709 41.8749 62.1406 41.7472 62.7414H42.1472ZM41.4343 60.9833C41.1679 60.8086 40.8687 60.6478 40.5371 60.5007L40.3071 60.8621C40.6249 61.0032 40.909 61.1561 41.1598 61.3205L41.4343 60.9833ZM40.5386 60.5013C40.2232 60.3575 39.9044 60.2095 39.5822 60.0572L39.3452 60.4155C39.6688 60.5684 39.9889 60.717 40.3056 60.8614L40.5386 60.5013ZM39.5855 60.0588C39.2723 59.9017 38.9936 59.7288 38.7487 59.5402L38.4557 59.8643C38.7173 60.0657 39.0128 60.2488 39.3419 60.4138L39.5855 60.0588ZM38.7469 59.5388C38.2275 59.1516 38.046 58.6116 38.198 57.8966H37.798C37.6184 58.7414 37.8398 59.4052 38.4575 59.8657L38.7469 59.5388ZM38.198 57.8966C38.3192 57.3266 38.6071 56.8808 39.0586 56.5402L38.8493 56.252C38.2893 56.6744 37.9399 57.2289 37.798 57.8966H38.198ZM39.0605 56.5388C39.5071 56.1957 40.1262 56.0068 40.9477 56.0068L41.0309 55.6156C40.1537 55.6156 39.4159 55.8167 38.8474 56.2535L39.0605 56.5388ZM40.9477 56.0068C41.7824 56.0068 42.6023 56.147 43.4077 56.4291L43.6131 56.0579C42.773 55.7636 41.9121 55.6156 41.0309 55.6156L40.9477 56.0068ZM43.3401 56.1709L43.2611 56.298L43.6016 56.4434L43.6806 56.3162L43.3401 56.1709ZM48.1774 64.7378L48.1358 64.9334H48.3358L48.3774 64.7378H48.1774ZM47.0984 64.7378H46.8984L46.8568 64.9334H47.0568L47.0984 64.7378ZM48.9633 55.9638H49.1633L49.2049 55.7682H49.0049L48.9633 55.9638ZM46.7143 55.9638H46.5143L46.4727 56.1594H46.6727L46.7143 55.9638ZM46.7414 55.8366L46.7829 55.641H46.5829L46.5414 55.8366H46.7414ZM52.3314 55.8366H52.5314L52.5729 55.641H52.3729L52.3314 55.8366ZM52.3043 55.9638L52.2627 56.1594H52.4627L52.5043 55.9638H52.3043ZM50.0423 55.9638L50.0839 55.7682H49.8839L49.8423 55.9638H50.0423ZM48.2189 64.5421H47.1399L47.0568 64.9334H48.1358L48.2189 64.5421ZM47.2984 64.7378L49.1633 55.9638H48.7633L46.8984 64.7378H47.2984ZM49.0049 55.7682H46.7559L46.6727 56.1594H48.9217L49.0049 55.7682ZM46.9143 55.9638L46.9414 55.8366H46.5414L46.5143 55.9638H46.9143ZM46.6998 56.0323H52.2898L52.3729 55.641H46.7829L46.6998 56.0323ZM52.1314 55.8366L52.1043 55.9638H52.5043L52.5314 55.8366H52.1314ZM52.3459 55.7682H50.0839L50.0007 56.1594H52.2627L52.3459 55.7682ZM49.8423 55.9638L47.9774 64.7378H48.3774L50.2423 55.9638H49.8423ZM52.2874 64.7378L52.2458 64.9334H52.3773L52.4545 64.8153L52.2874 64.7378ZM52.1314 64.7378L51.9638 64.6609L51.7869 64.9334H52.0898L52.1314 64.7378ZM57.9104 55.8366L57.8655 55.6585L57.7881 55.69L57.7428 55.7598L57.9104 55.8366ZM58.0669 55.773L58.2692 55.7072L58.2386 55.507L58.022 55.595L58.0669 55.773ZM59.4374 64.7378L59.3958 64.9334H59.6797L59.6397 64.6719L59.4374 64.7378ZM58.3324 64.7378L58.13 64.8031L58.1495 64.9334H58.2908L58.3324 64.7378ZM57.913 61.9403L58.1154 61.8749L58.0959 61.7446H57.9546L57.913 61.9403ZM54.117 61.9403L54.1586 61.7446H54.0271L53.9499 61.8627L54.117 61.9403ZM57.2155 57.2099L57.4179 57.1447L57.348 56.6755L57.0485 57.1321L57.2155 57.2099ZM54.196 61.8131L54.0291 61.7353L53.8497 62.0087H54.1545L54.196 61.8131ZM57.901 61.8131L57.8595 62.0087H58.1423L58.1035 61.7479L57.901 61.8131ZM52.329 64.5421H52.173L52.0898 64.9334H52.2458L52.329 64.5421ZM52.299 64.8146L58.078 55.9135L57.7428 55.7598L51.9638 64.6609L52.299 64.8146ZM57.9553 56.0147L58.1118 55.9511L58.022 55.595L57.8655 55.6585L57.9553 56.0147ZM57.8646 55.8389L59.2351 64.8036L59.6397 64.6719L58.2692 55.7072L57.8646 55.8389ZM59.479 64.5421H58.374L58.2908 64.9334H59.3958L59.479 64.5421ZM58.5348 64.6724L58.1154 61.8749L57.7106 62.0056L58.13 64.8031L58.5348 64.6724ZM57.9546 61.7446H54.1586L54.0754 62.1359H57.8714L57.9546 61.7446ZM53.9499 61.8627L52.1203 64.6602L52.4545 64.8153L54.2841 62.0178L53.9499 61.8627ZM57.0485 57.1321L54.0291 61.7353L54.363 61.8909L57.3824 57.2878L57.0485 57.1321ZM54.1545 62.0087H57.8595L57.9426 61.6175H54.2376L54.1545 62.0087ZM58.1035 61.7479L57.4179 57.1447L57.0131 57.2752L57.6986 61.8783L58.1035 61.7479ZM64.5822 64.7378L64.5407 64.9334H64.7407L64.7822 64.7378H64.5822ZM63.5032 64.7378H63.3032L63.2617 64.9334H63.4617L63.5032 64.7378ZM65.3682 55.9638H65.5682L65.6098 55.7682H65.4098L65.3682 55.9638ZM63.1192 55.9638H62.9192L62.8776 56.1594H63.0776L63.1192 55.9638ZM63.1462 55.8366L63.1878 55.641H62.9878L62.9462 55.8366H63.1462ZM68.7362 55.8366H68.9362L68.9778 55.641H68.7778L68.7362 55.8366ZM68.7092 55.9638L68.6676 56.1594H68.8676L68.9092 55.9638H68.7092ZM66.4472 55.9638L66.4888 55.7682H66.2888L66.2472 55.9638H66.4472ZM64.6238 64.5421H63.5448L63.4617 64.9334H64.5407L64.6238 64.5421ZM63.7032 64.7378L65.5682 55.9638H65.1682L63.3032 64.7378H63.7032ZM65.4098 55.7682H63.1608L63.0776 56.1594H65.3266L65.4098 55.7682ZM63.3192 55.9638L63.3462 55.8366H62.9462L62.9192 55.9638H63.3192ZM63.1047 56.0323H68.6947L68.7778 55.641H63.1878L63.1047 56.0323ZM68.5362 55.8366L68.5092 55.9638H68.9092L68.9362 55.8366H68.5362ZM68.7508 55.7682H66.4888L66.4056 56.1594H68.6676L68.7508 55.7682ZM66.2472 55.9638L64.3822 64.7378H64.7822L66.6472 55.9638H66.2472ZM77.1633 55.8366H77.3633L77.4049 55.641H77.2049L77.1633 55.8366ZM77.1363 55.9638L77.0947 56.1594H77.2947L77.3363 55.9638H77.1363ZM73.0413 55.9638L73.0828 55.7682H72.8828L72.8413 55.9638H73.0413ZM72.2304 59.7786H72.0304L71.9888 59.9742H72.1888L72.2304 59.7786ZM76.0264 59.7786H76.2264L76.268 59.5829H76.068L76.0264 59.7786ZM75.9994 59.9057L75.9578 60.1014H76.1578L76.1994 59.9057H75.9994ZM72.2034 59.9057L72.245 59.7101H72.045L72.0034 59.9057H72.2034ZM71.2033 64.6106H71.0033L70.9617 64.8062H71.1617L71.2033 64.6106ZM75.5843 64.6106H75.7843L75.8259 64.415H75.6259L75.5843 64.6106ZM75.5573 64.7378L75.5157 64.9334H75.7157L75.7573 64.7378H75.5573ZM70.0973 64.7378H69.8973L69.8557 64.9334H70.0557L70.0973 64.7378ZM71.9893 55.8366L72.0309 55.641H71.8309L71.7893 55.8366H71.9893ZM76.9633 55.8366L76.9363 55.9638H77.3363L77.3633 55.8366H76.9633ZM77.1778 55.7682H73.0828L72.9997 56.1594H77.0947L77.1778 55.7682ZM72.8413 55.9638L72.0304 59.7786H72.4304L73.2413 55.9638H72.8413ZM72.1888 59.9742H75.9848L76.068 59.5829H72.272L72.1888 59.9742ZM75.8264 59.7786L75.7994 59.9057H76.1994L76.2264 59.7786H75.8264ZM76.041 59.7101H72.245L72.1618 60.1014H75.9578L76.041 59.7101ZM72.0034 59.9057L71.0033 64.6106H71.4033L72.4034 59.9057H72.0034ZM71.1617 64.8062H75.5427L75.6259 64.415H71.2449L71.1617 64.8062ZM75.3843 64.6106L75.3573 64.7378H75.7573L75.7843 64.6106H75.3843ZM75.5989 64.5421H70.1389L70.0557 64.9334H75.5157L75.5989 64.5421ZM70.2973 64.7378L72.1893 55.8366H71.7893L69.8973 64.7378H70.2973ZM71.9477 56.0323H77.1217L77.2049 55.641H72.0309L71.9477 56.0323ZM90.2204 55.8366L90.3912 55.6983L90.294 55.5783L90.1336 55.6801L90.2204 55.8366ZM90.0541 57.1082L89.886 57.032L89.8832 57.0366L90.0541 57.1082ZM85.3644 64.7378L85.4093 64.9159L85.49 64.8831L85.5353 64.8094L85.3644 64.7378ZM85.2078 64.8014L85.0046 64.8601L85.0277 65.0709L85.2528 64.9794L85.2078 64.8014ZM84.6243 59.4734L84.8276 59.4146L84.7699 58.8873L84.4535 59.4017L84.6243 59.4734ZM81.3864 64.7378L81.4313 64.9159L81.5119 64.8831L81.5572 64.8094L81.3864 64.7378ZM81.2298 64.8014L81.0266 64.8601L81.0496 65.0709L81.2748 64.9794L81.2298 64.8014ZM80.2494 55.8366L80.2909 55.641H80.0183L80.0461 55.8954L80.2494 55.8366ZM81.3544 55.8366L81.5578 55.78L81.5444 55.641H81.3959L81.3544 55.8366ZM82.0813 63.3645L81.8778 63.4211L81.9298 63.9596L82.2521 63.4362L82.0813 63.3645ZM84.6026 59.2699L84.7734 59.3417L84.8131 59.2773L84.8058 59.2112L84.6026 59.2699ZM84.2274 55.8366L84.2689 55.641H83.9963L84.0241 55.8954L84.2274 55.8366ZM85.3324 55.8366L85.5358 55.78L85.5224 55.641H85.3739L85.3324 55.8366ZM86.0593 63.3645L85.8558 63.4211L85.908 63.9612L86.2303 63.4359L86.0593 63.3645ZM89.8981 57.1082L89.7316 57.0294L89.7271 57.0368L89.8981 57.1082ZM90.1001 55.9129L90.0134 55.7564L89.8002 55.8918L89.9293 56.0513L90.1001 55.9129ZM90.0495 55.975C90.1467 56.0949 90.1794 56.2507 90.1349 56.4597H90.5349C90.5986 56.1601 90.5549 55.9005 90.3912 55.6983L90.0495 55.975ZM90.1349 56.4597C90.0961 56.6423 90.0147 56.8326 89.8861 57.032L90.2221 57.1844C90.3778 56.943 90.4836 56.701 90.5349 56.4597H90.1349ZM89.8832 57.0366L85.1935 64.6662L85.5353 64.8094L90.225 57.1798L89.8832 57.0366ZM85.3195 64.5597L85.1629 64.6233L85.2528 64.9794L85.4093 64.9159L85.3195 64.5597ZM85.4111 64.7426L84.8276 59.4146L84.4211 59.5322L85.0046 64.8601L85.4111 64.7426ZM84.4535 59.4017L81.2155 64.6661L81.5572 64.8094L84.7952 59.545L84.4535 59.4017ZM81.3415 64.5597L81.1849 64.6233L81.2748 64.9794L81.4313 64.9159L81.3415 64.5597ZM81.4331 64.7426L80.4526 55.7779L80.0461 55.8954L81.0266 64.8601L81.4331 64.7426ZM80.2078 56.0323H81.3128L81.3959 55.641H80.2909L80.2078 56.0323ZM81.1509 55.8932L81.8778 63.4211L82.2847 63.3078L81.5578 55.78L81.1509 55.8932ZM82.2521 63.4362L84.7734 59.3417L84.4318 59.1981L81.9105 63.2927L82.2521 63.4362ZM84.8058 59.2112L84.4306 55.7779L84.0241 55.8954L84.3993 59.3287L84.8058 59.2112ZM84.1858 56.0323H85.2908L85.3739 55.641H84.2689L84.1858 56.0323ZM85.1289 55.8932L85.8558 63.4211L86.2627 63.3078L85.5358 55.78L85.1289 55.8932ZM86.2303 63.4359L90.0691 57.1797L89.7271 57.0368L85.8883 63.293L86.2303 63.4359ZM90.0644 57.187C90.221 56.9505 90.3271 56.7033 90.3816 56.447H89.9816C89.9388 56.6484 89.8559 56.842 89.7318 57.0294L90.0644 57.187ZM90.3816 56.447C90.4381 56.1811 90.4112 55.9478 90.271 55.7746L89.9293 56.0513C89.995 56.1324 90.0224 56.2551 89.9816 56.447H90.3816ZM90.1869 56.0694L90.3071 55.9931L90.1336 55.6801L90.0134 55.7564L90.1869 56.0694ZM98.8875 55.8366H99.0875L99.1291 55.641H98.9291L98.8875 55.8366ZM98.8605 55.9638L98.8189 56.1594H99.0189L99.0605 55.9638H98.8605ZM94.7655 55.9638L94.8071 55.7682H94.6071L94.5655 55.9638H94.7655ZM93.9546 59.7786H93.7546L93.713 59.9742H93.913L93.9546 59.7786ZM97.7506 59.7786H97.9506L97.9922 59.5829H97.7922L97.7506 59.7786ZM97.7236 59.9057L97.682 60.1014H97.882L97.9236 59.9057H97.7236ZM93.9276 59.9057L93.9692 59.7101H93.7692L93.7276 59.9057H93.9276ZM92.9275 64.6106H92.7275L92.686 64.8062H92.886L92.9275 64.6106ZM97.3085 64.6106H97.5085L97.5501 64.415H97.3501L97.3085 64.6106ZM97.2815 64.7378L97.2399 64.9334H97.4399L97.4815 64.7378H97.2815ZM91.8215 64.7378H91.6215L91.5799 64.9334H91.7799L91.8215 64.7378ZM93.7135 55.8366L93.7551 55.641H93.5551L93.5135 55.8366H93.7135ZM98.6875 55.8366L98.6605 55.9638H99.0605L99.0875 55.8366H98.6875ZM98.9021 55.7682H94.8071L94.7239 56.1594H98.8189L98.9021 55.7682ZM94.5655 55.9638L93.7546 59.7786H94.1546L94.9655 55.9638H94.5655ZM93.913 59.9742H97.709L97.7922 59.5829H93.9962L93.913 59.9742ZM97.5506 59.7786L97.5236 59.9057H97.9236L97.9506 59.7786H97.5506ZM97.7652 59.7101H93.9692L93.886 60.1014H97.682L97.7652 59.7101ZM93.7276 59.9057L92.7275 64.6106H93.1275L94.1276 59.9057H93.7276ZM92.886 64.8062H97.267L97.3501 64.415H92.9691L92.886 64.8062ZM97.1085 64.6106L97.0815 64.7378H97.4815L97.5085 64.6106H97.1085ZM97.3231 64.5421H91.8631L91.7799 64.9334H97.2399L97.3231 64.5421ZM92.0215 64.7378L93.9135 55.8366H93.5135L91.6215 64.7378H92.0215ZM93.6719 56.0323H98.8459L98.9291 55.641H93.7551L93.6719 56.0323ZM102.472 55.9384L102.5 55.7432L102.311 55.7558L102.272 55.9384H102.472ZM107.166 59.2954L107.295 59.4192L107.297 59.4176L107.166 59.2954ZM105.509 60.0583L105.51 59.8666L105.444 60.2526L105.509 60.0583ZM106.945 60.6432L107.105 60.4935L106.945 60.6432ZM100.602 64.7378H100.402L100.36 64.9334H100.56L100.602 64.7378ZM101.708 64.6106H101.508L101.466 64.8062H101.666L101.708 64.6106ZM105.225 64.0257L105.096 63.9027L105.095 63.9031L105.225 64.0257ZM105.957 60.5797L106.118 60.43L105.957 60.5797ZM104.58 60.1473L104.627 59.9517H104.622L104.58 60.1473ZM102.656 60.1473L102.698 59.9517H102.498L102.456 60.1473H102.656ZM103.527 56.0528L103.546 55.8583L103.364 55.8774L103.327 56.0528H103.527ZM102.683 60.0202H102.483L102.442 60.2158H102.642L102.683 60.0202ZM104.607 60.0202L104.566 60.216L104.574 60.2156L104.607 60.0202ZM106.646 56.4851L106.476 56.6251L106.478 56.6268L106.646 56.4851ZM102.444 56.1335C103.461 56.0659 104.351 56.0323 105.117 56.0323L105.2 55.641C104.423 55.641 103.523 55.6751 102.5 55.7432L102.444 56.1335ZM105.117 56.0323C106.171 56.0323 106.89 56.2056 107.31 56.5238C107.717 56.8327 107.86 57.2922 107.724 57.9348H108.124C108.284 57.1786 108.116 56.589 107.601 56.1985C107.099 55.8173 106.286 55.641 105.2 55.641L105.117 56.0323ZM107.724 57.9348C107.621 58.4195 107.391 58.8291 107.036 59.1731L107.297 59.4176C107.728 58.9987 108.003 58.5012 108.124 57.9348H107.724ZM107.038 59.1715C106.696 59.4975 106.196 59.7362 105.51 59.8666L105.508 60.25C106.249 60.1091 106.854 59.8392 107.295 59.4192L107.038 59.1715ZM105.444 60.2526C106.061 60.3258 106.501 60.5108 106.784 60.793L107.105 60.4935C106.759 60.1484 106.242 59.9434 105.574 59.864L105.444 60.2526ZM106.784 60.793C107.044 61.0519 107.129 61.5271 106.968 62.2836H107.368C107.539 61.4802 107.475 60.8619 107.105 60.4935L106.784 60.793ZM106.968 62.2836C106.804 63.0569 106.437 63.6067 105.884 63.9701C105.32 64.3406 104.527 64.5421 103.477 64.5421L103.394 64.9334C104.485 64.9334 105.384 64.7259 106.065 64.2784C106.756 63.8237 107.185 63.1465 107.368 62.2836H106.968ZM103.477 64.5421H100.643L100.56 64.9334H103.394L103.477 64.5421ZM100.802 64.7378L102.672 55.9384H102.272L100.402 64.7378H100.802ZM101.666 64.8062H103.421L103.504 64.415H101.749L101.666 64.8062ZM103.421 64.8062C104.222 64.8062 104.883 64.604 105.355 64.1483L105.095 63.9031C104.76 64.2273 104.246 64.415 103.504 64.415L103.421 64.8062ZM105.354 64.1487C105.82 63.7001 106.128 63.0412 106.305 62.2073H105.905C105.737 63.001 105.458 63.5543 105.096 63.9027L105.354 64.1487ZM106.305 62.2073C106.48 61.3845 106.45 60.7613 106.118 60.43L105.797 60.7293C106.008 60.9406 106.077 61.4024 105.905 62.2073H106.305ZM106.118 60.43C105.806 60.1189 105.297 59.9693 104.627 59.9518L104.533 60.3429C105.157 60.3592 105.565 60.4979 105.797 60.7293L106.118 60.43ZM104.622 59.9517H102.698L102.615 60.343H104.539L104.622 59.9517ZM102.456 60.1473L101.508 64.6106H101.908L102.856 60.1473H102.456ZM105.173 55.7682C104.662 55.7682 104.12 55.7983 103.546 55.8583L103.507 56.2473C104.068 56.1886 104.595 56.1594 105.09 56.1594L105.173 55.7682ZM103.327 56.0528L102.483 60.0202H102.883L103.727 56.0528H103.327ZM102.642 60.2158H104.566L104.649 59.8245H102.725L102.642 60.2158ZM104.574 60.2156C105.228 60.1887 105.787 59.9909 106.223 59.5955C106.655 59.2034 106.932 58.6477 107.078 57.9602H106.678C106.543 58.5952 106.301 59.044 105.976 59.3386C105.655 59.6298 105.22 59.8008 104.64 59.8247L104.574 60.2156ZM107.078 57.9602C107.223 57.2798 107.147 56.73 106.814 56.3435L106.478 56.6268C106.729 56.9185 106.807 57.352 106.678 57.9602H107.078ZM106.815 56.3452C106.485 55.9494 105.923 55.7682 105.173 55.7682L105.09 56.1594C105.779 56.1594 106.226 56.3258 106.476 56.6251L106.815 56.3452Z" fill="black" mask="url(#path-246-outside-1_3806_1548)"/>
</svg>
