<svg width="28" height="28" viewBox="0 0 28 28" fill="none" xmlns="http://www.w3.org/2000/svg">
<rect width="28" height="28" rx="3" fill="#C6BAAA"/>
<path d="M11.4378 21.3849C17.6468 21.3849 21.0418 16.2399 21.0418 11.7809C21.0418 11.6339 21.0418 11.4869 21.0348 11.3469C21.6928 10.8709 22.2668 10.2759 22.7218 9.59689C22.1198 9.86289 21.4688 10.0449 20.7828 10.1289C21.4828 9.70889 22.0148 9.05089 22.2668 8.25989C21.6158 8.64489 20.8948 8.92489 20.1248 9.07889C19.5088 8.42089 18.6338 8.01489 17.6608 8.01489C15.7988 8.01489 14.2868 9.52689 14.2868 11.3889C14.2868 11.6549 14.3148 11.9139 14.3778 12.1589C11.5708 12.0189 9.08581 10.6749 7.41981 8.63089C7.13281 9.12789 6.96481 9.70889 6.96481 10.3249C6.96481 11.4939 7.55981 12.5299 8.46981 13.1319C7.91681 13.1179 7.39881 12.9639 6.94381 12.7119C6.94381 12.7259 6.94381 12.7399 6.94381 12.7539C6.94381 14.3919 8.10581 15.7499 9.65281 16.0649C9.37281 16.1419 9.07181 16.1839 8.76381 16.1839C8.54681 16.1839 8.33681 16.1629 8.12681 16.1209C8.55381 17.4649 9.79981 18.4379 11.2768 18.4659C10.1218 19.3689 8.66581 19.9079 7.08381 19.9079C6.81081 19.9079 6.54481 19.8939 6.27881 19.8589C7.75581 20.8249 9.53381 21.3849 11.4378 21.3849Z" fill="black"/>
</svg>
