<svg width="26" height="26" viewBox="0 0 26 26" fill="none" xmlns="http://www.w3.org/2000/svg">
<g clip-path="url(#clip0_3806_1537)">
<path d="M0 26L1.83763 19.327C0.701528 17.3683 0.10554 15.1502 0.111748 12.8826C0.111748 5.77709 5.92263 0 13.0559 0C16.52 0 19.7731 1.34078 22.213 3.77519C24.659 6.2096 26.0062 9.44725 26 12.8888C26 19.9943 20.1891 25.7714 13.0497 25.7714H13.0434C10.8768 25.7714 8.74737 25.2277 6.85386 24.202L0 26ZM7.1829 21.8726L7.57402 22.1074C9.2254 23.0837 11.1189 23.5965 13.0497 23.6027H13.0559C18.9847 23.6027 23.8147 18.8018 23.8147 12.895C23.8147 10.0342 22.6972 7.34648 20.6671 5.31987C18.637 3.29325 15.9303 2.18108 13.0559 2.18108C7.12702 2.17491 2.29704 6.97576 2.29704 12.8826C2.29704 14.903 2.86198 16.8741 3.94221 18.5794L4.19675 18.9872L3.11031 22.9354L7.1829 21.8726Z" fill="white"/>
<path d="M0 26L1.83763 19.327C0.701528 17.3683 0.10554 15.1502 0.111748 12.8826C0.111748 5.77709 5.92263 0 13.0559 0C16.52 0 19.7731 1.34078 22.213 3.77519C24.659 6.2096 26.0062 9.44725 26 12.8888C26 19.9943 20.1891 25.7714 13.0497 25.7714H13.0434C10.8768 25.7714 8.74737 25.2277 6.85386 24.202L0 26ZM7.1829 21.8726L7.57402 22.1074C9.2254 23.0837 11.1189 23.5965 13.0497 23.6027H13.0559C18.9847 23.6027 23.8147 18.8018 23.8147 12.895C23.8147 10.0342 22.6972 7.34648 20.6671 5.31987C18.637 3.29325 15.9303 2.18108 13.0559 2.18108C7.12702 2.17491 2.29704 6.97576 2.29704 12.8826C2.29704 14.903 2.86198 16.8741 3.94221 18.5794L4.19675 18.9872L3.11031 22.9354L7.1829 21.8726Z" fill="white"/>
<path fill-rule="evenodd" clip-rule="evenodd" d="M9.82146 7.49488C9.57934 6.95733 9.32481 6.94497 9.0951 6.9388C8.90885 6.93262 8.69157 6.93262 8.47428 6.93262C8.25699 6.93262 7.90933 7.01294 7.61134 7.33423C7.31335 7.65553 6.48145 8.43404 6.48145 10.022C6.48145 11.6037 7.64238 13.136 7.80379 13.3523C7.96521 13.5686 10.045 16.9236 13.3291 18.2149C16.0607 19.29 16.6195 19.0738 17.2092 19.0182C17.799 18.9626 19.1214 18.2397 19.3945 17.4859C19.6615 16.732 19.6615 16.0895 19.5808 15.9535C19.5001 15.8176 19.2828 15.7373 18.9599 15.5766C18.6371 15.416 17.0478 14.6375 16.7498 14.5263C16.4518 14.4212 16.2345 14.3656 16.0235 14.6869C15.8062 15.0082 15.1854 15.7311 14.9991 15.9474C14.8129 16.1636 14.6204 16.1883 14.2976 16.0277C13.9748 15.867 12.9318 15.5272 11.6963 14.4274C10.7341 13.5747 10.0822 12.5182 9.89596 12.1969C9.70971 11.8756 9.87734 11.7026 10.0387 11.5419C10.1815 11.3998 10.3616 11.165 10.523 10.9797C10.6844 10.7943 10.7403 10.6584 10.8458 10.4421C10.9514 10.2259 10.9017 10.0405 10.821 9.87986C10.7403 9.72539 10.107 8.13129 9.82146 7.49488Z" fill="white"/>
</g>
<defs>
<clipPath id="clip0_3806_1537">
<rect width="26" height="26" fill="white"/>
</clipPath>
</defs>
</svg>
